<svg xmlns="http://www.w3.org/2000/svg" viewBox="0 0 32.22 42.58"><defs><style>.cls-1{fill:#0f226e;}</style></defs><title>24h</title><g id="圖層_2" data-name="圖層 2"><g id="圖層_1-2" data-name="圖層 1"><path class="cls-1" d="M6.36,29.34l1.09-1.09h8l-5.08-9.17-3.76.76a2.63,2.63,0,0,0-2,1.91L.09,36.31a2.64,2.64,0,0,0,2.55,3.31H6.36V29.34Z"/><path class="cls-1" d="M32.13,36.31,27.67,21.75a2.64,2.64,0,0,0-2.06-1.92l-3.74-.71-5.06,9.13h8.56l1.09,1.09V39.62h3.12a2.64,2.64,0,0,0,2.55-3.31Z"/><polygon class="cls-1" points="8.54 39.62 8.24 39.62 8.24 39.62 23.98 39.62 23.98 39.62 24.28 39.62 24.28 30.43 8.54 30.43 8.54 39.62"/><rect class="cls-1" x="4.19" y="40.61" width="23.83" height="1.97"/><path class="cls-1" d="M7.62,12.65c0,.09.1.22.16.36a3.64,3.64,0,0,0,.68,1.22c1.21,3.94,4.33,6.67,7.64,6.66s6.39-2.76,7.55-6.72A3.51,3.51,0,0,0,24.31,13c.06-.14.11-.28.15-.36a1.94,1.94,0,0,0-.33-2.41V10.1C24.12,5.2,23.48,0,16,0S7.92,5,7.94,10.15v.09A2,2,0,0,0,7.62,12.65Zm1-1.57h0A.57.57,0,0,0,9,10.83l1.3.2a.28.28,0,0,0,.29-.16L11.39,9a35.55,35.55,0,0,0,7.21,1,7.71,7.71,0,0,0,2.11-.25L21.23,11a.28.28,0,0,0,.25.17h.08l1.51-.43a.54.54,0,0,0,.31.3h0c.22.11.29.6.06,1.09a4.4,4.4,0,0,0-.18.42,4.83,4.83,0,0,1-.4.82.54.54,0,0,0-.26.33c-1,3.58-3.68,6.09-6.54,6.1s-5.6-2.48-6.63-6a.54.54,0,0,0-.26-.33,4.17,4.17,0,0,1-.41-.82,3.52,3.52,0,0,0-.18-.42C8.37,11.68,8.44,11.19,8.67,11.08Z"/></g></g></svg>