<svg xmlns="http://www.w3.org/2000/svg" xmlns:xlink="http://www.w3.org/1999/xlink" viewBox="0 0 423 104"><defs><style>.cls-1{isolation:isolate;}.cls-2{fill:#fff;}.cls-3{opacity:0.74;}.cls-4{mix-blend-mode:multiply;}.cls-5{fill:#b22828;}.cls-6{fill:url(#linear-gradient);}</style><linearGradient id="linear-gradient" x1="-303.66" y1="-34.5" x2="86.66" y2="-34.5" gradientUnits="userSpaceOnUse"><stop offset="0" stop-color="#f99082"/><stop offset="1" stop-color="#ef5a67"/></linearGradient></defs><title>banner_title</title><g class="cls-1"><g id="圖層_2" data-name="圖層 2"><g id="圖層_1-2" data-name="圖層 1"><rect class="cls-2" y="29.5" width="423" height="43.5"/><g class="cls-3"><g class="cls-4"><path class="cls-5" d="M77.57-79H-278.9a14.08,14.08,0,0,0-13.91,11.89l-5.68,35.81A14.1,14.1,0,0,0-284.57-15h0A14.09,14.09,0,0,1-270.65,1.3L-271,3.7A14.09,14.09,0,0,0-257.11,20H41.35A14.09,14.09,0,0,0,55.27,8.11L57.05-3.11A14.09,14.09,0,0,1,71-15h.93A14.08,14.08,0,0,0,85.81-26.89L91.49-62.7A14.1,14.1,0,0,0,77.57-79Z" transform="translate(320 84)"/></g><path class="cls-6" d="M72.57-84H-283.9a14.08,14.08,0,0,0-13.91,11.89l-5.68,35.81A14.1,14.1,0,0,0-289.57-20h0A14.09,14.09,0,0,1-275.65-3.7L-276-1.3A14.09,14.09,0,0,0-262.11,15H36.35A14.09,14.09,0,0,0,50.27,3.11L52.05-8.11A14.09,14.09,0,0,1,66-20h.93A14.08,14.08,0,0,0,80.81-31.89L86.49-67.7A14.1,14.1,0,0,0,72.57-84Z" transform="translate(320 84)"/></g><path class="cls-2" d="M-249.72-54.37a20.73,20.73,0,0,0-.81-2.71l-1.79,11.3h-2.24l1.61-10.15a28.32,28.32,0,0,1-2.74,5.19,16.21,16.21,0,0,0-.66-2.83,28.52,28.52,0,0,0,3.85-7.49h-2.06l.42-2.64h2.42l.71-4.46h2.23l-.71,4.46h1.83l-.15.91a22.09,22.09,0,0,0,7.27-5.68l2.55,1a7.17,7.17,0,0,1-.57.72,18.47,18.47,0,0,0,6.2,3.62,14.33,14.33,0,0,0-1.56,2.71,23,23,0,0,1-3.1-1.77l-.25,1.56h-7.06l.22-1.39c-.85.52-1.74,1-2.61,1.46a10.85,10.85,0,0,0-1.18-1.61l-.18,1.13h-1.82l-.17,1c.46.77,1.62,3.15,1.86,3.72Zm5.68,1.73c-.22.48-.49,1-.75,1.42a12.25,12.25,0,0,1,2,1.72l-1.72,1.9a9.25,9.25,0,0,0-1.66-1.66,15.19,15.19,0,0,1-4,3.58,8.92,8.92,0,0,0-1.53-1.8,12.27,12.27,0,0,0,5.24-5.69Zm-3.29-6.81h5.81l-.95,6h-5.81Zm1.39,4.12h1.61l.35-2.2h-1.61Zm8.63,2.5a17.73,17.73,0,0,1-.84,1.94A26.3,26.3,0,0,1-234.88-48l-2,1.92a19.78,19.78,0,0,0-2.64-2.59,12.27,12.27,0,0,1-3.13,3,8.65,8.65,0,0,0-1.52-1.8,10.2,10.2,0,0,0,4.36-5.69Zm-.53-10a19,19,0,0,1-2.5-2.13A26.41,26.41,0,0,1-243-62.79Zm-2.62,3.34h6l-1,6h-6Zm1.41,4.12h1.7l.35-2.2h-1.7Z" transform="translate(320 84)"/><path class="cls-2" d="M-222-66.19c-.9,2.11-2.05,4.65-3,6.57a7.91,7.91,0,0,1,.8,5.11,4.53,4.53,0,0,1-1.54,3.19,2.89,2.89,0,0,1-1.4.53,7.35,7.35,0,0,1-1.42,0,5.4,5.4,0,0,0-.22-2.45c.38,0,.65,0,.89,0a1.2,1.2,0,0,0,.66-.21,2.53,2.53,0,0,0,.59-1.46,6.93,6.93,0,0,0-.75-4.52c.67-1.51,1.45-3.6,2.05-5.23h-1.83l-3,18.84h-2.47l3.39-21.38h5.13l.43-.12Zm5.91-1.23a43.59,43.59,0,0,1-2.59,4.73l-2.67,16.84h-2.5l2-12.55c-.41.48-.85.94-1.27,1.35a13.38,13.38,0,0,0-1.26-2.47,28,28,0,0,0,5.87-8.59Zm-.26,8.78A34.74,34.74,0,0,1-215-53.43l-2.45,1.1a40.44,40.44,0,0,0-1.22-5.32Zm7.56-1.65h-1.75l-1.78,11.2c-.22,1.42-.61,2.21-1.5,2.69a8.4,8.4,0,0,1-3.79.57,10.32,10.32,0,0,0-.42-2.83c1.05,0,2.09,0,2.42,0s.5-.12.56-.48l1.77-11.18h-4.94l.41-2.64h4.95l.75-4.75h2.74l-.76,4.75h1.76Z" transform="translate(320 84)"/><path class="cls-2" d="M-199.36-55.42l-2.86.77-.91,5.73c-.22,1.39-.6,2.09-1.48,2.54a8.15,8.15,0,0,1-3.71.53,9.38,9.38,0,0,0-.42-2.64c.93,0,1.91,0,2.23,0s.47-.12.52-.46l.79-5c-1,.27-1.92.48-2.8.7l-.28-2.78c1-.22,2.24-.48,3.54-.79l.65-4.16h-3l.44-2.73h3l.71-4.49h2.85l-.71,4.49h2.38l-.43,2.73h-2.38l-.55,3.48c.85-.21,1.7-.4,2.5-.62Zm1-1.27h11.66l-1.72,10.84h-2.83l.15-.93h-6.12l-.16,1h-2.72Zm4.15-1.49c-3.15,0-4-1-3.53-3.79l1-6.19h2.83l-.41,2.59H-185l-.39,2.45h-9.29l-.2,1.24c-.14.92,0,1.25,1.08,1.25h5.42a21.21,21.21,0,0,0,3.13-.19c0,.72-.09,1.78-.1,2.42a16.92,16.92,0,0,1-3.27.22Zm3.47,9.12.25-1.59h-6.12l-.25,1.59ZM-196-54.34l-.23,1.46h6.12l.23-1.46Z" transform="translate(320 84)"/><path class="cls-2" d="M-172.4-49.11a20.35,20.35,0,0,0,2.8.17c1.27,0,5.23,0,6.87-.05a11.52,11.52,0,0,0-1.49,2.9h-6c-4.49,0-7.66-.74-9.3-4.22a15.36,15.36,0,0,1-3.94,4.61,10.85,10.85,0,0,0-2-1.9c2.9-1.94,4.63-5.28,5.71-9.36l2.86.27c-.28,1-.63,2-1,2.9a5.27,5.27,0,0,0,2.6,3.84l1.29-8.13h-5.11l.43-2.74h13.2l-.43,2.74H-171l-.45,2.83h6.58l-.43,2.68h-6.58Zm-7.27-10.51h-2.81l.95-6h8.91a14.18,14.18,0,0,0-.53-2l3-.79a12.93,12.93,0,0,1,.81,2.78H-161l-.95,6h-3l.53-3.31h-14.76Z" transform="translate(320 84)"/><path class="cls-2" d="M-155.33-51a18.66,18.66,0,0,1-4.27,5.23,11.17,11.17,0,0,0-2-1.61,13.38,13.38,0,0,0,3.68-4.29Zm4.81-.86h-8.88L-157-67.23h8.88Zm-2.07-4.51H-156l-.35,2.23h3.41Zm.69-4.35h-3.41l-.35,2.23h3.41Zm.68-4.29h-3.41l-.34,2.18h3.4Zm-1.17,13.29a14.33,14.33,0,0,1,2,3.84l-2.59,1.22a15.74,15.74,0,0,0-1.9-4.05Zm15.44-8.2h-2.59L-141.27-49c-.23,1.44-.64,2.21-1.52,2.66a8.72,8.72,0,0,1-3.87.6,9.46,9.46,0,0,0-.51-2.81c1.09,0,2.15,0,2.51,0s.53-.14.58-.5l1.16-7.32a29.18,29.18,0,0,1-6.14,6.79,10.85,10.85,0,0,0-1.61-2.09,26.6,26.6,0,0,0,7.33-8.27h-5.28l.42-2.64h6.27l.88-5.57h2.8l-.88,5.57h2.6Z" transform="translate(320 84)"/><path class="cls-2" d="M-129.71-47.1h-4.64l-.16,1h-2.16l1.31-8.25h6.79Zm-5.08-10.55h6.63l-.34,2.16h-6.63Zm18,5.95c-.72,1.1-1.48,2.25-2.13,3.14h3.82l-.36,2.28H-129l.36-2.28h3.62a9.76,9.76,0,0,0-.67-3l2.32-.6h-2.83l.9-5.66c-.27.19-.54.38-.84.57a8.06,8.06,0,0,0-1.35-1.89,11.38,11.38,0,0,0,2.66-2.28,10.65,10.65,0,0,0-1.71-1.32l-.12.79H-135l.35-2.25h3.82a25.46,25.46,0,0,0-1.13-3l2.13-1.17a19.27,19.27,0,0,1,1.35,3.17l-1.63,1h3.79l-.21,1.32,1.69-1.71a18.08,18.08,0,0,1,1.57,1c.29-.5.59-1,.85-1.58h-2.88l.35-2.23h3.79l.48-.1,1.57.53a23,23,0,0,1-2.68,5.37h4.08a21.37,21.37,0,0,1-1.2-6.07l2.42-.43a15.46,15.46,0,0,0,.19,1.56c.55-.43,1.08-.89,1.47-1.25l1.43,1.56c-.79.6-1.7,1.22-2.45,1.71a4.82,4.82,0,0,0,.29.91c.64-.44,1.34-.91,1.79-1.3l1.36,1.56a27.34,27.34,0,0,1-2.36,1.42,6.83,6.83,0,0,0,2.13,2.3,11.22,11.22,0,0,0-2.2,2.09c-.24-.2-.47-.39-.68-.58l-.94,6h-2.21Zm-11.25-7h-6.62l.34-2.16h6.63Zm-5.56,6.65-.43,2.68h2.43l.42-2.68ZM-123-60.12a14.94,14.94,0,0,1-1.86,1.87h9.15a8.29,8.29,0,0,1-1.44-2l-.14.94h-5.84Zm-.25,8a9.28,9.28,0,0,1,.79,3.14l-1.65.46h2.68a34.08,34.08,0,0,0,1.87-3.6Zm-.29-2.13h4.82l.29-1.8h-4.83Z" transform="translate(320 84)"/><path class="cls-2" d="M-99.38-63.94s-.17,1-.25,1.32c-2,10.15-2.92,13.89-3.94,15a3.09,3.09,0,0,1-2.05,1.27,12.9,12.9,0,0,1-2.76.12,7.21,7.21,0,0,0-.34-2.95c.82.07,1.59.1,2,.1a1.08,1.08,0,0,0,.91-.46c.64-.7,1.47-3.67,3-11.61h-2.35c-1.25,6.05-3,11.56-6.47,15.38a6.1,6.1,0,0,0-1.94-2C-110.46-51-109-55.85-108-61.13h-2.81l.45-2.79h2.88c.24-1.36.46-2.78.68-4.17h2.88c-.22,1.39-.47,2.81-.71,4.17ZM-89-65.43l-3,19h-3l.24-1.49H-98l-.26,1.65h-2.86l3-19.17Zm-5.31,14.76,1.9-12h-3.22l-1.9,12Z" transform="translate(320 84)"/><path class="cls-2" d="M-88.16-57.17A32.75,32.75,0,0,0-86-63.44l2,.27a36.07,36.07,0,0,1-2.15,6.74Zm7.39-1.51a19,19,0,0,0-.56-3.24l-2.56,16.14h-2.83l3.54-22.38h2.83l-.71,4.51,1.38-.55a23.43,23.43,0,0,1,1.16,4.53Zm7.64,3.88a16.54,16.54,0,0,1-8.14,9.17,9.89,9.89,0,0,0-1.67-2.21,12.54,12.54,0,0,0,6.93-7h-4.77l.43-2.71h5.16c.19-.77.3-1.49.42-2.21l.34-2.18h-4.12l.41-2.64H-74l.58-3.62h2.88l-.58,3.62h5.21l-1.11,7h1.51l-.43,2.71Zm2.48.1c1.2,2.33,2.9,5.49,3.63,7.39l-2.82,1.46a74.7,74.7,0,0,0-3.37-7.65Zm-1.25-5c-.11.72-.25,1.44-.41,2.18h2.49l.7-4.39h-2.43Z" transform="translate(320 84)"/><path class="cls-2" d="M-57.25-54.1A25.26,25.26,0,0,0-58-56.64L-59.7-45.78h-2.74l1.4-8.83a25.2,25.2,0,0,1-2.8,4.54,13.6,13.6,0,0,0-.92-2.88A28.49,28.49,0,0,0-60-61.06h-2.88l.42-2.64h2.9l.71-4.49h2.74l-.71,4.47h2.4l-.42,2.66h-2.4l-.12.77c.53.89,1.81,3.6,2.11,4.27Zm15.45-1.63a28.28,28.28,0,0,1-4.31,4.46,33.09,33.09,0,0,1,3.41,3.45L-45.2-46a22.92,22.92,0,0,0-3.22-3.62,30.92,30.92,0,0,1-8.34,3.86A13.78,13.78,0,0,0-58-48.15c5.88-1.54,10.92-4.85,13.46-8.64Zm-.91-4.73A29.6,29.6,0,0,1-54.78-51,11.24,11.24,0,0,0-56-53.24a24.83,24.83,0,0,0,6.48-3.67c-3.64.27-4.45.41-5,.62a16.55,16.55,0,0,0-.29-2.59,4.41,4.41,0,0,0,2-.79c.46-.43,1.6-1.87,2.53-3.07h-4l.41-2.59h5.61a10.83,10.83,0,0,0-.48-2.26l2.82-.81a12,12,0,0,1,.76,3.07h4.87l-.41,2.59h-6.6c-.9,1.15-1.9,2.45-2.82,3.55l3.22-.14a20.2,20.2,0,0,0,1.59-2Z" transform="translate(320 84)"/><path class="cls-2" d="M-25.73-49.78a63,63,0,0,1,6.4,2.8l-3.52,1.28a39.13,39.13,0,0,0-5.79-2.84l2.36-1.24h-7l2,1a35.26,35.26,0,0,1-8,3.14A24.77,24.77,0,0,0-41-47.77a32.2,32.2,0,0,0,6.92-2h-3.52l1.54-9.74h14.83a7,7,0,0,1-5.52-3.92l-4.1.24.12-2.11,3.27-.19a11.84,11.84,0,0,1-.2-2.66H-25a7.09,7.09,0,0,0,.4,2.52l3.78-.22a20.61,20.61,0,0,0-2.82-1l1.49-1.36a14,14,0,0,1,3.91,1.34l-1,.93,2.49-.14L-16.87-64l-6.59.39a4.77,4.77,0,0,0,3.52,1.7c.63,0,.86-.41,1.17-1.63a5,5,0,0,0,1.94,1c-.7,2.4-1.54,3-3.21,3.12l-1.54,9.7ZM-34.55-63c-1,.6-1.93,1.13-2.84,1.58a11.75,11.75,0,0,0-1.69-2,23,23,0,0,0,7.56-4.84l2.43,1a21.9,21.9,0,0,1-2.38,2.16l-.81,5.09H-35Zm-.05,11.56h10.41l.17-1H-34.44Zm.42-2.66h10.41l.17-1H-34Zm.42-2.64h10.41l.17-1H-33.6Z" transform="translate(320 84)"/><path class="cls-2" d="M-8.89-56.67a24.25,24.25,0,0,1-2.95,6l1.22.8c1.51.93,3.76,1.07,6.5,1.07a82.64,82.64,0,0,0,9.85-.64,13.53,13.53,0,0,0-1.32,3c-2,.14-6.26.29-9.07.29-3.15,0-5.14-.27-6.75-1.23-.92-.52-1.64-1.24-2.13-1.24s-1.71,1.56-2.54,2.85l-1.46-2.76a13.06,13.06,0,0,1,2.6-2,16.65,16.65,0,0,0,2.7-4.32H-15.6c.85-1.42,1.85-3.34,2.8-5.21h-2.4l.4-2.54h6c-.84,1.7-1.84,3.62-2.75,5.28h.65l.44-.07Zm-3-6.55c-.23-1.1-.79-2.85-1.12-4.15l2.62-.91c.37,1.29.93,2.93,1.22,4Zm10-.48H-7.88l.38-2.37h5.93l.32-2H1.53l-.32,2H7.48L7.1-63.7H.83l-.2,1.3H6.1l-1,6.45H.59a28,28,0,0,1,4.65,3.67l-2.06,2A21.23,21.23,0,0,0-.73-53.79l-.67,4.2H-4.18l.68-4.32A18.23,18.23,0,0,1-8.83-50a8.69,8.69,0,0,0-1.46-2.15,16.79,16.79,0,0,0,5.87-3.82h-4l1-6.45h5.26Zm-3.5,5.59h2.62l.33-2.11H-5.12ZM.28-60.22,0-58.11H2.64L3-60.22Z" transform="translate(320 84)"/><path class="cls-2" d="M13.36-59.74c-.64,4-1.9,10-4.51,13.94A9.31,9.31,0,0,0,6.43-47c2.5-3.7,3.52-9,4.09-12.7l1-6.38h9a9.76,9.76,0,0,0-.33-1.58l3-.65a14.26,14.26,0,0,1,.56,2.23h7.92l-.42,2.66H13.94Zm14.88,6.19a15,15,0,0,1-4.92,4.44,37.29,37.29,0,0,0,5.89.86,16.46,16.46,0,0,0-2,2.47,25.14,25.14,0,0,1-7.5-1.75,36.31,36.31,0,0,1-7.84,1.61A9.15,9.15,0,0,0,11-48.3a38.75,38.75,0,0,0,5.8-.83,11,11,0,0,1-2.49-2.62l1-.38H12.83l.35-2.24H26.09l.52-.09ZM16.38-55.33,17-59.07H13.73l.36-2.23h3.24l.25-1.58h2.69L20-61.3h4.37l.25-1.58h2.84l-.25,1.58h3.45l-.35,2.23H26.86l-.59,3.74Zm1,3.2a9,9,0,0,0,2.86,1.94,14.17,14.17,0,0,0,3.47-1.94Zm2.27-6.94-.25,1.58h4.37L24-59.07Z" transform="translate(320 84)"/><path class="cls-2" d="M33.75-50a2.89,2.89,0,0,1,2.87-2.37A2,2,0,0,1,38.74-50a2.84,2.84,0,0,1-2.87,2.36A2,2,0,0,1,33.75-50ZM36.1-62.21l.47-3.58H41l-.69,3.58L38.13-54H35.66Z" transform="translate(320 84)"/><path class="cls-2" d="M-245-15.3a13.31,13.31,0,0,0,0,1.89c-3.4.89-4.81,1.3-5.53,1.56.88.07,1.88.1,2.92.1a81.69,81.69,0,0,0,9.79-.63,13.32,13.32,0,0,0-1.28,2.93c-2,.12-6.26.29-9.07.29-3.17,0-5.16-.26-6.73-1.27-.9-.55-1.64-1.35-2.14-1.35s-1.65,1.64-2.47,3L-261-11.49a12.75,12.75,0,0,1,3-2.33,31.39,31.39,0,0,0,1.88-4.12h-2.95c.8-1.44,1.75-3.34,2.62-5.21h-2.2l.4-2.54h5.69c-.78,1.7-1.7,3.62-2.54,5.28h.86l.45-.1,1.13.43a41,41,0,0,1-1.54,3.84,27.14,27.14,0,0,0,6-1.7h-3.57l.69-4.42h12.34l-.7,4.42h-.5l1.21.86c-.75.48-1.57,1-2.36,1.39.91.6,1.76,1.18,2.31,1.61l-1.67,1.75a62.83,62.83,0,0,0-5.37-4l1.53-1.49,1.57,1c.63-.39,1.3-.82,1.84-1.2h-3.91A18.12,18.12,0,0,1-248-16l-.24,1.51ZM-255.6-26.39c-.09-1.08-.46-2.81-.67-4.1l2.65-.77c.25,1.3.62,2.9.78,4Zm5.09,11.4a25,25,0,0,1-2.59.72,8.35,8.35,0,0,0-1.12-1.87c-.37.81-.78,1.58-1.2,2.3.36.26.77.6,1.31,1a7.49,7.49,0,0,0,2.94,1,4.51,4.51,0,0,0-.46-1.49,1.58,1.58,0,0,0,1.09-1.39Zm13.74-8.11h-16.08l.31-2h16.08Zm-.68-2.71h-13.77l.76-4.82h13.78Zm-11.43,6.28H-242l.2-1.24h-6.87Zm2-9.52h-1.46l-.26,1.65h1.46Zm3.7,0h-1.54l-.26,1.65h1.54Zm3.67,0H-241l-.27,1.65h1.54Z" transform="translate(320 84)"/><path class="cls-2" d="M-225.44-25.72a18.37,18.37,0,0,1-1.26,1.9h11.16L-217.42-12c-.22,1.42-.61,2.18-1.66,2.62a11.3,11.3,0,0,1-4.32.48,10.74,10.74,0,0,0-.43-2.76c1.21.07,2.61.07,3,.07s.58-.14.63-.48l.23-1.44h-9a10.19,10.19,0,0,1-3.42,4.77,7.72,7.72,0,0,0-1.71-2.18c2.35-1.8,2.92-4.37,3.27-6.6l.31-1.94a24.11,24.11,0,0,1-3.39,2.62A13.11,13.11,0,0,0-235.45-19a22.9,22.9,0,0,0,6.82-6.7h-5.21l.43-2.68H-227c.54-1,1-2,1.42-2.91l2.85.68c-.36.74-.75,1.48-1.13,2.23h11.72l-.43,2.68Zm5.86,9.86.24-1.55h-8.61c-.08.5-.19,1-.3,1.55Zm.86-5.44h-8.62l-.24,1.51H-219Z" transform="translate(320 84)"/><path class="cls-2" d="M-205.88-17.7a20.49,20.49,0,0,0-.61-2.33l-1.77,11.16h-2.45l1.47-9.26a26.94,26.94,0,0,1-2.31,4.29,17.17,17.17,0,0,0-.66-2.83,28.16,28.16,0,0,0,3.78-7.51h-2l.41-2.64h2.12l.7-4.46h2.45l-.71,4.46h1.61l-.42,2.64h-1.6l-.17,1.06c.41.74,1.43,2.95,1.65,3.52ZM-190.94-16a17.91,17.91,0,0,1-3.2,3.53,2,2,0,0,0,1.35.86c.45.05.87-.81,1.3-2.49a5.87,5.87,0,0,0,1.57,1.51c-1.1,3-2.19,3.81-3.21,3.74a4.06,4.06,0,0,1-3.21-2,20.3,20.3,0,0,1-4.11,2,9,9,0,0,0-1.17-1.82,18.5,18.5,0,0,0,4.47-2.16,18.24,18.24,0,0,1-.62-3.84H-201c-.05.17-.08.36-.13.53a36.19,36.19,0,0,1,2.63,2.59l-2,1.68A17.15,17.15,0,0,0-202-13.7a12.23,12.23,0,0,1-4,4.8,7.25,7.25,0,0,0-1.64-1.63,9.42,9.42,0,0,0,4.25-6.24h-1.41l.34-2.18h6.7a78.77,78.77,0,0,1,.51-8.4,37.75,37.75,0,0,1-4.05,5l1.37-.14c-.07-.36-.1-.75-.14-1.08l1.72-.43a26.69,26.69,0,0,1,.41,3.45l-1.86.53a7.73,7.73,0,0,0,0-.82,19.36,19.36,0,0,0-3.89.75c-.06-.39-.21-1.42-.36-1.94a3.09,3.09,0,0,0,1.37-1.06c.25-.26.79-.91,1.43-1.75a8.07,8.07,0,0,0-2,.4c-.05-.43-.24-1.39-.37-1.91a2.1,2.1,0,0,0,1-.87,21.77,21.77,0,0,0,2.22-3.84l2,.53a31.17,31.17,0,0,1-2.7,4l1.09-.1a17.44,17.44,0,0,0,.91-1.49l1.88.68.44-3.65h2.35a77.84,77.84,0,0,0-.91,12.14h2.2c-.35-.36-.75-.72-1.08-1l1.22-.89a6.29,6.29,0,0,0-1.77.43,17,17,0,0,0-.34-2,3.37,3.37,0,0,0,1.35-1.1,14.76,14.76,0,0,0,1.38-1.7,7,7,0,0,0-1.94.41c-.08-.44-.24-1.37-.39-1.92a2.12,2.12,0,0,0,1-.82,21.56,21.56,0,0,0,2-3.62l2,.55a24.12,24.12,0,0,1-2.45,3.69l1.09-.07c.29-.48.59-1,.86-1.49l1.95.68a38.27,38.27,0,0,1-4,5.08l1.34-.14c-.07-.34-.11-.7-.18-1l1.71-.45a29.93,29.93,0,0,1,.55,3.47l-1.8.6a9.14,9.14,0,0,0-.06-1l-1.55.24a16,16,0,0,1,1.59,1.46l-.71.58h1.92l-.35,2.18h-2.78Zm-4.4-.72a14.27,14.27,0,0,0,.31,2.09,13.29,13.29,0,0,0,1.75-2.09Z" transform="translate(320 84)"/><path class="cls-2" d="M-172.42-30.59l-.43.46c1.9,1.92,5.58,3.57,9.28,4.32a12.32,12.32,0,0,0-2.15,2.18c-.46-.12-.94-.29-1.42-.43l-1,6.19H-184.8l1-6.05c-.54.17-1.07.34-1.56.46a12.58,12.58,0,0,0-1.19-2.21c4.58-1,9.17-3,11.79-5.8Zm-11.16,13.51h14.11L-170.75-9h-2.93l.09-.57H-182l-.1.64h-2.81ZM-168-24.37a21.73,21.73,0,0,1-3-1.47l-.1.63h-8.42l.08-.48c-1,.48-2,.93-3.12,1.32Zm-12.51,4.77a8.44,8.44,0,0,0-.42-2.49l1.93-.53h-2.71l-.48,3Zm7.18,8.18.15-1h-8.38l-.15,1Zm-7.78-3.79-.15,1h8.37l.16-1Zm4.1-7.41h-1.87a10,10,0,0,1,.56,2.54l-1.62.48h2.45Zm4.16-4.44a18.23,18.23,0,0,1-1.77-1.56c-.71.53-1.49,1.06-2.29,1.56Zm-1.85,4.44-.48,3h2.23l-1.38-.41a22.19,22.19,0,0,0,1.35-2.61Zm4.75,0h-2.5l1.8.45c-.63,1-1.23,1.9-1.72,2.57h1.94Z" transform="translate(320 84)"/><path class="cls-2" d="M-158.44-17.8l-.88,5.59c-.21,1.32-.54,2-1.33,2.45a6.34,6.34,0,0,1-3.4.55,8.25,8.25,0,0,0-.33-2.61c.89,0,1.7,0,2,0s.42-.1.47-.41l.76-4.8-2.31.62-.21-2.76c.84-.16,1.85-.43,3-.69l.67-4.25h-2.59l.42-2.64h2.59l.72-4.53h2.59l-.72,4.53h2.4l-.42,2.64h-2.4l-.56,3.55,2.25-.57,0,2.56Zm10,6.05c.54.05,1.07.07,1.67.07.81,0,3.79,0,4.82,0a10,10,0,0,0-1.16,2.49h-4.18c-3.14,0-5.47-.58-6.65-3.48a13.21,13.21,0,0,1-3.11,3.77,11.37,11.37,0,0,0-1.82-1.7c2.24-1.59,3.65-4.25,4.52-7.51l2.55.31a25.26,25.26,0,0,1-.84,2.42A4.32,4.32,0,0,0-151-12.59l1-6.26h-5.64l.37-2.31h14.18l-.36,2.31h-5.86l-.33,2.11h4.58l-.35,2.23H-148Zm6.32-10.51H-154l1.31-8.28h11.81Zm-2.23-3.24h-6.45l-.2,1.22h6.46Zm.49-3.05h-6.46l-.19,1.2h6.46Z" transform="translate(320 84)"/><path class="cls-2" d="M-119.48-11.49A2.19,2.19,0,0,1-121-9.38a13.55,13.55,0,0,1-3.87.29,7.73,7.73,0,0,0-.52-2h-6.86l-.16,1h-2.64l1-6.33h10.44l-.84,5.33h-.34c.84,0,1.68,0,1.92,0s.5-.1.55-.41l.92-5.81h-14.33l-1.33,8.42h-2.77l1.7-10.72h20ZM-116.14-29l-.38,2.4h-21.19l.38-2.4h9.24c-.11-.58-.2-1.18-.31-1.68l3.06-.72c.15.74.39,1.63.56,2.4Zm-4.19,8.44h-15.15l.81-5.13h15.15Zm-2.5-3.21h-9.28l-.21,1.32H-123Zm-3.64,9.38h-5.28l-.22,1.37h5.28Z" transform="translate(320 84)"/><path class="cls-2" d="M-101.2-12.9a61.79,61.79,0,0,1,6.39,2.8l-3.51,1.27a40.25,40.25,0,0,0-5.79-2.83l2.35-1.24h-7l2,1a35.34,35.34,0,0,1-8,3.14,22.92,22.92,0,0,0-1.78-2.09,32.37,32.37,0,0,0,6.92-2h-3.53l1.54-9.74h14.84a7,7,0,0,1-5.53-3.92l-4.09.24.12-2.11,3.27-.19a11.86,11.86,0,0,1-.21-2.66h2.67a7.09,7.09,0,0,0,.39,2.52l3.78-.22a20.15,20.15,0,0,0-2.82-1l1.49-1.36A14.09,14.09,0,0,1-93.74-30l-1,.93,2.5-.14-.11,2.06-6.59.39a4.74,4.74,0,0,0,3.52,1.7c.63,0,.85-.41,1.17-1.63a5,5,0,0,0,1.93,1c-.69,2.4-1.53,3-3.21,3.12L-97-12.9ZM-110-26.17a31.66,31.66,0,0,1-2.85,1.58,11.31,11.31,0,0,0-1.69-2A22.9,22.9,0,0,0-107-31.47l2.44,1a24,24,0,0,1-2.38,2.16l-.81,5.08h-2.74Zm-.06,11.56h10.42l.17-1.05h-10.42Zm.42-2.66h10.42l.16-1h-10.41Zm.42-2.64h10.42l.16-1h-10.41Z" transform="translate(320 84)"/><path class="cls-2" d="M-88.2-15.59a32.18,32.18,0,0,1-2.72,5.06,13.51,13.51,0,0,0-2-.93,25.61,25.61,0,0,0,2.52-4.68Zm3.64-1-1.23,7.73h-2.68l1.22-7.73h-4.63l.37-2.35h11.78l-.37,2.35Zm4.42-5.64a30,30,0,0,0,3.78-9l2.7.38c-.38,1.32-.81,2.64-1.27,3.89h4.75l.43-.1,1.91.53a63.71,63.71,0,0,1-2.86,6.81l-2.19-.69c.47-1,1-2.52,1.54-4H-76a24.59,24.59,0,0,1-2.77,4.72,12.14,12.14,0,0,0-1.57-1.41l-.16,1h-9.77l.37-2.3h9.77ZM-85.62-27h-4.3l.37-2.32h4.3l.27-1.75h2.67l-.28,1.75h4.23L-78.73-27H-83l-.19,1.23h3.69l-.36,2.3H-89.88l.37-2.3h3.69Zm3.75,10.85a20.8,20.8,0,0,1,1,3.67l-2.38,1a26.72,26.72,0,0,0-.84-3.82Zm8.42-5.42c-.1.67-.25,1.41-.42,2.23.22,3.57,1.32,6.64,3.81,8.06A13.12,13.12,0,0,0-72.34-8.9a9,9,0,0,1-3.35-5.54,17.14,17.14,0,0,1-4.66,5.66,7.29,7.29,0,0,0-1.86-1.94,16.11,16.11,0,0,0,6.06-11l.18-1.12h2.71Z" transform="translate(320 84)"/><path class="cls-2" d="M-60.56-20.08a34.71,34.71,0,0,1-2.86,6.24c.34.24.75.58,1.31,1,1.5,1,3.73,1.13,6.54,1.13a82.73,82.73,0,0,0,9.82-.63A11.75,11.75,0,0,0-47-9.45c-2,.12-6.27.29-9.07.29-3.2,0-5.17-.26-6.74-1.27-.92-.55-1.66-1.35-2.14-1.35s-1.67,1.64-2.49,3L-69-11.49a13.48,13.48,0,0,1,2.89-2.3,27.65,27.65,0,0,0,2-4.15h-3c.78-1.42,1.71-3.34,2.56-5.21h-2.16l.4-2.54h5.62c-.77,1.68-1.65,3.6-2.5,5.28h1l.44-.1Zm-3-6.31c-.09-1.08-.46-2.81-.66-4.12l2.64-.77c.25,1.29.62,2.9.78,4Zm4.91,13.58h-2.47l1.65-10.44h1.78l1.16-7.34h10.34l-1.16,7.34h1.75l-1.27,8c-.17,1.13-.46,1.73-1.27,2.11a7.3,7.3,0,0,1-3,.38,7,7,0,0,0-.3-2.06h-3.6l-.12.74h-2l1-6H-50l-.81,5.16h1c.26,0,.35-.08.39-.32l.92-5.82h-8.81Zm3.43-10.44h1.34l.6-3.76h4l.23-1.47h-5.3Zm2.86,5h-2.16l-.27,1.68h2.16Zm2.76-7h-1.9l-.31,2H-50Z" transform="translate(320 84)"/><path class="cls-2" d="M-33.93-30.32a51.53,51.53,0,0,1-3.16,5.11L-39.68-8.9h-2.71L-40.48-21c-.57.6-1.15,1.2-1.71,1.73a16.08,16.08,0,0,0-1.07-3,31.36,31.36,0,0,0,6.75-9Zm12.42,13.39h-6.14l-1.28,8.06h-2.88l1.28-8.06H-37l.44-2.79h6.48l.65-4.12h-2.93a21.18,21.18,0,0,1-2,3.09,16.11,16.11,0,0,0-2.26-1.37A26.15,26.15,0,0,0-32.53-30l2.67.57c-.34.94-.72,1.85-1.13,2.76h2l.69-4.34h2.88l-.69,4.34h5l-.44,2.79h-5l-.65,4.12h6.14Z" transform="translate(320 84)"/><path class="cls-2" d="M1.75-13.29H-7.66l-.69,4.37H-11.4l.69-4.37H-20.1l.42-2.64h9.39l.25-1.61h3l-.25,1.61h9.4ZM-5-17.08a7.34,7.34,0,0,0-.27-1.17c-5.82.57-6.76.71-7.4,1a16.3,16.3,0,0,0-.41-2.28c-1.71.84-3.53,1.7-5,2.38l-1-2.28c1.6-.56,4-1.52,6.36-2.43l.2,2.09-.47.24a6.53,6.53,0,0,0,2.23-1.22c.41-.29,1.19-.87,2.16-1.68a10.17,10.17,0,0,0-2.8.41,22.49,22.49,0,0,0-.41-2.24,2.89,2.89,0,0,0,1.23-.81c.26-.27.86-.89,1.54-1.71h-8.18l.41-2.56H-8a12.75,12.75,0,0,0-.6-1.37l3-.67a9.65,9.65,0,0,1,1,2H4L3.55-26.8H-6.36a23.78,23.78,0,0,1-2,2.14l2.2-.07a24,24,0,0,0,1.84-1.95l2,1.3A52,52,0,0,1-8.66-20l2.56-.2a11.25,11.25,0,0,0-.63-1.2l2.21-.74c.28.48.6,1,.88,1.56l1.78-1.25a24.65,24.65,0,0,1,4.29,3.05L.09-17.1a18.91,18.91,0,0,0-3.4-2.76,8.71,8.71,0,0,1,.63,1.94ZM-14.56-22a16.41,16.41,0,0,0-3.1-2.71l2.11-1.51a16.12,16.12,0,0,1,3.27,2.54Zm11.45-1.34a25.49,25.49,0,0,0,3.54-3L2.59-25A36.51,36.51,0,0,1-1.21-22Z" transform="translate(320 84)"/><path class="cls-2" d="M10.63-14.54H6.86l-.32,2H4.19L6.91-29.68H13ZM8.9-27.42,7.22-16.81H8.69l1.68-10.61Zm17.8,6.89a31.94,31.94,0,0,1-4,6.33c.09,1.7.34,2.71.84,2.71.34,0,.67-.89,1.06-3A4.8,4.8,0,0,0,26.18-13c-.86,3.21-1.66,4.17-3.39,4.17-1.23,0-2-1.1-2.32-2.93a24.45,24.45,0,0,1-3.2,2.62A10.52,10.52,0,0,0,16-11.22a20.25,20.25,0,0,0,4.23-3.51,57.12,57.12,0,0,1,.4-7.1h-3L17.15-19l2.48-.48-.19,2.4-2.69.63L16-12c-.22,1.39-.58,2.14-1.48,2.57a8.34,8.34,0,0,1-3.71.53,9.26,9.26,0,0,0-.42-2.69c1.1.05,2.18.05,2.54.05s.45-.12.51-.48l.62-3.94-2.51.53L11.5-18c.83-.12,1.89-.31,3-.5L15-21.83H12.22l.4-2.57h2.81l.43-2.71c-.72.19-1.42.36-2.12.51a7.37,7.37,0,0,0-.45-2,36,36,0,0,0,6.65-2.3L21.52-29l.32-2h2.54c-.4,2.25-.74,4.51-1,6.64h4.34l-.4,2.57H23.07c-.14,1.34-.25,2.62-.31,3.77a22.53,22.53,0,0,0,1.68-3.05ZM20.88-24.4c.19-1.48.4-3,.62-4.48-.9.36-1.89.72-2.95,1L18-24.4Zm4.89-1a18.4,18.4,0,0,0-1.18-4.2l2.27-.84a18.69,18.69,0,0,1,1.32,4.08Z" transform="translate(320 84)"/><path class="cls-2" d="M30.27-13.1a2.9,2.9,0,0,1,2.88-2.37,2,2,0,0,1,2.12,2.37,2.85,2.85,0,0,1-2.87,2.36A2,2,0,0,1,30.27-13.1Zm2.35-12.23.47-3.58h4.39l-.68,3.58-2.14,8.2H32.19Z" transform="translate(320 84)"/></g></g></g></svg>