<svg xmlns="http://www.w3.org/2000/svg" viewBox="0 0 23.32 23.32"><defs><style>.cls-1{fill:#f0f7f7;}.cls-2{fill:#6ecedb;}.cls-3{fill:none;stroke:#007193;stroke-miterlimit:10;stroke-width:3px;}</style></defs><title>check_icon</title><g id="圖層_2" data-name="圖層 2"><g id="圖層_1-2" data-name="圖層 1"><circle class="cls-1" cx="11.66" cy="11.66" r="11.66"/><path class="cls-2" d="M-308.34-82.37a10,10,0,0,1,10,10,10,10,0,0,1-10,10,10,10,0,0,1-10-10,10,10,0,0,1,10-10m0-1.63A11.66,11.66,0,0,0-320-72.34a11.66,11.66,0,0,0,11.66,11.66,11.66,11.66,0,0,0,11.66-11.66A11.66,11.66,0,0,0-308.34-84Z" transform="translate(320 84)"/><polyline class="cls-3" points="5.69 7.78 11.91 14 21.63 1.94"/></g></g></svg>