<?xml version="1.0" encoding="UTF-8"?>
<svg width="93px" height="93px" viewBox="0 0 93 93" version="1.1" xmlns="http://www.w3.org/2000/svg" xmlns:xlink="http://www.w3.org/1999/xlink">
    <!-- Generator: Sketch 52.3 (67297) - http://www.bohemiancoding.com/sketch -->
    <title>201558</title>
    <desc>Created with Sketch.</desc>
    <g id="Page-1" stroke="none" stroke-width="1" fill="none" fill-rule="evenodd">
        <g id="201558">
            <path d="M46.4998184,93 C72.1114282,93 93,72.1113466 93,46.5 C93,20.8886534 72.1114282,0 46.4998184,0 C20.8885718,0 0,20.8886534 0,46.5 C0,72.1113466 20.8885718,93 46.4998184,93 Z" id="Path-Copy" fill="#009D98"></path>
            <path d="M46.499834,89 C69.9082946,89 89,69.90822 89,46.5 C89,23.09178 69.9082946,4 46.499834,4 C23.0917054,4 4,23.09178 4,46.5 C4,69.90822 23.0917054,89 46.499834,89 Z" id="Path-Copy" stroke="#FFFFFF"></path>
        </g>
        <path d="M44.34375,36.1132812 C44.6562516,36.1132812 44.9264312,36.2272124 45.1542969,36.4550781 C45.3821626,36.6829438 45.4960938,36.9531234 45.4960938,37.265625 L45.4960938,37.3046875 C45.4960938,37.6171891 45.3821626,37.8873687 45.1542969,38.1152344 C44.9264312,38.3431001 44.6562516,38.4570312 44.34375,38.4570312 L29.7734375,38.4570312 C29.4609359,38.4570312 29.1907563,38.3431001 28.9628906,38.1152344 C28.7350249,37.8873687 28.6210938,37.6171891 28.6210938,37.3046875 L28.6210938,37.265625 C28.6210938,36.9531234 28.7350249,36.6829438 28.9628906,36.4550781 C29.1907563,36.2272124 29.4609359,36.1132812 29.7734375,36.1132812 L35.5546875,36.1132812 C35.6588547,36.1132812 35.7109375,36.0677088 35.7109375,35.9765625 L35.7109375,33.7890625 C35.7109375,33.4765609 35.8248687,33.2063813 36.0527344,32.9785156 C36.2806001,32.7506499 36.5507797,32.6367188 36.8632812,32.6367188 L37.0390625,32.6367188 C37.3515641,32.6367188 37.6217437,32.7506499 37.8496094,32.9785156 C38.0774751,33.2063813 38.1914062,33.4765609 38.1914062,33.7890625 L38.1914062,35.9765625 C38.1914062,36.0677088 38.2369787,36.1132812 38.328125,36.1132812 L44.34375,36.1132812 Z M35.203125,45.703125 L35.203125,45.9179688 C35.203125,46.1653658 35.1315111,46.3997385 34.9882812,46.6210938 C34.8059887,46.8945326 34.552085,47.0703121 34.2265625,47.1484375 L34.0117188,47.2265625 C33.9205725,47.2395834 33.8294275,47.2460938 33.7382812,47.2460938 C33.5559887,47.2460938 33.3802092,47.1875006 33.2109375,47.0703125 C32.9635404,46.9010408 32.8203127,46.6666682 32.78125,46.3671875 C32.6770828,45.5989545 32.5208344,44.7395881 32.3125,43.7890625 C32.0781238,42.7604115 31.8242201,41.7903691 31.5507812,40.8789062 C31.5117186,40.7617182 31.4921875,40.6510422 31.4921875,40.546875 C31.4921875,40.3645824 31.53776,40.1888029 31.6289062,40.0195312 C31.7721361,39.7460924 31.9934881,39.5703129 32.2929688,39.4921875 L32.3515625,39.4921875 C32.4557297,39.4531248 32.5664057,39.4335938 32.6835938,39.4335938 C32.8789072,39.4335938 33.0742178,39.4856766 33.2695312,39.5898438 C33.555991,39.7460945 33.7513016,39.9804672 33.8554688,40.2929688 C34.1679703,41.1914107 34.4414051,42.1419221 34.6757812,43.1445312 C34.8971365,44.069015 35.072916,44.9218711 35.203125,45.703125 Z M40.515625,47.9882812 C40.5026041,48.0273439 40.5058593,48.0598957 40.5253906,48.0859375 C40.544922,48.1119793 40.5677082,48.125 40.59375,48.125 L44.9296875,48.125 C45.2421891,48.125 45.5123687,48.2389312 45.7402344,48.4667969 C45.9681001,48.6946626 46.0820312,48.9648422 46.0820312,49.2773438 L46.0820312,49.3554688 C46.0820312,49.6679703 45.9681001,49.9381499 45.7402344,50.1660156 C45.5123687,50.3938813 45.2421891,50.5078125 44.9296875,50.5078125 L29.1289062,50.5078125 C28.8164047,50.5078125 28.5462251,50.3938813 28.3183594,50.1660156 C28.0904937,49.9381499 27.9765625,49.6679703 27.9765625,49.3554688 L27.9765625,49.2773438 C27.9765625,48.9648422 28.0904937,48.6946626 28.3183594,48.4667969 C28.5462251,48.2389312 28.8164047,48.125 29.1289062,48.125 L37.78125,48.125 C37.8854172,48.125 37.9570311,48.0794275 37.9960938,47.9882812 C38.8815148,45.5533732 39.5651018,42.9687637 40.046875,40.234375 C40.0989586,39.9218734 40.2486967,39.6744801 40.4960938,39.4921875 C40.7044281,39.3619785 40.9192697,39.296875 41.140625,39.296875 C41.2057295,39.296875 41.2773434,39.3033854 41.3554688,39.3164062 L41.8242188,39.3945312 C42.1367203,39.4596357 42.3776033,39.6223945 42.546875,39.8828125 C42.6640631,40.0651051 42.7226562,40.2539053 42.7226562,40.4492188 C42.7226562,40.540365 42.7096355,40.63151 42.6835938,40.7226562 C42.006507,43.444024 41.283858,45.8658748 40.515625,47.9882812 Z M54.5585938,36.3867188 C54.5585938,36.2825516 54.5130213,36.2304688 54.421875,36.2304688 L51.4335938,36.2304688 C51.3294266,36.2304688 51.2773438,36.2825516 51.2773438,36.3867188 L51.2773438,37.7539062 C51.2773438,37.8450525 51.3294266,37.890625 51.4335938,37.890625 L54.421875,37.890625 C54.5130213,37.890625 54.5585938,37.8450525 54.5585938,37.7539062 L54.5585938,36.3867188 Z M51.2773438,41.4648438 C51.2773438,41.5690109 51.3294266,41.6210938 51.4335938,41.6210938 L54.421875,41.6210938 C54.5130213,41.6210938 54.5585938,41.5690109 54.5585938,41.4648438 L54.5585938,40.1171875 C54.5585938,40.0260412 54.5130213,39.9804688 54.421875,39.9804688 L51.4335938,39.9804688 C51.3294266,39.9804688 51.2773438,40.0260412 51.2773438,40.1171875 L51.2773438,41.4648438 Z M53.1328125,46.0351562 C53.0416662,45.8789055 52.9960938,45.7161467 52.9960938,45.546875 C52.9960938,45.4557287 53.0091145,45.3645838 53.0351562,45.2734375 C53.1002607,44.9999986 53.2630195,44.8046881 53.5234375,44.6875 C53.6927092,44.6093746 53.8684887,44.5703125 54.0507812,44.5703125 C54.1679693,44.5703125 54.2786453,44.5833332 54.3828125,44.609375 C54.6822932,44.6875004 54.9166658,44.8502592 55.0859375,45.0976562 C55.9453168,46.3606834 56.6223934,47.5455674 57.1171875,48.6523438 C57.182292,48.8085945 57.2148438,48.964843 57.2148438,49.1210938 C57.2148438,49.2643236 57.1888023,49.4075514 57.1367188,49.5507812 C57.0195307,49.8632828 56.8111994,50.0911451 56.5117188,50.234375 L56.4726562,50.2539062 C56.3294264,50.3320316 56.1796883,50.3710938 56.0234375,50.3710938 C55.9062494,50.3710938 55.7825527,50.3450523 55.6523438,50.2929688 C55.3789049,50.1757807 55.1835943,49.9739598 55.0664062,49.6875 C54.9882809,49.5182283 54.9101566,49.3424488 54.8320312,49.1601562 C54.7799477,49.06901 54.7083338,49.0364582 54.6171875,49.0625 C53.3281186,49.4270852 51.6093857,49.9023408 49.4609375,50.4882812 C49.3437494,50.5273439 49.2330734,50.546875 49.1289062,50.546875 C48.9335928,50.546875 48.7513029,50.4947922 48.5820312,50.390625 C48.2955715,50.2343742 48.1132816,50.0000016 48.0351562,49.6875 L47.9765625,49.4726562 C47.9374998,49.3684891 47.9179688,49.2708338 47.9179688,49.1796875 C47.9179688,48.984374 47.9765619,48.7955738 48.09375,48.6132812 C48.2500008,48.3528633 48.4778631,48.1835941 48.7773438,48.1054688 C48.8033855,48.1054688 48.829427,48.0989584 48.8554688,48.0859375 C48.946615,48.0729166 48.9921875,48.0143234 48.9921875,47.9101562 L48.9921875,35.1953125 C48.9921875,34.86979 49.1061187,34.5963553 49.3339844,34.375 C49.5618501,34.1536447 49.8320297,34.0429688 50.1445312,34.0429688 L55.6132812,34.0429688 C55.9257828,34.0429688 56.1959624,34.1536447 56.4238281,34.375 C56.6516938,34.5963553 56.765625,34.86979 56.765625,35.1953125 L56.765625,42.6757812 C56.765625,42.9882828 56.6516938,43.2584624 56.4238281,43.4863281 C56.1959624,43.7141938 55.9257828,43.828125 55.6132812,43.828125 L51.4335938,43.828125 C51.3294266,43.828125 51.2773438,43.8736975 51.2773438,43.9648438 L51.2773438,47.4023438 C51.2773438,47.4283855 51.2936196,47.454427 51.3261719,47.4804688 C51.3587241,47.5065105 51.3880207,47.5130209 51.4140625,47.5 L53.5429688,46.9726562 C53.634115,46.9466145 53.6536461,46.8945316 53.6015625,46.8164062 C53.4453117,46.5429674 53.2890633,46.2825533 53.1328125,46.0351562 Z M64.4414062,34.0039062 C64.7669287,34.0039062 65.0403635,34.1145822 65.2617188,34.3359375 C65.483074,34.5572928 65.59375,34.8307275 65.59375,35.15625 L65.59375,46.0742188 C65.59375,46.686201 65.5286465,47.1777325 65.3984375,47.5488281 C65.2682285,47.9199237 65.0338559,48.2096344 64.6953125,48.4179688 C64.2656229,48.6783867 63.6666705,48.8346352 62.8984375,48.8867188 L62.8007812,48.8867188 C62.5143215,48.8867188 62.2539074,48.7955738 62.0195312,48.6132812 C61.7721342,48.391926 61.5963547,48.1184912 61.4921875,47.7929688 C61.4531248,47.6627598 61.4075523,47.5260424 61.3554688,47.3828125 C61.329427,47.2916662 61.3164062,47.2005213 61.3164062,47.109375 C61.3164062,46.9661451 61.3619787,46.8229174 61.453125,46.6796875 C61.6093758,46.4713531 61.8111967,46.3671875 62.0585938,46.3671875 L62.8007812,46.3671875 C62.9309902,46.3671875 63.01888,46.3378909 63.0644531,46.2792969 C63.1100263,46.2207028 63.1328125,46.1263027 63.1328125,45.9960938 L63.1328125,36.5429688 C63.1328125,36.4518225 63.08724,36.40625 62.9960938,36.40625 L60.4375,36.40625 C60.3463537,36.40625 60.3007812,36.4518225 60.3007812,36.5429688 L60.3007812,50.5664062 C60.3007812,50.8919287 60.1868501,51.1653635 59.9589844,51.3867188 C59.7311187,51.608074 59.4609391,51.71875 59.1484375,51.71875 L59.03125,51.71875 C58.7187484,51.71875 58.4485688,51.608074 58.2207031,51.3867188 C57.9928374,51.1653635 57.8789062,50.8919287 57.8789062,50.5664062 L57.8789062,35.15625 C57.8789062,34.8307275 57.9928374,34.5572928 58.2207031,34.3359375 C58.4485688,34.1145822 58.7187484,34.0039062 59.03125,34.0039062 L64.4414062,34.0039062 Z M33.4257812,57.671875 C33.6731783,57.671875 33.8847647,57.7597647 34.0605469,57.9355469 C34.236329,58.111329 34.3242188,58.3261706 34.3242188,58.5800781 C34.3242188,58.8339856 34.236329,59.0488272 34.0605469,59.2246094 C33.8847647,59.4003915 33.6731783,59.4882812 33.4257812,59.4882812 L29.5195312,59.4882812 C29.2721342,59.4882812 29.0605478,59.4003915 28.8847656,59.2246094 C28.7089835,59.0488272 28.6210938,58.8339856 28.6210938,58.5800781 C28.6210938,58.3261706 28.7089835,58.111329 28.8847656,57.9355469 C29.0605478,57.7597647 29.2721342,57.671875 29.5195312,57.671875 L33.4257812,57.671875 Z M33.953125,60.3671875 C34.213543,60.3671875 34.4348949,60.4583324 34.6171875,60.640625 C34.7994801,60.8229176 34.890625,61.0442695 34.890625,61.3046875 C34.890625,61.5651055 34.7994801,61.7864574 34.6171875,61.96875 C34.4348949,62.1510426 34.213543,62.2421875 33.953125,62.2421875 L28.6015625,62.2421875 C28.3411445,62.2421875 28.1197926,62.1510426 27.9375,61.96875 C27.7552074,61.7864574 27.6640625,61.5651055 27.6640625,61.3046875 C27.6640625,61.0442695 27.7552074,60.8229176 27.9375,60.640625 C28.1197926,60.4583324 28.3411445,60.3671875 28.6015625,60.3671875 L33.953125,60.3671875 Z M32.4296875,70.6601562 C32.4296875,70.56901 32.3776047,70.5234375 32.2734375,70.5234375 L30.6132812,70.5234375 C30.5091141,70.5234375 30.4570312,70.56901 30.4570312,70.6601562 L30.4570312,72.671875 C30.4570312,72.7760422 30.5091141,72.828125 30.6132812,72.828125 L32.2734375,72.828125 C32.3776047,72.828125 32.4296875,72.7760422 32.4296875,72.671875 L32.4296875,70.6601562 Z M33.25,68.6484375 C33.5625016,68.6484375 33.8326812,68.7591135 34.0605469,68.9804688 C34.2884126,69.201824 34.4023438,69.4752588 34.4023438,69.8007812 L34.4023438,73.53125 C34.4023438,73.8437516 34.2884126,74.1139312 34.0605469,74.3417969 C33.8326812,74.5696626 33.5625016,74.6835938 33.25,74.6835938 L30.5546875,74.6835938 C30.489583,74.6835938 30.4570312,74.7096352 30.4570312,74.7617188 C30.4570312,74.9570322 30.3886726,75.1230462 30.2519531,75.2597656 C30.1152337,75.3964851 29.9557301,75.4648438 29.7734375,75.4648438 L29.4804688,75.4648438 C29.2070299,75.4648438 28.9759124,75.3671885 28.7871094,75.171875 C28.5983063,74.9765615 28.5039062,74.7486992 28.5039062,74.4882812 L28.5039062,69.8007812 C28.5039062,69.4752588 28.6145822,69.201824 28.8359375,68.9804688 C29.0572928,68.7591135 29.3307275,68.6484375 29.65625,68.6484375 L33.25,68.6484375 Z M29.4414062,67.6523438 C29.2070301,67.6523438 29.001954,67.5677092 28.8261719,67.3984375 C28.6503897,67.2291658 28.5625,67.0208346 28.5625,66.7734375 C28.5625,66.5260404 28.6503897,66.314454 28.8261719,66.1386719 C29.001954,65.9628897 29.2070301,65.875 29.4414062,65.875 L33.5429688,65.875 C33.7903658,65.875 34.0019522,65.9628897 34.1777344,66.1386719 C34.3535165,66.314454 34.4414062,66.5260404 34.4414062,66.7734375 C34.4414062,67.0208346 34.3535165,67.2291658 34.1777344,67.3984375 C34.0019522,67.5677092 33.7903658,67.6523438 33.5429688,67.6523438 L29.4414062,67.6523438 Z M29.4609375,64.9570312 C29.2135404,64.9570312 29.001954,64.8691415 28.8261719,64.6933594 C28.6503897,64.5175772 28.5625,64.3027356 28.5625,64.0488281 C28.5625,63.7949206 28.6503897,63.580079 28.8261719,63.4042969 C29.001954,63.2285147 29.2135404,63.140625 29.4609375,63.140625 L33.5234375,63.140625 C33.7838555,63.140625 34.0019522,63.2285147 34.1777344,63.4042969 C34.3535165,63.580079 34.4414062,63.7949206 34.4414062,64.0488281 C34.4414062,64.3027356 34.3535165,64.5175772 34.1777344,64.6933594 C34.0019522,64.8691415 33.7838555,64.9570312 33.5234375,64.9570312 L29.4609375,64.9570312 Z M39.0507812,71.578125 C39.0507812,71.6692713 39.1028641,71.7083334 39.2070312,71.6953125 L40.1054688,71.5390625 C40.1705732,71.5260416 40.2291664,71.5195312 40.28125,71.5195312 C40.4765635,71.5195312 40.652343,71.5781244 40.8085938,71.6953125 C41.0169281,71.8645842 41.1341145,72.0794258 41.1601562,72.3398438 C41.1731771,72.5221363 41.1438806,72.6979158 41.0722656,72.8671875 C41.0006507,73.0364592 40.8964851,73.1796869 40.7597656,73.296875 C40.6230462,73.4140631 40.4635426,73.4921873 40.28125,73.53125 C39.1614527,73.7786471 37.8593824,74.0585922 36.375,74.3710938 C36.2838537,74.3841146 36.1992191,74.390625 36.1210938,74.390625 C35.9127594,74.390625 35.7174488,74.3320318 35.5351562,74.2148438 C35.2747383,74.0455721 35.1119795,73.8111994 35.046875,73.5117188 C35.0208332,73.4335934 35.0078125,73.3554691 35.0078125,73.2773438 C35.0078125,73.0690094 35.072916,72.8736988 35.203125,72.6914062 C35.3723967,72.4440092 35.6067693,72.3007814 35.90625,72.2617188 C35.9583336,72.2486979 36.0787751,72.2259116 36.2675781,72.1933594 C36.4563812,72.1608071 36.6093744,72.1380209 36.7265625,72.125 C36.8177088,72.1119791 36.8632812,72.0533859 36.8632812,71.9492188 L36.8632812,67.3398438 C36.8632812,67.2486975 36.8111984,67.203125 36.7070312,67.203125 L36.1992188,67.203125 C35.912759,67.203125 35.671876,67.1022146 35.4765625,66.9003906 C35.281249,66.6985667 35.1835938,66.4576837 35.1835938,66.1777344 C35.1835938,65.8977851 35.281249,65.6569021 35.4765625,65.4550781 C35.671876,65.2532542 35.912759,65.1523438 36.1992188,65.1523438 L39.5976562,65.1523438 C39.884116,65.1523438 40.124999,65.2532542 40.3203125,65.4550781 C40.515626,65.6569021 40.6132812,65.8977851 40.6132812,66.1777344 C40.6132812,66.4576837 40.515626,66.6985667 40.3203125,66.9003906 C40.124999,67.1022146 39.884116,67.203125 39.5976562,67.203125 L39.2070312,67.203125 C39.1028641,67.203125 39.0507812,67.2486975 39.0507812,67.3398438 L39.0507812,71.578125 Z M45.8085938,61.1679688 C46.0169281,61.3763031 46.1210938,61.6269517 46.1210938,61.9199219 C46.1210938,62.2128921 46.0169281,62.4667958 45.8085938,62.6816406 C45.6002594,62.8964854 45.3463557,63.0039062 45.046875,63.0039062 L43.328125,63.0039062 C43.2239578,63.0039062 43.1783854,63.0494787 43.1914062,63.140625 C43.2304689,65.0546971 43.3085932,66.7213471 43.4257812,68.140625 C43.5429693,69.5599029 43.6959626,70.6861938 43.8847656,71.5195312 C44.0735687,72.3528687 44.2916654,72.782552 44.5390625,72.8085938 C44.7213551,72.8085938 44.8580725,72.3658898 44.9492188,71.4804688 C44.9752605,71.2721344 45.0859365,71.1321618 45.28125,71.0605469 C45.4765635,70.9889319 45.652343,71.0182285 45.8085938,71.1484375 C46.0820326,71.3697928 46.2838535,71.6367172 46.4140625,71.9492188 C46.4921879,72.1445322 46.53125,72.3398428 46.53125,72.5351562 C46.53125,72.6523443 46.5182293,72.7630203 46.4921875,72.8671875 C46.2447904,73.9349012 45.9388039,74.6835916 45.5742188,75.1132812 C45.2096336,75.52995 44.8385436,75.7382812 44.4609375,75.7382812 L44.4414062,75.7382812 C43.959633,75.7252604 43.533205,75.5266946 43.1621094,75.1425781 C42.7910138,74.7584616 42.4785169,74.2311231 42.2246094,73.5605469 C41.9707019,72.8899706 41.7591154,72.0208387 41.5898438,70.953125 C41.4205721,69.8854113 41.290365,68.7298239 41.1992188,67.4863281 C41.1080725,66.2428323 41.0364586,64.7942791 40.984375,63.140625 C40.984375,63.0494787 40.9322922,63.0039062 40.828125,63.0039062 L36.2773438,63.0039062 C35.9778631,63.0039062 35.7239594,62.8964854 35.515625,62.6816406 C35.3072906,62.4667958 35.203125,62.2128921 35.203125,61.9199219 C35.203125,61.6269517 35.3072906,61.3730479 35.515625,61.1582031 C35.7239594,60.9433583 35.9778631,60.8359375 36.2773438,60.8359375 L40.7695312,60.8359375 C40.8736984,60.8359375 40.9257812,60.790365 40.9257812,60.6992188 C40.8997395,59.3710871 40.8867188,58.5442725 40.8867188,58.21875 C40.8867188,57.9062484 40.9973947,57.639324 41.21875,57.4179688 C41.4401053,57.1966135 41.7070297,57.0859375 42.0195312,57.0859375 L42.2734375,57.0859375 C42.5208346,57.0859375 42.7291658,57.1705721 42.8984375,57.3398438 C43.0677092,57.5091154 43.1523438,57.7174467 43.1523438,57.9648438 C43.1523438,57.9908855 43.1653645,58.0104166 43.1914062,58.0234375 C43.217448,58.0364584 43.2434895,58.0364584 43.2695312,58.0234375 L43.7382812,57.7890625 C43.9466156,57.6718744 44.1614572,57.6132812 44.3828125,57.6132812 C44.4739588,57.6132812 44.5716141,57.626302 44.6757812,57.6523438 C45.0143246,57.7174482 45.281249,57.8867174 45.4765625,58.1601562 C45.6588551,58.3945324 45.8281242,58.6289051 45.984375,58.8632812 C46.0755213,59.0065111 46.1210938,59.1627596 46.1210938,59.3320312 C46.1210938,59.4231775 46.108073,59.5078121 46.0820312,59.5859375 C46.0169268,59.8463555 45.8606783,60.041666 45.6132812,60.171875 C45.4700514,60.2630213 45.3203133,60.3085938 45.1640625,60.3085938 C45.0729162,60.3085938 44.9817713,60.2890627 44.890625,60.25 C44.630207,60.1718746 44.4348965,60.0156262 44.3046875,59.78125 C43.979165,59.2473932 43.6276061,58.7395857 43.25,58.2578125 C43.2369791,58.2317707 43.217448,58.2252604 43.1914062,58.2382812 C43.1653645,58.2513021 43.1523438,58.2643229 43.1523438,58.2773438 L43.1523438,60.6992188 C43.1523438,60.790365 43.2044266,60.8359375 43.3085938,60.8359375 L45.046875,60.8359375 C45.3463557,60.8359375 45.6002594,60.9466135 45.8085938,61.1679688 Z M55.1640625,70.4648438 C55.1640625,70.5690109 55.209635,70.6210938 55.3007812,70.6210938 L59.2070312,70.6210938 C59.3111984,70.6210938 59.3632812,70.5690109 59.3632812,70.4648438 L59.3632812,69.546875 C59.3632812,69.4427078 59.3111984,69.390625 59.2070312,69.390625 L55.3007812,69.390625 C55.209635,69.390625 55.1640625,69.4427078 55.1640625,69.546875 L55.1640625,70.4648438 Z M52.859375,67.2421875 C52.7682287,67.2421875 52.7226562,67.28776 52.7226562,67.3789062 L52.7226562,67.828125 C52.7226562,67.9322922 52.7682287,67.984375 52.859375,67.984375 L61.453125,67.984375 C61.5572922,67.984375 61.609375,67.9322922 61.609375,67.828125 L61.609375,67.3789062 C61.609375,67.28776 61.5572922,67.2421875 61.453125,67.2421875 L52.859375,67.2421875 Z M56.375,60.3085938 C56.3880209,60.2955729 56.3912761,60.279297 56.3847656,60.2597656 C56.3782552,60.2402343 56.3619793,60.2304688 56.3359375,60.2304688 L54.0898438,60.2304688 C54.063802,60.2304688 54.0442709,60.2434895 54.03125,60.2695312 C54.0182291,60.295573 54.0182291,60.3216145 54.03125,60.3476562 C54.1093754,60.4778652 54.1484375,60.6145826 54.1484375,60.7578125 C54.1484375,60.8619797 54.1223961,60.9661453 54.0703125,61.0703125 C53.9791662,61.3177096 53.8033867,61.4869787 53.5429688,61.578125 L53.2890625,61.6757812 C53.2760416,61.6757812 53.2727864,61.6822916 53.2792969,61.6953125 C53.2858073,61.7083334 53.2955729,61.7148438 53.3085938,61.7148438 L57.3515625,61.7148438 C57.3776043,61.7148438 57.390625,61.7050782 57.390625,61.6855469 C57.390625,61.6660155 57.3841146,61.6497396 57.3710938,61.6367188 C57.0976549,61.480468 56.7981787,61.3242195 56.4726562,61.1679688 C56.3164055,61.0768225 56.2285157,60.9433603 56.2089844,60.7675781 C56.189453,60.591796 56.244791,60.4388027 56.375,60.3085938 Z M60.4960938,60.3476562 C60.4309893,60.2695309 60.352865,60.2304688 60.2617188,60.2304688 L59.4804688,60.2304688 C59.3893225,60.2304688 59.3111982,60.2695309 59.2460938,60.3476562 C58.9335922,60.7903668 58.5820332,61.2135396 58.1914062,61.6171875 C58.1653645,61.6302084 58.1588541,61.6497395 58.171875,61.6757812 C58.1848959,61.701823 58.204427,61.7148438 58.2304688,61.7148438 L61.3554688,61.7148438 C61.3815105,61.7148438 61.4042968,61.701823 61.4238281,61.6757812 C61.4433595,61.6497395 61.4401043,61.623698 61.4140625,61.5976562 C61.1276027,61.1419248 60.8216162,60.7252623 60.4960938,60.3476562 Z M52.859375,65.1523438 C52.7682287,65.1523438 52.7226562,65.2044266 52.7226562,65.3085938 L52.7226562,65.7578125 C52.7226562,65.8489588 52.7682287,65.8945312 52.859375,65.8945312 L61.453125,65.8945312 C61.5572922,65.8945312 61.609375,65.8489588 61.609375,65.7578125 L61.609375,65.3085938 C61.609375,65.2044266 61.5572922,65.1523438 61.453125,65.1523438 L52.859375,65.1523438 Z M61.609375,63.2773438 C61.609375,63.1861975 61.5572922,63.140625 61.453125,63.140625 L52.859375,63.140625 C52.7682287,63.140625 52.7226562,63.1861975 52.7226562,63.2773438 L52.7226562,63.6875 C52.7226562,63.7916672 52.7682287,63.84375 52.859375,63.84375 L61.453125,63.84375 C61.5572922,63.84375 61.609375,63.7916672 61.609375,63.6875 L61.609375,63.2773438 Z M65.1054688,70.6210938 C65.3658867,70.6210938 65.5872387,70.7122387 65.7695312,70.8945312 C65.9518238,71.0768238 66.0429688,71.2981758 66.0429688,71.5585938 C66.0429688,71.8190117 65.9518238,72.0403637 65.7695312,72.2226562 C65.5872387,72.4049488 65.3658867,72.4960938 65.1054688,72.4960938 L61.9609375,72.4960938 C61.8697912,72.4960938 61.8242188,72.5481766 61.8242188,72.6523438 L61.8242188,74.546875 C61.8242188,74.8593766 61.7102876,75.1295562 61.4824219,75.3574219 C61.2545562,75.5852876 60.9843766,75.6992188 60.671875,75.6992188 L60.515625,75.6992188 C60.1901025,75.6992188 59.9166678,75.5852876 59.6953125,75.3574219 C59.4739572,75.1295562 59.3632812,74.8593766 59.3632812,74.546875 L59.3632812,72.6523438 C59.3632812,72.5481766 59.3111984,72.4960938 59.2070312,72.4960938 L55.0078125,72.4960938 C54.9166662,72.4960938 54.8450523,72.5416662 54.7929688,72.6328125 C54.2200492,73.8177143 52.9179789,74.7486945 50.8867188,75.4257812 C50.730468,75.4648439 50.5807299,75.484375 50.4375,75.484375 C50.2682283,75.484375 50.0989592,75.4583336 49.9296875,75.40625 C49.604165,75.2890619 49.3242199,75.0937514 49.0898438,74.8203125 L49.0703125,74.8203125 C48.9661453,74.6901035 48.9108073,74.550131 48.9042969,74.4003906 C48.8977864,74.2506503 48.9368485,74.1139329 49.0214844,73.9902344 C49.1061202,73.8665358 49.2265617,73.7851564 49.3828125,73.7460938 C50.5156307,73.4335922 51.3489557,73.0494814 51.8828125,72.59375 C51.9088543,72.5807291 51.9153646,72.561198 51.9023438,72.5351562 C51.8893229,72.5091145 51.8697918,72.4960938 51.84375,72.4960938 L48.9335938,72.4960938 C48.6731758,72.4960938 48.4518238,72.4049488 48.2695312,72.2226562 C48.0872387,72.0403637 47.9960938,71.8190117 47.9960938,71.5585938 C47.9960938,71.2981758 48.0872387,71.0768238 48.2695312,70.8945312 C48.4518238,70.7122387 48.6731758,70.6210938 48.9335938,70.6210938 L52.6054688,70.6210938 C52.7096359,70.6210938 52.7617188,70.5690109 52.7617188,70.4648438 L52.7617188,69.546875 C52.7617188,69.4427078 52.7096359,69.390625 52.6054688,69.390625 L51.4726562,69.390625 C51.1601547,69.390625 50.8899751,69.279949 50.6621094,69.0585938 C50.4342437,68.8372385 50.3203125,68.5638037 50.3203125,68.2382812 L50.3203125,62.8671875 C50.3203125,62.5546859 50.4342437,62.2845063 50.6621094,62.0566406 C50.8899751,61.8287749 51.1601547,61.7148438 51.4726562,61.7148438 L52.1757812,61.7148438 C52.2148439,61.7148438 52.2441405,61.701823 52.2636719,61.6757812 C52.2832032,61.6497395 52.279948,61.6171877 52.2539062,61.578125 C52.0846346,61.1744771 51.869793,60.7708354 51.609375,60.3671875 C51.5572914,60.2760412 51.4791672,60.2304688 51.375,60.2304688 L51.2382812,60.2304688 C51.147135,60.2304688 51.0690107,60.2695309 51.0039062,60.3476562 C50.7304674,60.7252623 50.4505223,61.0703109 50.1640625,61.3828125 C49.9557281,61.6171887 49.6822934,61.7473957 49.34375,61.7734375 L49.265625,61.7734375 C48.9661443,61.7734375 48.6927096,61.6822926 48.4453125,61.5 L48.4257812,61.4804688 C48.1653633,61.3111971 48.0351562,61.0703141 48.0351562,60.7578125 C48.0351562,60.5104154 48.1263012,60.2955738 48.3085938,60.1132812 C48.9596387,59.4622363 49.5260393,58.733077 50.0078125,57.9257812 C50.1770842,57.6393215 50.4114568,57.4244799 50.7109375,57.28125 C50.8932301,57.1901037 51.0820303,57.1445312 51.2773438,57.1445312 C51.3945318,57.1445312 51.5117182,57.1640623 51.6289062,57.203125 L51.921875,57.28125 C52.1302094,57.3333336 52.2799475,57.4602854 52.3710938,57.6621094 C52.46224,57.8639333 52.4557297,58.062499 52.3515625,58.2578125 C52.3124998,58.322917 52.3320309,58.3554688 52.4101562,58.3554688 L55.5742188,58.3554688 C55.8867203,58.3554688 56.1568999,58.4693999 56.3847656,58.6972656 C56.6126313,58.9251313 56.7265625,59.1953109 56.7265625,59.5078125 L56.7265625,59.8007812 C56.7265625,59.826823 56.736328,59.8430989 56.7558594,59.8496094 C56.7753907,59.8561198 56.798177,59.8528646 56.8242188,59.8398438 C57.3320338,59.292966 57.7747377,58.6614619 58.1523438,57.9453125 C58.3085945,57.6458318 58.5364568,57.4244799 58.8359375,57.28125 C59.031251,57.1770828 59.2265615,57.125 59.421875,57.125 C59.5260422,57.125 59.6302078,57.1380207 59.734375,57.1640625 L60.0078125,57.2421875 C60.2421887,57.2942711 60.4114578,57.4244781 60.515625,57.6328125 C60.5677086,57.7369797 60.59375,57.8411453 60.59375,57.9453125 C60.59375,58.0494797 60.5742189,58.1536453 60.5351562,58.2578125 C60.4960936,58.322917 60.5156246,58.3554688 60.59375,58.3554688 L65.046875,58.3554688 C65.307293,58.3554688 65.5286449,58.4466137 65.7109375,58.6289062 C65.8932301,58.8111988 65.984375,59.0325508 65.984375,59.2929688 C65.984375,59.5533867 65.8932301,59.7747387 65.7109375,59.9570312 C65.5286449,60.1393238 65.307293,60.2304688 65.046875,60.2304688 L63.171875,60.2304688 C63.1458332,60.2304688 63.1263021,60.2434895 63.1132812,60.2695312 C63.1002604,60.295573 63.1002604,60.3151041 63.1132812,60.328125 C63.2304693,60.4713549 63.2890625,60.621093 63.2890625,60.7773438 C63.2890625,60.8554691 63.2760418,60.927083 63.25,60.9921875 C63.1848955,61.2395846 63.0351574,61.4153641 62.8007812,61.5195312 L62.46875,61.65625 C62.4557291,61.6692709 62.4524739,61.6822916 62.4589844,61.6953125 C62.4654948,61.7083334 62.4752604,61.7148438 62.4882812,61.7148438 L62.9765625,61.7148438 C63.2890641,61.7148438 63.5592437,61.8287749 63.7871094,62.0566406 C64.0149751,62.2845063 64.1289062,62.5546859 64.1289062,62.8671875 L64.1289062,68.2382812 C64.1289062,68.5638037 64.0149751,68.8372385 63.7871094,69.0585938 C63.5592437,69.279949 63.2890641,69.390625 62.9765625,69.390625 L61.9609375,69.390625 C61.8697912,69.390625 61.8242188,69.4427078 61.8242188,69.546875 L61.8242188,70.4648438 C61.8242188,70.5690109 61.8697912,70.6210938 61.9609375,70.6210938 L65.1054688,70.6210938 Z" id="立即-試算" fill="#FFFFFF"></path>
        <g id="Group-77" transform="translate(25.000000, 18.000000)">
            <path d="M1.64968058,0 L8.35031942,0 C9.25776259,0 10,0.74168722 10,1.64918432 L10,8.35022138 C10,9.25771848 9.25835686,10 8.35031942,10 L1.64968058,10 C0.742237409,10 0,9.25771848 0,8.35022138 L0,1.64918432 C0,0.741390069 0.742237409,0 1.64968058,0 Z" id="Path" fill="#FFFFFF"></path>
            <path d="M12.6496806,0 L19.3503194,0 C20.2577626,0 21,0.74168722 21,1.64918432 L21,8.35022138 C21,9.25771848 20.2583569,10 19.3503194,10 L12.6496806,10 C11.7422374,10 11,9.25771848 11,8.35022138 L11,1.64918432 C11,0.741390069 11.7422374,0 12.6496806,0 Z" id="Path-Copy-2" fill="#FFFFFF"></path>
            <path d="M24.6496806,0 L31.3503194,0 C32.2577626,0 33,0.74168722 33,1.64918432 L33,8.35022138 C33,9.25771848 32.2583569,10 31.3503194,10 L24.6496806,10 C23.7422374,10 23,9.25771848 23,8.35022138 L23,1.64918432 C23,0.741390069 23.7422374,0 24.6496806,0 Z" id="Path-Copy-3" fill="#FFFFFF"></path>
            <path d="M36.6496806,0 L43.3503194,0 C44.2577626,0 45,0.74168722 45,1.64918432 L45,8.35022138 C45,9.25771848 44.2583569,10 43.3503194,10 L36.6496806,10 C35.7422374,10 35,9.25771848 35,8.35022138 L35,1.64918432 C35,0.741390069 35.7422374,0 36.6496806,0 Z" id="Path-Copy-4" fill="#FFFFFF"></path>
            <path d="M5.45142857,7.82287823 C5.3295232,7.94096 5.17904851,8 5,8 C4.82095149,8 4.6704768,7.94096 4.54857143,7.82287823 C4.42666606,7.70479646 4.36571429,7.56088646 4.36571429,7.39114391 L4.36571429,5.67527675 C4.36571429,5.61623587 4.3352384,5.58671587 4.27428571,5.58671587 L2.60571429,5.58671587 C2.4380944,5.58671587 2.29523869,5.52952087 2.17714286,5.41512915 C2.05904703,5.30073744 2,5.16236244 2,5 C2,4.83763756 2.05904703,4.69926256 2.17714286,4.58487085 C2.29523869,4.47047913 2.4380944,4.41328413 2.60571429,4.41328413 L4.27428571,4.41328413 C4.3352384,4.41328413 4.36571429,4.38376413 4.36571429,4.32472325 L4.36571429,2.60885609 C4.36571429,2.43911354 4.42666606,2.29520354 4.54857143,2.17712177 C4.6704768,2.05904 4.82095149,2 5,2 C5.17904851,2 5.3295232,2.05904 5.45142857,2.17712177 C5.57333394,2.29520354 5.63428571,2.43911354 5.63428571,2.60885609 L5.63428571,4.32472325 C5.63428571,4.38376413 5.6647616,4.41328413 5.72571429,4.41328413 L7.39428571,4.41328413 C7.5619056,4.41328413 7.70476131,4.47047913 7.82285714,4.58487085 C7.94095297,4.69926256 8,4.83763756 8,5 C8,5.16236244 7.94095297,5.30073744 7.82285714,5.41512915 C7.70476131,5.52952087 7.5619056,5.58671587 7.39428571,5.58671587 L5.72571429,5.58671587 C5.6647616,5.58671587 5.63428571,5.61623587 5.63428571,5.67527675 L5.63428571,7.39114391 C5.63428571,7.56088646 5.57333394,7.70479646 5.45142857,7.82287823 Z" id="+" fill="#009D98"></path>
            <path d="M13.8277853,5.96872125 C13.6029536,5.96872125 13.4087837,5.87365934 13.2452697,5.68353266 C13.0817558,5.49340598 13,5.26035097 13,4.98436063 C13,4.70837029 13.0817558,4.47531527 13.2452697,4.28518859 C13.4087837,4.09506191 13.6029536,4 13.8277853,4 L18.1722147,4.03127875 C18.3970464,4.03127875 18.5912163,4.12634066 18.7547303,4.31646734 C18.9182442,4.50659402 19,4.73964903 19,5.01563937 C19,5.29162971 18.9182442,5.52468473 18.7547303,5.71481141 C18.5912163,5.90493809 18.3970464,6 18.1722147,6 L13.8277853,5.96872125 Z" id="-" fill="#009D98"></path>
            <path d="M25.4032587,7 C25.2484717,7 25.1303466,6.95055314 25.0488798,6.85165794 C25.0162931,6.80511902 25,6.7585808 25,6.71204188 C25,6.6596856 25.0203664,6.6073301 25.0610998,6.55497382 L26.8329939,4.44328098 C26.8655806,4.40837679 26.8655806,4.37347312 26.8329939,4.33856894 L25.1955193,2.43630017 C25.1547859,2.38394389 25.1344196,2.33449703 25.1344196,2.28795812 C25.1344196,2.2414192 25.1547859,2.19197234 25.1955193,2.13961606 C25.2688395,2.04653822 25.3869646,2 25.5498982,2 L26.0753564,2 C26.3034635,2 26.5132373,2.03926662 26.7046843,2.11780105 C26.8961313,2.19633547 27.044806,2.30540942 27.1507128,2.44502618 L27.5050916,2.89005236 C27.7087587,3.16928586 27.9124226,3.44269791 28.1160896,3.71029668 C28.1242363,3.72193141 28.1364561,3.72774869 28.1527495,3.72774869 C28.1690429,3.72774869 28.1812627,3.72193141 28.1894094,3.71029668 C28.2382895,3.62303621 28.319755,3.48778451 28.4338086,3.30453752 C28.5478621,3.12129053 28.6334009,2.98313019 28.6904277,2.89005236 L28.9714868,2.46247818 C29.0692469,2.32286143 29.2097751,2.21087884 29.3930754,2.12652705 C29.5763757,2.04217526 29.778003,2 29.9979633,2 L30.4623218,2 C30.6252554,2 30.7433805,2.04944686 30.8167006,2.14834206 C30.857434,2.19488098 30.8778004,2.24287352 30.8778004,2.29232112 C30.8778004,2.34176872 30.857434,2.3926699 30.8167006,2.44502618 L29.1792261,4.48691099 C29.1466393,4.52181518 29.1466393,4.55962749 29.1792261,4.60034904 L30.9266802,6.56369983 C30.9755603,6.61605611 31,6.66550297 31,6.71204188 C31,6.7585808 30.9796336,6.80511902 30.9389002,6.85165794 C30.8655801,6.95055314 30.7515283,7 30.5967413,7 L30.0590631,7 C29.8391028,7 29.6313655,6.96073338 29.4358452,6.88219895 C29.2403249,6.80366453 29.0855403,6.69749921 28.9714868,6.56369983 L28.5682281,6.09249564 C28.5600814,6.07504354 28.4704693,5.95433503 28.299389,5.73036649 C28.1283087,5.50639795 27.9979638,5.33624258 27.9083503,5.21989529 C27.9002036,5.20826056 27.8839105,5.20244328 27.8594705,5.20244328 C27.8350304,5.20244328 27.8187373,5.20826056 27.8105906,5.21989529 C27.7617105,5.30133839 27.5702664,5.59220227 27.2362525,6.09249564 L26.9185336,6.53752182 C26.8207734,6.68295593 26.676172,6.79639284 26.4847251,6.87783595 C26.2932781,6.95927906 26.0875775,7 25.8676171,7 L25.4032587,7 Z" id="x" fill="#009D98"></path>
            <path d="M39,3.64121037 C39,3.46829885 39.0714279,3.31820429 39.2142857,3.19092219 C39.3571436,3.06364009 39.5302188,3 39.7335165,3 C39.9368142,3 40.1098894,3.06364009 40.2527473,3.19092219 C40.3956051,3.31820429 40.467033,3.46829885 40.467033,3.64121037 C40.467033,3.818925 40.3956051,3.97022032 40.2527473,4.09510086 C40.1098894,4.21998141 39.9368142,4.28242075 39.7335165,4.28242075 C39.5302188,4.28242075 39.3571436,4.21998141 39.2142857,4.09510086 C39.0714279,3.97022032 39,3.818925 39,3.64121037 Z M37.1236264,5.79353643 C37.0412084,5.72148997 37,5.63263399 37,5.52696583 C37,5.42129767 37.042582,5.33244169 37.1277473,5.26039522 C37.2129125,5.18834875 37.3159335,5.15232606 37.4368132,5.15232606 L42.5631868,5.15232606 C42.6840665,5.15232606 42.7870875,5.18834875 42.8722527,5.26039522 C42.957418,5.33244169 43,5.42129767 43,5.52696583 C43,5.63263399 42.957418,5.72148997 42.8722527,5.79353643 C42.7870875,5.8655829 42.6840665,5.9016056 42.5631868,5.9016056 L37.4368132,5.9016056 C37.3159335,5.9016056 37.2115389,5.8655829 37.1236264,5.79353643 Z M39,7.64121037 C39,7.46349575 39.0714279,7.31220043 39.2142857,7.18731988 C39.3571436,7.06243934 39.5302188,7 39.7335165,7 C39.9368142,7 40.1098894,7.06243934 40.2527473,7.18731988 C40.3956051,7.31220043 40.467033,7.46349575 40.467033,7.64121037 C40.467033,7.8141219 40.3956051,7.96421646 40.2527473,8.09149856 C40.1098894,8.21878066 39.9368142,8.28242075 39.7335165,8.28242075 C39.5302188,8.28242075 39.3571436,8.21878066 39.2142857,8.09149856 C39.0714279,7.96421646 39,7.8141219 39,7.64121037 Z" id="÷" fill="#009D98"></path>
        </g>
    </g>
</svg>