<svg xmlns="http://www.w3.org/2000/svg" xmlns:xlink="http://www.w3.org/1999/xlink" viewBox="0 0 157.72 237.96"><defs><style>.cls-1{fill:#4ebca6;}.cls-2{fill:#80cebb;}.cls-3{fill:#2c7a93;}.cls-4{fill:#007193;}.cls-5{fill:url(#linear-gradient);}.cls-6{fill:url(#linear-gradient-2);}.cls-7{fill:#fff;}.cls-8{fill:#f6ae90;}.cls-9{fill:#e0e0e0;}.cls-10{fill:#c6bdb9;}.cls-11{fill:#1a8da8;}.cls-12{fill:#e59383;}.cls-13{fill:#323a36;}.cls-14{fill:url(#linear-gradient-3);}.cls-15{fill:url(#linear-gradient-4);}.cls-16{fill:#33213d;}.cls-17{fill:#ffc35a;}.cls-18{fill:url(#linear-gradient-5);}</style><linearGradient id="linear-gradient" x1="-956.05" y1="-281.73" x2="-939.56" y2="-353.15" gradientTransform="matrix(-0.87, -0.5, -0.5, 0.87, -902.02, -30.79)" gradientUnits="userSpaceOnUse"><stop offset="0" stop-color="#80dcca"/><stop offset="1" stop-color="#2cc4a7"/></linearGradient><linearGradient id="linear-gradient-2" x1="-966.63" y1="-284.14" x2="-950.17" y2="-355.48" xlink:href="#linear-gradient"/><linearGradient id="linear-gradient-3" x1="1064.33" y1="75.43" x2="1064.33" y2="99.95" gradientTransform="translate(-1008.01)" gradientUnits="userSpaceOnUse"><stop offset="0" stop-color="#f99082"/><stop offset="1" stop-color="#e86160"/></linearGradient><linearGradient id="linear-gradient-4" x1="1064.8" y1="75.43" x2="1064.8" y2="99.95" gradientTransform="translate(-1008.01)" xlink:href="#linear-gradient"/><linearGradient id="linear-gradient-5" x1="20.41" y1="5.96" x2="20.41" y2="39.8" gradientTransform="matrix(-1, 0, 0, 1, 135.72, 0)" gradientUnits="userSpaceOnUse"><stop offset="0" stop-color="#ff9f5a"/><stop offset="0.43" stop-color="#ffac5a"/><stop offset="1" stop-color="#ffc35a"/></linearGradient></defs><title>idea</title><g id="圖層_2" data-name="圖層 2"><g id="圖層_1-2" data-name="圖層 1"><path class="cls-1" d="M90.25,234.75a13.38,13.38,0,0,1-8.43,1.81c-3.31-.34-6.37-1.64-9.59-2.33A17.44,17.44,0,0,0,70,233.9l-2.68-1.11a31.72,31.72,0,0,0-6.27-17.27c-1.58-2.18-3.32-4.25-5.07-6.31-.84-1-1.69-2-2.53-3l-.73-.87c.18-.37.37-.74.57-1.1s.54-1,.84-1.45c.07-.11.29-.4.41-.55.28-.33.58-.64.87-1l0-.06.41-.25L56,201c.33,0,.55-.07.08,0L56,201h0l.06,0a7.19,7.19,0,0,0,4.69-3l.2,0a35.72,35.72,0,0,0,4.19.95A3.38,3.38,0,0,0,67,198.7s.17-.39.15-.27a4.24,4.24,0,0,0-.32-1.72c-1-3.07-1.76-5.83-.38-8.93a9,9,0,0,1,7.33-5.23c2.89-.3,5.61.81,8.37,1.43,2.31.51,4,.2,5.6-1.54,1.75-1.92,2.83-4.36,4.29-6.5,3.45-5,8.44-9.77,14.31-11.75a10.37,10.37,0,0,1,9.78,1.26c2.1,1.58,3.32,4.3,5.63,5.58,1,.57,1.71.24,2.69-.34a47.12,47.12,0,0,1,4.59-2.47,16.16,16.16,0,0,1,9.69-1.47c6.07,1.17,10.28,7,8.15,13.07a15.43,15.43,0,0,1-6,7.43c-2.47,1.73-5.25,2.92-7.78,4.55-2.05,1.32-4.23,3.09-4.83,5.57-.76,3.17-.21,6.4-1.42,9.52-2.38,6.08-8.12,8.79-14.31,9.27-4.51.36-11.6-.59-14.63,3.77-1.62,2.33-1.37,5.59-2.3,8.19A12.77,12.77,0,0,1,90.25,234.75Z"/><path class="cls-2" d="M62.66,217.93c5-3.28,10.18-6.36,15.41-9.31,6-3.4,12.18-6.62,18.35-9.79a7.56,7.56,0,0,1-.72-2.52,36.92,36.92,0,0,1-.45-4.81,41.92,41.92,0,0,1,.74-9.08,41.26,41.26,0,0,1,7.21-16.86c.33-.44,1.11.11.8.57a44.21,44.21,0,0,0-6.89,15.65,43.45,43.45,0,0,0-.94,8.59c0,1.39,0,2.78.17,4.17a14,14,0,0,0,.7,4q2.76-1.42,5.54-2.83c-1.44-2.07-1.34-5-1.27-7.38a39.11,39.11,0,0,1,1.23-8.55c1.37-5.33,3.91-11.27,7.95-15.15.28-.27.84.05.6.43-1.44,2.19-3,4.25-4.24,6.57a38.83,38.83,0,0,0-3.11,7.76,37.68,37.68,0,0,0-1.35,8c-.15,2.57-.37,5.6.92,7.92l5.8-3a.29.29,0,0,1-.22-.22c-1.27-4.8-.28-9.93.66-14.72a32.77,32.77,0,0,1,1.89-6.34c.8-1.91,1.94-4.21,3.62-5.5.41-.31,1,.25.73.67a40.26,40.26,0,0,0-3.26,5.18,33.14,33.14,0,0,0-1.93,6.24c-1,4.62-2.1,9.58-1.08,14.27a.35.35,0,0,1,0,.23c3.67-1.88,7.34-3.76,11-5.68,8-4.23,16-8.65,23.64-13.48a.61.61,0,0,1,.66,1c-4.32,2.72-8.73,5.31-13.18,7.81a35.43,35.43,0,0,0,10.73.57c.36,0,.36.48,0,.54a30,30,0,0,1-11.83-.51l-3.61,2a31.82,31.82,0,0,0,12.09,1.4c.2,0,.26.31.06.35a22.58,22.58,0,0,1-13-1.24l0,0c-7.53,4.07-15.17,7.94-22.8,11.82-11.78,6-23.58,12-34.88,18.91a.55.55,0,0,1,.17.17c1,1.78,3,2.59,4.81,3.44s3.67,1.68,5.55,2.41a83.92,83.92,0,0,0,11.94,3.64c.31.06.2.54-.11.48A74.89,74.89,0,0,1,78,222.19q-3.16-1.23-6.21-2.72c-1.58-.77-3.27-1.52-4.14-3.14a.42.42,0,0,1-.06-.26c-1.23.76-2.45,1.52-3.66,2.29a11.83,11.83,0,0,0,2,1.91,20.8,20.8,0,0,0,2.43,1.38c2.27,1.16,4.59,2.2,7,3.16,4.81,1.94,9.76,3.21,14.68,4.75a.18.18,0,0,1-.08.36,69.44,69.44,0,0,1-15.42-4.6c-2.46-1-4.9-2-7.26-3.23a12.35,12.35,0,0,1-3.54-2.39c-.24-.44-.49-.87-.75-1.31Z"/><path class="cls-2" d="M85.56,233a.21.21,0,0,1-.09.42,65.35,65.35,0,0,1-19.15-7.13c-.12-.46-.26-.91-.41-1.37A79.44,79.44,0,0,0,85.56,233Z"/><path class="cls-3" d="M62.67,165c1.47-2,3-4,4.49-6s3-3.59,4.36-5.48c.1-.15-.13-.3-.24-.18A70.94,70.94,0,0,0,66.51,159c-1.34,1.68-2.65,3.36-3.94,5.08,0-.07,0-.13,0-.2a85.2,85.2,0,0,0,1.56-9.26h0c1.55-2,3-4.09,4.42-6.2.72-1.06,1.41-2.14,2.09-3.22a27.45,27.45,0,0,0,2-3.43c.06-.14-.12-.3-.22-.17-.76,1-1.37,2.09-2,3.13s-1.37,2.06-2.07,3.07c-1.3,1.88-2.66,3.71-4.05,5.53.17-1.69.3-3.38.39-5.08.07-1.3.12-2.62.15-3.93a.37.37,0,0,0,.18-.14l3.7-6.68c1.22-2.21,2.62-4.4,3.62-6.71a.18.18,0,0,0-.31-.18c-1.44,2.07-2.58,4.41-3.82,6.61-1.12,2-2.23,3.95-3.35,5.93.05-3,0-5.91-.2-8.85,0,0,.06,0,.07-.09.91-1.82,1.8-3.66,2.67-5.5s1.81-3.48,2.52-5.29c.06-.16-.18-.22-.26-.1-1.08,1.64-1.92,3.49-2.84,5.23q-1.17,2.19-2.26,4.42c-.1-1.27-.22-2.53-.39-3.79l2-5.54c.66-1.85,1.39-3.68,1.87-5.58a.17.17,0,0,0-.32-.13,54.85,54.85,0,0,0-2.15,5.41c-.53,1.42-1.05,2.85-1.56,4.27a60.1,60.1,0,0,0-1.21-5.94.29.29,0,0,0,.12-.19c.59-2.72,1.57-5.26,2.37-7.91a.2.2,0,0,0-.37-.15,30.6,30.6,0,0,0-2.45,7,49,49,0,0,0-1.83-5.22c.26-1.67.71-3.33.9-5,0-.19-.26-.35-.34-.14a19.47,19.47,0,0,0-1,4,29.08,29.08,0,0,0-3.25-5.53c-.28-.38-.91,0-.64.4a53.18,53.18,0,0,1,3,5.18c-.33-.21-.67-.4-1-.6l-3-1.76a.39.39,0,0,0-.39.68L57.58,114a12.19,12.19,0,0,1,2.23,1.38l0,.08A45.1,45.1,0,0,1,61.47,120c-2.11-1.75-4.35-3.36-6.58-5-.43-.31-.83.41-.4.71,2.5,1.75,5,3.52,7.33,5.48.1.34.19.69.28,1,.5,2,.88,3.92,1.19,5.9-2.59-2.19-5.25-4.31-8-6.32-.43-.32-.83.41-.41.72,2.93,2.15,5.79,4.38,8.56,6.72.17,1.22.3,2.46.41,3.69a31.87,31.87,0,0,0-3.14-2.24q-2.37-1.58-4.72-3.18c-.32-.21-.6.31-.29.52l4.48,3A23.66,23.66,0,0,1,64,134c.22,2.94.29,5.89.25,8.83-2.07-2.46-4.14-4.9-6.22-7.35-.26-.32-.71.14-.44.45,2.21,2.63,4.41,5.26,6.64,7.88,0,2-.13,3.93-.25,5.87-.07,1.2-.16,2.39-.28,3.58l-3.68-6c-.23-.37-.82,0-.58.35q2.07,3.36,4.15,6.71A84.47,84.47,0,0,1,62.18,163c-.73-2.33-1.51-4.63-2.35-6.92-.14-.39-.76-.21-.62.18,1,2.64,1.86,5.29,2.69,8-.08.32-.15.65-.23,1a66,66,0,0,1-2.24,7.29c-.18.49-.37,1-.58,1.45-.09-1.16-.22-2.32-.39-3.47-.11-.72-.23-1.44-.37-2.15-.09-.46-.08-1-.48-1.32a.34.34,0,0,0-.4.06l-.07.06a.33.33,0,0,0,0,.39l0,.06a.28.28,0,0,0,.16.12c.06.22.08.56.11.68.05.28.1.55.16.83.13.7.24,1.41.34,2.12.18,1.28.3,2.56.38,3.85a16.55,16.55,0,0,1-2.44,3.75c-.14.16.09.39.24.23a14.91,14.91,0,0,0,2.59-3.64.35.35,0,0,0,.16-.08,62.44,62.44,0,0,0,8-8.92c.09-.13-.12-.28-.22-.17-2.35,2.64-4.67,5.25-7.21,7.7.24-.55.46-1.1.68-1.66a66.41,66.41,0,0,0,2.26-7.31A.37.37,0,0,0,62.67,165Z"/><path class="cls-4" d="M108.22,172.76c-2.45-.29-4.46-2.09-6.81-2.79a12.17,12.17,0,0,0-6.25-.27c1.47-2.38,3-4.73,4.6-7a13.15,13.15,0,0,0,6.43,3.33,12.89,12.89,0,0,0,3.82.21c1.54-.16,3-.66,4.55-.92.89-.15.79-1.29.2-1.7a17.1,17.1,0,0,0-7.27-3,17.58,17.58,0,0,0-3.9-.15,12.82,12.82,0,0,0-2.57.4q1.59-2.22,3.27-4.38l1.27-1.59a16.9,16.9,0,0,0,8.13,2.63c2.84.16,6.16-.33,7.8-2.94a.88.88,0,0,0-.56-1.27,51.67,51.67,0,0,0-8.19-1.28,15.55,15.55,0,0,0-5.33.61c1.77-2.08,3.59-4.09,5.48-6,2,1.83,4.76,2.68,7.34,3.31s5.67,1.47,7.83-.66a.91.91,0,0,0-.22-1.43c-2.36-1.24-4.77-2.83-7.44-3.27a16.56,16.56,0,0,0-5.53,0q2.85-2.82,5.86-5.46c2.17,1.73,4.47,3.43,7.29,3.85,2.37.35,5.48,0,6.64-2.44a.85.85,0,0,0-.53-1.21c-3.42-1.13-7.27-2.63-10.95-2.22,0,0,0-.07,0-.1q2.8-2.36,5.73-4.58l.17.09c4.64,2,10.48,4.24,15.09.92A.81.81,0,0,0,144,132a30,30,0,0,0-7.91-2.28,12.92,12.92,0,0,0-3.66.14l.83-.6c1-.72,2-1.44,3.07-2.15a.64.64,0,0,0,.16.17c2,1.59,5.15,2,7.6,1.8a18.67,18.67,0,0,0,8.09-2.66.78.78,0,0,0-.4-1.44c-2.71-.11-5.41-.37-8.12-.46a12.78,12.78,0,0,0-4.19.43l3.94-2.65a.75.75,0,0,0,.49.35c1.07.18,2.39-.75,3.32-1.22A42.06,42.06,0,0,0,151,119.3a37.67,37.67,0,0,0,6.56-5.38.74.74,0,0,0-.71-1.22,29.57,29.57,0,0,0-7.55,2.64,20.16,20.16,0,0,0-5.93,5.78.17.17,0,0,0,0,.18c-1.25.8-2.5,1.59-3.74,2.4a35.42,35.42,0,0,0,1.8-3.52,12.27,12.27,0,0,0,1.17-6.63.78.78,0,0,0-1.31-.53,17,17,0,0,0-4.36,6.4c-.65,1.67-1.68,4.69-.48,6.37q-2.26,1.51-4.5,3.07a13.34,13.34,0,0,0,.17-4.41,16.09,16.09,0,0,0-2.82-7.39.83.83,0,0,0-1.43,0,15.46,15.46,0,0,0-1.54,7.39,11.11,11.11,0,0,0,2.29,6.78q-2.69,2-5.3,4.06a2.17,2.17,0,0,0,0-.26,16.11,16.11,0,0,0-.58-3.72c-.78-2.94-2.15-5.69-2.85-8.65a.91.91,0,0,0-1.66-.2,14,14,0,0,0-1.79,8.72,10.5,10.5,0,0,0,1.5,4.12,6.27,6.27,0,0,0,2.45,2.42l0,0c-.67.58-1.34,1.16-2,1.75-1.57,1.4-3.09,2.84-4.58,4.32,0-.37,0-.73,0-1a13.17,13.17,0,0,0-.5-3.23,33,33,0,0,0-2.71-6.25,1,1,0,0,0-1.49-.19,7.52,7.52,0,0,0-1.64,7,9.09,9.09,0,0,0,1.94,3.57,9,9,0,0,0,2.44,2.07q-2.82,2.92-5.45,6.05c1.46-3.82-1.12-8.4-3.09-11.59a.88.88,0,0,0-1.63.45c-.38,4.35-1.38,9.94,3,12.66a.36.36,0,0,0,.2.25c-1.63,2-3.19,4-4.7,6.12a9.26,9.26,0,0,0-.9-4.15,16.23,16.23,0,0,0-4.46-5.71.94.94,0,0,0-1.46.21c-2.07,4.68.61,10,4.86,12.42q-2.15,3.1-4.12,6.31a5.37,5.37,0,0,0-.27-.8,10.45,10.45,0,0,0-1.51-2.42,27.39,27.39,0,0,0-5.24-5.35.93.93,0,0,0-1.25.36c-1.21,2-.66,4.51.62,6.35a10.85,10.85,0,0,0,6,4.18,1.74,1.74,0,0,0,.11.18q-2.49,4.2-4.74,8.56A62.46,62.46,0,0,0,83.2,190c-.17.55.64.83.92.36,1.7-2.81,2.94-5.95,4.43-8.88s3-5.75,4.67-8.56c.13-.24.27-.48.41-.71a19.19,19.19,0,0,0,3,1.44,25,25,0,0,0,4.11,1.43,10.84,10.84,0,0,0,7.66-.74C109.06,174,109,172.85,108.22,172.76Z"/><path class="cls-5" d="M95.12,143.61c-1.24,2.68,1.12,5.17,2.36,7.38,3.89,6.93.38,12.88-4.77,17.95-2.38,2.33-4.94,4.58-6,7.84a5,5,0,0,0-.07,3.73c.77,1.55,2.67,2.34,3.83,3.56,4.88,5.17.92,12.43-3.68,16.13-1.89,1.51-8,4.81-7.48,7.55.3,1.38,1.72,2.51,2.15,4a9.18,9.18,0,0,1,.14,4.48,15.66,15.66,0,0,1-5,8.14c-2.66,2.36-6.25,4.24-8,7.44a3.72,3.72,0,0,0-.48,1.1.56.56,0,0,1-.05.18l-3.35-1.4c-4.11-1.74-8.14-3.6-12.12-5.63l-.32-.16-.14-.08L50.62,225c-1-.6-2.08-1.21-3.1-1.84l-.86-.55c-3.75-7.56-6-16.78,1.5-22.76,1.76-1.42,4-1.79,5.83-3.08,1.25-.9.82-1.25,0-2.44a20.89,20.89,0,0,1-2.11-3.71,17,17,0,0,1,.49-13.09c2.1-4.63,6.07-6.75,10.24-9.22,2-1.17,4.2-2.59,4.37-5.12.15-2.22-1.14-4.47-1.87-6.5-1.45-4-1.43-8.05,2-11,3.6-3.13,8.89-3.61,9.32-9.22a35.39,35.39,0,0,1,.47-4.87,10.65,10.65,0,0,1,4.1-8.22c6.49-5.39,11.24-11.76,12.11-20.43.23-2.24,3.56-4.12,4.85-1.45a34.14,34.14,0,0,1,3.6,10.16,14.51,14.51,0,0,1-.14,4.83c-.43,2.1-2.1,4.34-1.33,6.49,1,2.85,3.53,4.48,3.59,7.79,0,2.69-1.42,5-3.16,6.88S96.23,141.21,95.12,143.61Z"/><path class="cls-6" d="M68.09,233.11a7.64,7.64,0,0,0,1.61.29l-.26.07-.29.08-1.07-.45Z"/><path class="cls-7" d="M79.79,166C75.6,176.78,70.13,187,67.48,198.37c-1.28,5.49-2.4,11-4,16.41-1.42,4.81-3.06,9.55-4.71,14.28l-2.14-1a233.51,233.51,0,0,0,7.23-24.51,119.68,119.68,0,0,1,4.44-16.43c1.84-4.9,4.1-9.63,6.18-14.43,4.58-10.58,8.36-21.54,12-32.45a160.11,160.11,0,0,0,8.28-37.16c0-.6.94-.67,1,0,.32,10.73-2.29,21.51-5.34,31.73C87.3,145.27,83.75,155.72,79.79,166Z"/><path class="cls-8" d="M110.27,87.39a12.74,12.74,0,0,0-.54-5c-.39-1.1,1.39-.79,1.78,1.1.35,1.7,2.36.78,3.55,1.24,2.33.9,1.23,4.71-.21,5-2.13.36,0,4.63-3.87,3.85C107.88,93,110.1,88.94,110.27,87.39Z"/><path class="cls-9" d="M74.17,79.07c-.41-.33-9.5,11.67-9.5,11.67S76.06,114.23,94.74,120c13.84,4.23,21.59-15.1,19.34-28.28a3.94,3.94,0,0,0-4.57-1.41c-4.63,4.47-6.14,13.51-8.48,13.71C95.78,104.4,81.26,84.93,74.17,79.07Z"/><path class="cls-10" d="M69.36,98.63c2.27-4.7,4.76-9.26,4.76-9.26s5.63,14.72,5.23,21.13A72,72,0,0,1,69.36,98.63Z"/><path class="cls-9" d="M42.63,118.38a11.77,11.77,0,0,0,.55-2.45c1.23-17.25-9.45-33.73-7.27-38.38,3.2-6.83,14.74-4.77,19-5.17s13.37.67,19.3,6.69c7.5,7.62-.81,14.29-3.15,35,0,0,0,2.49-.2,6.82A69,69,0,0,1,42.63,118.38Z"/><path class="cls-10" d="M53.72,77.11a7.09,7.09,0,0,1-2.25-2.62,2,2,0,0,1,.42-2.07c1.18,0,2.2,0,3,0l.61,0C55.35,73.07,53.72,77.11,53.72,77.11Z"/><path class="cls-11" d="M51.77,59.32,52,64.14l-1.81-.46S48,61.05,48.27,58.8,51.77,59.32,51.77,59.32Z"/><path class="cls-8" d="M56.86,66.65,58.26,73a2.58,2.58,0,0,1-2.1,3.1h0a2.58,2.58,0,0,1-3-2.23L52,64.51Z"/><path class="cls-12" d="M57.33,68.77h0l.41,1.88a8.74,8.74,0,0,1-3.38-3.05l2.7-.06Z"/><path class="cls-8" d="M50.8,61.76a1.66,1.66,0,0,1,.8.12l-.22-1.22c-.43-2.41,1.38-4.06,3.79-4.53.37-.07.77-.12,1.2-.16,2.32-.21,4.23,3.33,5.2,5.92,1.14,3,.84,4-.26,5.16a4,4,0,0,1-4.11,1.36c-3.34-.66-4.6-1.88-5.26-2.62h0a1.81,1.81,0,0,1-2.11-1C49.43,63.72,49.85,61.84,50.8,61.76Z"/><path class="cls-7" d="M60.18,63.41s.07,1.2-.8,1.55-1.29.13-1.91-.64Z"/><path class="cls-4" d="M58.29,56.64s.5-3.42-1.8-4.75S49,51.48,48,54.26s.17,3.33-1.2,3.85c0,0,.26,1.26,1.24,1.55S55.5,61.09,58.29,56.64Z"/><path class="cls-11" d="M56,52.91c-2.07-1.2-6.44-.56-8.07,1.6,0-.08,0-.16.08-.25,1.07-2.78,6.23-3.7,8.53-2.37s1.8,4.75,1.8,4.75a5.67,5.67,0,0,1-.5.68C57.85,56.43,57.82,54,56,52.91Z"/><path class="cls-8" d="M29.7,129.15c2.52,1,4.18,1.78,4.18,2.32,0,2.36-1.35-.48-2.84.28s.68,4.08,4.17,3.45,3.52-5.07,1.48-7.3c-.57-.63-2-2-3.81-3.75A10.65,10.65,0,0,1,29.7,129.15Z"/><path class="cls-9" d="M41.15,93.2c.49-.17-1.4-19.34-1.4-19.34S12.89,84.39,6.47,104.69c-4.37,13.8,14.62,20.92,23.23,24.46a10.65,10.65,0,0,0,3.18-5c-4.62-4.48-11.55-11.31-11.82-13.64C20.46,105.27,34.54,95.47,41.15,93.2Z"/><path class="cls-13" d="M42.11,120c.19-.56.37-1.09.52-1.57a69,69,0,0,0,28.19,2.49c0,.68-.06,1.42-.09,2.19C66.72,123.73,52.48,125.54,42.11,120Z"/><path class="cls-13" d="M14.22,231s7.88-34,17.33-80.16c2.35-11.5,8.15-24,10.56-30.87,10.37,5.59,24.61,3.78,28.62,3.11C70.33,131.65,68,231,68,231l-11,.57-4.81-89.71L26.91,231Z"/><path class="cls-14" d="M56.73,75.52l-.84,0a.78.78,0,0,0-.76.87l.1.84a.8.8,0,0,0,.42.6L56,78a.79.79,0,0,0,.89-.12l.39-.37a.77.77,0,0,0,.25-.57V76.3A.79.79,0,0,0,56.73,75.52Z"/><path class="cls-7" d="M56.36,76.11,54,74.31a2.75,2.75,0,0,1-1-1.76l0-.25a6.1,6.1,0,0,0-1,3.08c-.14,1.92,2.5,5.77,2.5,5.77Z"/><path class="cls-7" d="M56.29,76.1l1.43-1.82a2.42,2.42,0,0,0,.35-2.14l-.1-.48a5.17,5.17,0,0,1,2.5,2.79c.55,1.85-1.22,6.17-1.22,6.17Z"/><path class="cls-15" d="M59.86,101.17C59.87,97.8,57,77.48,57,77.48l-1.37-.13s-1.57,17.82-1.91,22.73a31.6,31.6,0,0,0,2.61,7.34A17.14,17.14,0,0,0,59.86,101.17Z"/><path class="cls-16" d="M57,230.18l11-.58,6.8,3.65h0a13.62,13.62,0,0,0,4.64,1.48l.5.06a4.31,4.31,0,0,1,3.14,2.06,3.72,3.72,0,0,1,.19.34l.08.16a4.24,4.24,0,0,1,.18.5l0,.1h-27Z"/><path class="cls-16" d="M26.91,229.6H14.22l-5.43,3.65h0a13.55,13.55,0,0,1-4.64,1.48l-.5.06a4.33,4.33,0,0,0-3.14,2.06,3.72,3.72,0,0,0-.19.34l-.07.16a4.29,4.29,0,0,0-.19.5l0,.1H26.63Z"/><path class="cls-7" d="M65.17,229.11a.37.37,0,0,0,.36-.37v-59a.37.37,0,1,0-.73,0v59A.37.37,0,0,0,65.17,229.11Z"/><path class="cls-7" d="M19.16,228.56a.36.36,0,0,0,.35-.27l15.16-58.45a.36.36,0,0,0-.27-.44.36.36,0,0,0-.44.26L18.8,228.1a.37.37,0,0,0,.26.45Z"/><path class="cls-7" d="M41.07,131.58h0c3.15-.21,4.71-1.38,5.47-2.33a4,4,0,0,0,.91-2.11.37.37,0,0,0-.35-.39.37.37,0,0,0-.38.35c0,.15-.29,3.39-5.69,3.74a.37.37,0,0,0,0,.74Z"/><path class="cls-7" d="M67.9,134.78a.38.38,0,0,0,.31-.18.37.37,0,0,0-.12-.51c-4.69-2.82-4-5.87-4-6a.39.39,0,0,0-.27-.45.38.38,0,0,0-.45.27c0,.15-.86,3.69,4.32,6.8A.33.33,0,0,0,67.9,134.78Z"/><polygon class="cls-17" points="41.97 49.39 33.01 42.38 31.53 47.67 41.97 49.39"/><polygon class="cls-17" points="70.79 62.73 80.61 68.48 81.37 63.05 70.79 62.73"/><polygon class="cls-17" points="39.45 63.53 33.04 62.43 33.73 65.49 39.45 63.53"/><polygon class="cls-17" points="66.25 51.01 73.69 48.92 71.39 45.99 66.25 51.01"/><polygon class="cls-17" points="53.04 42.99 54.41 31.97 49.25 33.38 53.04 42.99"/><path class="cls-9" d="M5.83,98.24a.19.19,0,0,0,.16-.1A47.7,47.7,0,0,1,24.81,79.23a.19.19,0,0,0,.08-.25.17.17,0,0,0-.24-.08A48,48,0,0,0,5.66,98a.19.19,0,0,0,.08.25Z"/><path class="cls-9" d="M99.3,123.2a12.92,12.92,0,0,0,5-.9,14.23,14.23,0,0,0,7.43-7,.18.18,0,0,0-.1-.24.19.19,0,0,0-.24.1,13.79,13.79,0,0,1-7.23,6.82c-5.73,2.38-13-.69-14.47-1.58a.18.18,0,0,0-.25.07.19.19,0,0,0,.06.25A21.63,21.63,0,0,0,99.3,123.2Z"/><path class="cls-1" d="M34.31,215.32a.19.19,0,0,0,.18-.13l9.14-30.54a.17.17,0,0,0-.12-.22.18.18,0,0,0-.23.12l-9.14,30.54a.18.18,0,0,0,.12.23Z"/><path class="cls-9" d="M107.47,49.86c.93,0,1.68-.5,1.72-1.12l10.36.21c0,.62.69,1.17,1.62,1.19.7,0,1.25.43,1.23.92l0,.89c0,.49-.59.85-1.28.88s-1.07.36-1.09.79l0,.48c0,.49.52.87,1.21.93s1,.4,1,.83l0,1c0,.49-.59.85-1.28.88s-1.07.36-1.08.79v.12c0,.49.52.87,1.21.93s1,.4,1,.83l0,.56c0,.5-.6.89-1.3.88l-1.53,0a1.38,1.38,0,0,0-1.22.57,4.76,4.76,0,0,1-4.2,1.93,4.54,4.54,0,0,1-4-2.1,1.32,1.32,0,0,0-1.17-.62l-1.54,0c-.7,0-1.25-.43-1.23-.92l0-.48c0-.49.59-.85,1.28-.88s1.07-.36,1.08-.79v-.12c0-.49-.52-.87-1.21-.93s-1-.4-1-.83l0-1c0-.49.59-.85,1.28-.88s1.07-.36,1.09-.79l0-.57c0-.42-.43-.78-1-.83s-1.23-.43-1.21-.92l0-.77A1.16,1.16,0,0,1,107.47,49.86Z"/><path class="cls-18" d="M109.12,48.19c-2.13-8.62-18.84-14.84-16.21-31C96-1.72,116,0,116,0s20.14-.83,21.88,18.14c1.5,16.3-15.63,21.85-18.35,30.36a1.54,1.54,0,0,0-.08.46l-10.3-.2A3.2,3.2,0,0,0,109.12,48.19Z"/><path class="cls-7" d="M125.11,3.25a.54.54,0,0,1,.25.06c.79.38,7.8,3.91,9.06,10.34a.32.32,0,0,1-.09.29.45.45,0,0,1-.32.16.5.5,0,0,1-.34-.06h0a.39.39,0,0,1-.22-.27C132.24,7.6,124.93,4,124.86,4a.38.38,0,0,1-.17-.55A.5.5,0,0,1,125.11,3.25Z"/><path class="cls-7" d="M134.82,16.66a.49.49,0,0,1,.48.32,18.42,18.42,0,0,1-.71,9.79.45.45,0,0,1-.23.24.59.59,0,0,1-.37,0l-.14-.05h0a.36.36,0,0,1-.2-.44,18.16,18.16,0,0,0,.69-9.41.4.4,0,0,1,.38-.47Z"/><path class="cls-7" d="M119,52.53a.37.37,0,0,1,.18,0,.22.22,0,0,1,.12.15.17.17,0,0,1,0,.16A.37.37,0,0,1,119,53a43.52,43.52,0,0,1-9.41-.14l-.1,0h0a.2.2,0,0,1-.13-.24.25.25,0,0,1,.13-.14.39.39,0,0,1,.24,0,43.76,43.76,0,0,0,9.18.13Z"/><path class="cls-7" d="M118.74,57.76a.3.3,0,0,1,.31.19.17.17,0,0,1-.06.16.34.34,0,0,1-.21.09,43.44,43.44,0,0,1-9.4-.14l-.11,0h0a.21.21,0,0,1-.13-.24.26.26,0,0,1,.14-.13.31.31,0,0,1,.23,0,43.78,43.78,0,0,0,9.18.13Z"/><path class="cls-7" d="M110.05,27.33a19.13,19.13,0,0,1-4.23-6,5.43,5.43,0,0,1-.41-3.22,6.38,6.38,0,0,1-.35-1.15,2.2,2.2,0,0,0-.15.26c-1,1.88-.28,5.67,4.58,10.65,4.46,4.55,1.08,17.47,1,17.6a.4.4,0,0,0,.28.48.39.39,0,0,0,.48-.28C111.44,45.13,114.8,32.18,110.05,27.33Z"/><path class="cls-7" d="M118.89,27.33a19,19,0,0,0,4.24-6,5.43,5.43,0,0,0,.41-3.22,6.38,6.38,0,0,0,.35-1.15l.15.26c1,1.88.28,5.67-4.59,10.65-4.45,4.55-1.07,17.47-1,17.6a.39.39,0,1,1-.75.2C117.51,45.13,114.15,32.18,118.89,27.33Z"/><path class="cls-7" d="M120.63,17.15a.38.38,0,0,1,.27-.46.4.4,0,0,1,.46.26l.22.81.08.25a2.16,2.16,0,0,0,.48.87,1.09,1.09,0,0,0,.93.21.6.6,0,0,0,.49-.36,1.37,1.37,0,0,0,0-.82s-.1-.4-.26-.91l-.23-.79-.34-1.29a.38.38,0,0,1,.26-.46.4.4,0,0,1,.47.27l.34,1.28.22.77c.27.95.26.95.26.95a2.06,2.06,0,0,1,0,1.3,1.35,1.35,0,0,1-1,.79,1.73,1.73,0,0,1-1.59-.41,2.69,2.69,0,0,1-.66-1.17c0-.08-.06-.18-.09-.28l-.14-.53Zm1.92-3.43a.5.5,0,0,1-.51-.5.51.51,0,0,1,.51-.51.51.51,0,1,1,0,1Z"/><path class="cls-7" d="M114.88,17.18a.37.37,0,0,1,.27-.46.39.39,0,0,1,.46.25l.22.8.07.26a1.88,1.88,0,0,0,.47.85,1.08,1.08,0,0,0,.95.24.75.75,0,0,0,.49-.36,1.4,1.4,0,0,0,0-.82,1.13,1.13,0,0,0-.05-.21,2.35,2.35,0,0,0-.11-.35l-.1-.37-.21-.79-1.21-4.46a.37.37,0,0,1,.26-.46.35.35,0,0,1,.46.27l.93,3.45a.93.93,0,0,1,.18-.26,1.42,1.42,0,0,1,1.29-.49c1.68.2,2.35,2.54,2.26,3.89a1.89,1.89,0,0,1-.43,1.23,1.41,1.41,0,0,1-1.09.52.55.55,0,0,1-.18,0,2.06,2.06,0,0,1-1.32-.74,1.4,1.4,0,0,1-1,.7,2.13,2.13,0,0,1-.37,0,1.72,1.72,0,0,1-1.21-.45,2.59,2.59,0,0,1-.66-1.17l-.1-.29-.14-.52Zm3.6-1.92a1.53,1.53,0,0,0-.27,1.21,3.42,3.42,0,0,0,.13.71l0,.1,0,.25c0,.08.06.18.1.27.42,1.08,1,1.3,1.32,1.35a.66.66,0,0,0,.62-.26,1.28,1.28,0,0,0,.26-.78,3.91,3.91,0,0,0-.93-2.76,1.27,1.27,0,0,0-.69-.35H119A.65.65,0,0,0,118.48,15.26Z"/><path class="cls-7" d="M111.44,18.88a4.79,4.79,0,0,1-.79-1.8.38.38,0,1,1,.73-.18,4.2,4.2,0,0,0,.66,1.52s.06.07.1.11a1.85,1.85,0,0,0,.37.32,1.44,1.44,0,0,0,.72.24,2,2,0,0,0,.9-.1,1.17,1.17,0,0,0,.53-.43,2.08,2.08,0,0,0,.2-1.32l-.2.06a2.37,2.37,0,0,1-1.7-.17A2,2,0,0,1,112,16a1.5,1.5,0,0,1,.36-1.55,1.58,1.58,0,0,1,1.77.06,3.91,3.91,0,0,1,1.45,2.63,2.82,2.82,0,0,1-.31,1.86,2,2,0,0,1-.86.72,2.9,2.9,0,0,1-1,.17h-.27a2.1,2.1,0,0,1-1.07-.38,2.42,2.42,0,0,1-.51-.41ZM112.86,15a.75.75,0,0,0-.12.75,1.22,1.22,0,0,0,.58.72,1.67,1.67,0,0,0,1.16.11.85.85,0,0,0,.21-.07,2.64,2.64,0,0,0-1-1.41A.82.82,0,0,0,112.86,15Z"/><path class="cls-7" d="M104.89,17.18a.37.37,0,1,1,.72-.18l.22.78c0,.11,0,.19.08.28a2.13,2.13,0,0,0,.48.84,1,1,0,0,0,.94.22.58.58,0,0,0,.48-.36,1.23,1.23,0,0,0,0-.8l-.15-.49a1.58,1.58,0,0,0-.11-.45l-.23-.77L107,15a.38.38,0,0,1,.73-.2l.07.28a1.5,1.5,0,0,1,.19-.25,1.37,1.37,0,0,1,1.27-.52c1.7.23,2.37,2.55,2.28,3.9a1.9,1.9,0,0,1-.43,1.24,1.41,1.41,0,0,1-1.09.51h-.18a2.1,2.1,0,0,1-1.34-.75,1.34,1.34,0,0,1-1,.71l-.4,0a1.69,1.69,0,0,1-1.19-.44,2.68,2.68,0,0,1-.67-1.16c0-.1-.06-.19-.08-.29l-.15-.53Zm3.62-1.92a1.54,1.54,0,0,0-.27,1.22,4.84,4.84,0,0,0,.31,1.35c.42,1.06,1,1.29,1.32,1.35a.73.73,0,0,0,.62-.26,1.29,1.29,0,0,0,.26-.79,4,4,0,0,0-.94-2.77,1.07,1.07,0,0,0-.68-.33H109A.69.69,0,0,0,108.51,15.26Z"/><path class="cls-16" d="M59.76,58.15a1.6,1.6,0,0,0-1.63,1.64"/><path class="cls-16" d="M56.49,59.79a1.61,1.61,0,0,0-1.64,1.64"/><ellipse class="cls-16" cx="59.46" cy="60.68" rx="0.31" ry="0.61" transform="translate(-22.37 37.86) rotate(-30)"/><ellipse class="cls-16" cx="57.82" cy="62.31" rx="0.31" ry="0.61" transform="translate(-23.41 37.26) rotate(-30)"/></g></g></svg>