<svg xmlns="http://www.w3.org/2000/svg" xmlns:xlink="http://www.w3.org/1999/xlink" viewBox="0 0 213.63 439.26"><defs><style>.cls-1,.cls-13,.cls-19{fill:none;}.cls-2{clip-path:url(#clip-path);}.cls-3{fill-opacity:0.57;fill:url(#未命名漸層_6);}.cls-4{fill:#935924;}.cls-5{fill:url(#linear-gradient);}.cls-6{fill:url(#linear-gradient-2);}.cls-7{fill:#af9dd7;}.cls-21,.cls-8{fill:#fff;}.cls-9{fill:#f6ae90;}.cls-10{fill:#f2f2f2;}.cls-11{fill:#e59383;}.cls-12{fill:#e0e0e0;}.cls-13{stroke:#33213d;stroke-linecap:round;stroke-width:1.5px;}.cls-13,.cls-19{stroke-miterlimit:10;}.cls-14{fill:#f2853b;}.cls-15{fill:#ffb25a;}.cls-16{fill:#243762;}.cls-17{fill:#33213d;}.cls-18{fill:#f4564a;}.cls-19{stroke:#b3b3b3;}.cls-20{fill:#e6f4f0;}.cls-21{opacity:0.4;}</style><clipPath id="clip-path" transform="translate(0 -1.74)"><rect class="cls-1" x="15.63" width="199" height="236" rx="12" ry="12"/></clipPath><linearGradient id="未命名漸層_6" x1="114.86" y1="237" x2="114.86" y2="88.3" gradientUnits="userSpaceOnUse"><stop offset="0" stop-color="#d9beff"/><stop offset="1" stop-color="#fff"/></linearGradient><linearGradient id="linear-gradient" x1="57.15" y1="312.05" x2="137.45" y2="312.05" gradientUnits="userSpaceOnUse"><stop offset="0" stop-color="#ff9f5a"/><stop offset="1" stop-color="#ffc35a"/></linearGradient><linearGradient id="linear-gradient-2" x1="32.92" y1="315.61" x2="163.47" y2="315.61" xlink:href="#linear-gradient"/></defs><title>infographic</title><g id="圖層_2" data-name="圖層 2"><g id="圖層_1-2" data-name="圖層 1"><g class="cls-2"><path class="cls-3" d="M17.29,210.59s-8-41.33,17.22-52.82,47.08-13.77,47.08-39,58.56-47.07,78.08-12.63,28.7,50.53,42.48,62S220.52,237,197.56,237H31.07S18.44,217.48,17.29,210.59Z" transform="translate(0 -1.74)"/><path class="cls-4" d="M91,104.2A22.27,22.27,0,0,0,78.63,123c-1,14-12,18-11,22s2,10-5,15,42,29,62,20,35-21,35-28-5-8-4-14,5-9-1-12-7-10-8-13-6-10-11.1-13.48" transform="translate(0 -1.74)"/><circle class="cls-4" cx="114.63" cy="113.26" r="26"/><path class="cls-5" d="M91,219.14c-16.93,13.1-34.45,37.71-33.81,54.35S83.33,409.61,83.33,409.61l21.5-2.34s.2-65,4.67-110.24c2.74-27.84,27.84-40.2,27.95-42.23C137.77,249,116.63,199.29,91,219.14Z" transform="translate(0 -1.74)"/><path class="cls-6" d="M141.86,221.52s14,10.07,19.59,25c8.73,23.35-11.79,37.31-42.54,40C60.33,291.59,52.2,409.7,52.2,409.7l-19-7.86s-4.35-74.14,24-128.35c9.44-18,61.74-44.59,61.74-44.59Z" transform="translate(0 -1.74)"/><path class="cls-7" d="M86.8,222.44l.06-.19c2.38-7.56,8.07-9.56,8.07-20.82,0-13.55-27.24-35.07-12.4-45.32,19.06-13.17,45.27-9.54,58.1-2.11,10.1,5.84,7.38,18,.19,36.87-3.48,9.11,4.68,24.66,6,34.26C136.82,228.26,114.12,232.89,86.8,222.44Z" transform="translate(0 -1.74)"/><path class="cls-8" d="M104.65,147.85s-5,12.15,6,12.15S121,147.85,121,147.85,105.67,146.7,104.65,147.85Z" transform="translate(0 -1.74)"/><path class="cls-9" d="M106.46,140.46l-1,10.22a6.5,6.5,0,0,0,7.3,7.1h0a6.52,6.52,0,0,0,5.59-7.49l-2.83-17.36Z" transform="translate(0 -1.74)"/><rect class="cls-10" x="39.63" y="156.26" width="54" height="70"/><path class="cls-11" d="M105.74,147.55l.72-7.09,9-7.53,1.94,11.91A17.13,17.13,0,0,1,105.74,147.55Z" transform="translate(0 -1.74)"/><path class="cls-9" d="M94.74,115.11a3.92,3.92,0,0,1,.59.15c.64-8.37,5,2,13,2.3,7.74.32,7.74-5.23,18.42.16h0a6.08,6.08,0,0,1,2.71-.85c3.32-.21,3.1,6.95,2.26,10.82-.71,3.25-3.35,4.25-4.09,3.8.43,6.67-6.64,12.57-13.29,13.16-16.78,1.48-18.08-6.4-18.68-14.54-.12-.1-3.39-1.41-3.84-4.34C91.21,121.85,91.44,114.69,94.74,115.11Z" transform="translate(0 -1.74)"/><path class="cls-9" d="M135.68,152.83s60.14,6.26,68.21,45.57c5.88,28.68-45.55,41.71-82.94,33.36V219.32S173.77,205,176,199.43c2.53-6.33-16.66-15.15-23.3-17.7C132.48,174,135.68,152.83,135.68,152.83Z" transform="translate(0 -1.74)"/><path class="cls-11" d="M201.84,200.07c-7.21-35.16-56.07-43.88-66.31-45.33.05-1.2.15-1.91.15-1.91s60.14,6.26,68.21,45.57c1.9,9.27-2.19,16.89-9.85,22.7C200.36,215.53,203.57,208.47,201.84,200.07Z" transform="translate(0 -1.74)"/><path class="cls-9" d="M88.15,424.15c-3.68,0-5.91-.79-7.22-1.83l2.4-12.71,21.5-2.34,2.83,10.24h0S101.65,424.34,88.15,424.15Z" transform="translate(0 -1.74)"/><path class="cls-12" d="M60.88,440.75a8,8,0,0,1,.13-1.21l.06-.41c.07-.29.14-.58.23-.87.84-2.86,19.63-15.94,19.63-15.94,1.31,1,3.54,1.78,7.22,1.83,13.5.19,19.51-6.64,19.51-6.64l4.27,7.31,1.67,2.85h0L60.87,441h0Z" transform="translate(0 -1.74)"/><path class="cls-12" d="M92.4,425l.76-8.9a2.88,2.88,0,0,0-2.88-3.14l-7.25.17a2.8,2.8,0,0,0-2.7,3l.45,9.27Z" transform="translate(0 -1.74)"/><line class="cls-13" x1="79.23" y1="423.23" x2="67.52" y2="432.42"/><line class="cls-13" x1="79.6" y1="426.63" x2="75.76" y2="423"/><line class="cls-13" x1="75.3" y1="429.64" x2="71.46" y2="426"/><line class="cls-13" x1="71" y1="432.65" x2="67.16" y2="429.01"/><path class="cls-9" d="M32,416c-3-2.11-4.45-4-5-5.57l6.08-8.58,19,7.86-.28,11.72h0S43.11,423.71,32,416Z" transform="translate(0 -1.74)"/><path class="cls-12" d="M.15,414.44a10,10,0,0,1,.79-.93,3.83,3.83,0,0,1,.28-.29c.21-.21.44-.41.67-.6,2.3-1.9,25.19-2.2,25.19-2.2.5,1.6,1.93,3.46,5,5.57,11.08,7.72,19.89,5.43,19.89,5.43l-.56,8.44-.22,3.3h0L0,414.65H0Z" transform="translate(0 -1.74)"/><path class="cls-12" d="M35.09,419.05l5.62-6.94a2.86,2.86,0,0,0-.63-4.21L34,404a2.8,2.8,0,0,0-3.9.95l-4.83,7.92Z" transform="translate(0 -1.74)"/><line class="cls-13" x1="24.19" y1="409.92" x2="9.35" y2="410.97"/><line class="cls-13" x1="22.59" y1="412.95" x2="21.44" y2="407.78"/><line class="cls-13" x1="17.34" y1="413.03" x2="16.2" y2="407.86"/><line class="cls-13" x1="12.09" y1="413.11" x2="10.95" y2="407.94"/><path class="cls-14" d="M68.53,336.36a.47.47,0,0,1-.16,0,.44.44,0,0,1-.25-.57c17.45-43.1,38.73-47.08,39.62-47.23a.44.44,0,0,1,.15.87c-.22,0-21.71,4.12-38.95,46.69A.43.43,0,0,1,68.53,336.36Z" transform="translate(0 -1.74)"/><path class="cls-14" d="M57.17,273.93a.46.46,0,0,1-.19,0,.44.44,0,0,1-.21-.59c6.09-13.09,23.93-22.3,24.11-22.39a.43.43,0,0,1,.59.19.44.44,0,0,1-.19.6c-.18.09-17.74,9.16-23.71,22A.43.43,0,0,1,57.17,273.93Z" transform="translate(0 -1.74)"/><path class="cls-9" d="M204.35,190.34a.43.43,0,0,1-.41-.28c-12.16-30.14-44-36.73-44.29-36.79a.44.44,0,0,1,.18-.87c.32.06,32.6,6.75,44.93,37.33a.45.45,0,0,1-.24.58Z" transform="translate(0 -1.74)"/><path class="cls-15" d="M109.57,393.06h0a.44.44,0,0,1-.43-.46L112,313.47a.46.46,0,0,1,.46-.43.44.44,0,0,1,.42.46L110,392.63A.44.44,0,0,1,109.57,393.06Z" transform="translate(0 -1.74)"/><rect class="cls-16" x="22.63" y="235.26" width="180" height="2"/><ellipse class="cls-17" cx="107.13" cy="127.26" rx="1.2" ry="2"/><ellipse class="cls-17" cx="113.13" cy="127.26" rx="1.2" ry="2"/><path class="cls-17" d="M111.62,124a18,18,0,0,1,4-1.1,6,6,0,0,1,2.15,0,2.7,2.7,0,0,1,1.84,1.15l0,.06a4.71,4.71,0,0,0-1.91-.47,18.22,18.22,0,0,0-2-.1,22.55,22.55,0,0,0-4.07.58Z" transform="translate(0 -1.74)"/><path class="cls-17" d="M107.62,124a22.55,22.55,0,0,0-4.07-.58,18.22,18.22,0,0,0-2,.1,4.71,4.71,0,0,0-1.91.47l0-.06a2.7,2.7,0,0,1,1.84-1.15,6,6,0,0,1,2.15,0,18,18,0,0,1,4.05,1.1Z" transform="translate(0 -1.74)"/><path class="cls-8" d="M105.63,135s6,2,10,0C115.63,135,110.63,146,105.63,135Z" transform="translate(0 -1.74)"/><rect class="cls-18" x="116.83" y="111.76" width="8.23" height="2" rx="1" ry="1" transform="translate(-28.14 182.53) rotate(-68.62)"/><rect class="cls-9" x="58.63" y="153.92" width="3.82" height="6.67" rx="1.91" ry="1.91"/><rect class="cls-9" x="61.69" y="153.26" width="3.82" height="8" rx="1.91" ry="1.91"/><rect class="cls-9" x="64.75" y="153.26" width="3.82" height="8" rx="1.91" ry="1.91"/><rect class="cls-9" x="67.81" y="153.26" width="3.82" height="8" rx="1.91" ry="1.91"/><ellipse class="cls-9" cx="65.13" cy="155.26" rx="6.5" ry="5"/><path class="cls-19" d="M44.63,170c4.4,0,4.4,2,8.8,2s4.4-2,8.8-2,4.4,2,8.8,2,4.4-2,8.8-2,4.4,2,8.8,2" transform="translate(0 -1.74)"/><path class="cls-19" d="M44.63,179.5c4.4,0,4.4,2,8.8,2s4.4-2,8.8-2,4.4,2,8.8,2,4.4-2,8.8-2,4.4,2,8.8,2" transform="translate(0 -1.74)"/><path class="cls-19" d="M44.63,189c4.4,0,4.4,2,8.8,2s4.4-2,8.8-2,4.4,2,8.8,2,4.4-2,8.8-2,4.4,2,8.8,2" transform="translate(0 -1.74)"/><path class="cls-19" d="M44.63,198.5c4.4,0,4.4,2,8.8,2s4.4-2,8.8-2,4.4,2,8.8,2,4.4-2,8.8-2,4.4,2,8.8,2" transform="translate(0 -1.74)"/><path class="cls-19" d="M44.63,208c4.4,0,4.4,2,8.8,2s4.4-2,8.8-2,4.4,2,8.8,2,4.4-2,8.8-2,4.4,2,8.8,2" transform="translate(0 -1.74)"/><path class="cls-17" d="M68,191.41h59a5.54,5.54,0,0,1,5.38,6.87l-8,32.08V232a4.75,4.75,0,0,1-4.75,4.75H75A4.75,4.75,0,0,1,70.22,232v-1.64l-7.6-32.15A5.54,5.54,0,0,1,68,191.41Z" transform="translate(0 -1.74)"/><path class="cls-12" d="M93.78,211.62c0,1.36,1.67,2.46,3.72,2.46s3.73-1.1,3.73-2.46-1.67-2.45-3.73-2.45S93.78,210.26,93.78,211.62Z" transform="translate(0 -1.74)"/><path class="cls-7" d="M135.63,153s-6.42,22.4,15.79,28.2c0,0,10.23-23,9.22-22.59C160.64,158.61,139.63,152,135.63,153Z" transform="translate(0 -1.74)"/></g><path class="cls-20" d="M174,35H144.75A10.45,10.45,0,0,0,134.3,45.43V74.72a10.45,10.45,0,0,0,10.44,10.44H174a10.45,10.45,0,0,0,10.44-10.44V45.45A10.45,10.45,0,0,0,174,35Zm7.12,39.72A7.14,7.14,0,0,1,174,81.87H144.74a7.14,7.14,0,0,1-7.14-7.14V45.43a7.13,7.13,0,0,1,7.14-7.12H174a7.13,7.13,0,0,1,7.13,7.12Z" transform="translate(0 -1.74)"/><path class="cls-20" d="M181.16,45.44V74.73A7.14,7.14,0,0,1,174,81.87H144.74a7.15,7.15,0,0,1-7.14-7.14V45.43a7.13,7.13,0,0,1,7.14-7.12H174A7.13,7.13,0,0,1,181.16,45.44Z" transform="translate(0 -1.74)"/><path class="cls-20" d="M100.82,6H74a9.58,9.58,0,0,0-9.57,9.57V42.42A9.59,9.59,0,0,0,74,52h26.86a9.57,9.57,0,0,0,9.57-9.56V15.58A9.59,9.59,0,0,0,100.82,6Zm6.53,36.43A6.56,6.56,0,0,1,100.8,49H74a6.55,6.55,0,0,1-6.55-6.55V15.56A6.54,6.54,0,0,1,74,9h26.84a6.54,6.54,0,0,1,6.55,6.53Z" transform="translate(0 -1.74)"/><path class="cls-21" d="M107.36,15.57V42.43A6.56,6.56,0,0,1,100.8,49H74a6.56,6.56,0,0,1-6.55-6.55V15.56A6.54,6.54,0,0,1,74,9h26.85A6.53,6.53,0,0,1,107.36,15.57Z" transform="translate(0 -1.74)"/><path class="cls-20" d="M142.8,1.75H129.22a4.84,4.84,0,0,0-4.84,4.84V20.15A4.84,4.84,0,0,0,129.21,25h13.58a4.85,4.85,0,0,0,4.84-4.84V6.59A4.84,4.84,0,0,0,142.8,1.75Zm3.3,18.41a3.32,3.32,0,0,1-3.31,3.31H129.22a3.31,3.31,0,0,1-3.31-3.31V6.58a3.31,3.31,0,0,1,3.31-3.3h13.57a3.31,3.31,0,0,1,3.31,3.31Z" transform="translate(0 -1.74)"/><path class="cls-21" d="M146.1,6.59V20.16a3.31,3.31,0,0,1-3.3,3.31H129.22a3.31,3.31,0,0,1-3.31-3.31V6.58a3.31,3.31,0,0,1,3.31-3.3h13.57A3.31,3.31,0,0,1,146.1,6.59Z" transform="translate(0 -1.74)"/></g></g></svg>