 <svg xmlns="http://www.w3.org/2000/svg" xmlns:xlink="http://www.w3.org/1999/xlink" viewBox="0 0 433 488"><defs><style>.cls-1{fill:#f99082;}.cls-2{fill:#f4564a;}.cls-3{fill:#f6ae90;}.cls-4{fill:#aadef7;}.cls-5{fill:#ffc35a;}.cls-6{fill:#638fa5;}.cls-7{fill:#fdd977;}.cls-8{fill:#f9b04e;}.cls-9{fill:#58bdb6;}.cls-10{fill:#f4ca98;}.cls-11{fill:#efa183;}.cls-12{fill:#5b5b5b;opacity:0.1;}.cls-13{fill:#80cebb;}.cls-14{fill:#a3e1d3;}.cls-15{fill:url(#linear-gradient);}.cls-16{fill:#74d9c5;}.cls-17{fill:#2c7a93;}.cls-18{fill:#fff;}.cls-19{fill:#999;}.cls-20{fill:#ffd6a0;}.cls-21{fill:#33213d;}.cls-22{fill:#ccc;}.cls-23{fill:#2cc4a7;}.cls-24{fill:#f2f2f2;}.cls-25{fill:#1caee4;}.cls-26{fill:#ef5a9d;}.cls-27{fill:#fede3a;}.cls-28{fill:#009add;}.cls-29{fill:#e43d91;}.cls-30{fill:#f7cb15;}.cls-31{fill:#6fbca8;}.cls-32{fill:#ef6a67;}.cls-33{fill:#b78c62;}.cls-34{fill:#000a3a;}</style><linearGradient id="linear-gradient" x1="-1235.78" y1="376.76" x2="-1133.48" y2="319.62" gradientTransform="matrix(-0.99, 0.15, 0.15, 0.99, -1153.81, 208.54)" gradientUnits="userSpaceOnUse"><stop offset="0" stop-color="#80c79c"/><stop offset="1" stop-color="#2cc4a7"/></linearGradient></defs><g id="圖層_2" data-name="圖層 2"><g id="圖層_1-2" data-name="圖層 1"><path class="cls-1" d="M398.83,256.6S422,271,420.37,283.13s-20.71,10-36.55-5.4S398.83,256.6,398.83,256.6Z"/><path class="cls-2" d="M374.73,241.76l-.83,3.57a2.29,2.29,0,0,0,2.23,2.81h0a2.3,2.3,0,0,0,2.29-2.41l-.34-6.47Z"/><path class="cls-3" d="M370.52,233.48c-1,3-1.75,6.28-.83,7.53.69.93,2.23,1.45,4.36,1.79a3.48,3.48,0,0,0,4-2.72h0a1.78,1.78,0,0,0,2.17-.74c.52-1,.33-2.85-.58-3a1.75,1.75,0,0,0-.79,0l.11-.48a17.1,17.1,0,0,1-7.7-3.91A7.73,7.73,0,0,0,370.52,233.48Z"/><path class="cls-1" d="M420.37,289.63a.2.2,0,0,1-.19-.12.22.22,0,0,1,.09-.3c4.22-2.16,2.47-11.4,2.46-11.5a.22.22,0,0,1,.17-.26.23.23,0,0,1,.26.18c.08.39,1.83,9.67-2.69,12Z"/><path class="cls-1" d="M321.63,233.38a.24.24,0,0,1-.19-.11c-11.58-19.27-10.51-46-10.5-46.25a.23.23,0,0,1,.23-.21h0a.23.23,0,0,1,.21.23c0,.27-1.08,26.85,10.43,46a.23.23,0,0,1-.07.31Z"/><path class="cls-4" d="M347.48,358.09a15.66,15.66,0,0,1-31.32,0V355c1.38-2.93-.51-5.34-4.19-5.34H294.49a6.7,6.7,0,0,0-6.68,6.69v16.62c0,3.68-2.07,5.9-4.59,4.94h-2.59a15.66,15.66,0,1,0,0,31.32h2.59c2.52-1,4.59,1.26,4.59,4.94V431a6.7,6.7,0,0,0,6.68,6.68H312c3.68,0,5.57-2.4,4.19-5.34v-3.12a15.66,15.66,0,0,1,15.66-15.66c8.65,0,15.37,7,15.66,15.66a21.35,21.35,0,0,1,0,3.12c-1.38,2.94.51,5.34,4.19,5.34h17.48a6.71,6.71,0,0,0,6.69-6.68V356.31a6.71,6.71,0,0,0-6.69-6.69H351.67c-3.68,0-5.57,2.4-4.19,5.34Z"/><path class="cls-5" d="M372.5,488,366,463.93h48.93a3.07,3.07,0,0,0,.53-.05L422,488h5.41L360.3,239.41a2.62,2.62,0,0,0-2.68-1.93,2.36,2.36,0,0,0-.52.09,2.6,2.6,0,0,0-1.93,2.63v.05a3.12,3.12,0,0,0,.08.52l.56,2,.7,2.61H307.12l-1.62-6a2.26,2.26,0,0,0-.17-.43s0,0,0-.06a.35.35,0,0,0-.05-.08,2.58,2.58,0,0,0-2.77-1.3l-.2,0a2.61,2.61,0,0,0-1.84,3.2l.21.76L327.15,340a2.59,2.59,0,0,0,.29,1.08l8,29.69a2.69,2.69,0,0,0,.22.81l12.87,47.82a2.39,2.39,0,0,0,.2.49L367.09,488Zm-64-237.34h49a2.09,2.09,0,0,0,.35,0L364.77,276h-49.4Zm8.25,30.6h49.4L373,306.63h-49.4ZM325,311.85h48.87a3.07,3.07,0,0,0,.53-.05l6.86,25.43H331.86Zm8.25,30.6h49.42l6.85,25.37H340.11Zm15.08,55.95-6.83-25.35H391l6.84,25.35Zm1.41,5.22H399.2l4.24,15.73,0,.08,2.34,8.68H356.36Zm8,29.72h49.45l6.85,25.37H364.61Z"/><path class="cls-6 puzzle-blue" d="M314.49,80.18,316.7,78c3.05-1.11,3.42-4.14.82-6.74L305.16,58.86a6.71,6.71,0,0,0-9.46,0L283.79,70.77c-2.6,2.6-5.63,2.71-6.73.25l-1.83-1.83a15.66,15.66,0,0,0-22.15,22.14l1.83,1.84c2.47,1.1,2.36,4.13-.24,6.73l-11.76,11.75a6.71,6.71,0,0,0,0,9.46l52.79,52.8a6.71,6.71,0,0,0,9.46,0L358,121.11a6.7,6.7,0,0,0,0-9.45L345.59,99.29c-2.6-2.6-5.64-2.23-6.74.82l-2.21,2.21a15.66,15.66,0,0,1-22.15-22.14Z"/><path class="cls-6" d="M205.85,226.77H209c2.94,1.38,5.35-.51,5.35-4.19V205.1a6.71,6.71,0,0,0-6.69-6.69H190.79c-3.68,0-5.65-1.44-4.69-4a18.28,18.28,0,0,1-.14-3.17,15.71,15.71,0,0,0-31.42,0v2.6c1,2.52-1.25,4.59-4.93,4.59H133a6.71,6.71,0,0,0-6.69,6.69v74.66a6.71,6.71,0,0,0,6.69,6.69h74.65a6.71,6.71,0,0,0,6.69-6.69V262.28c0-3.68-2.41-5.57-5.35-4.19h-3.12a15.66,15.66,0,0,1,0-31.32Z"/><path class="cls-7 puzzle-yellow" d="M140.15,45.41l-2.21-2.21c-1.1-3.05-4.14-3.42-6.74-.82L118.84,54.74a6.71,6.71,0,0,0,0,9.46l11.91,11.91c2.6,2.6,2.71,5.63.24,6.73l-1.83,1.83a15.66,15.66,0,0,0,22.15,22.15l1.83-1.83c1.1-2.47,4.13-2.36,6.73.24L171.63,117a6.71,6.71,0,0,0,9.46,0L233.88,64.2a6.71,6.71,0,0,0,0-9.46L181.09,2a6.71,6.71,0,0,0-9.46,0L159.27,14.31c-2.6,2.6-2.24,5.64.82,6.74l2.21,2.21a15.66,15.66,0,1,1-22.15,22.15Z"/><path class="cls-8" d="M335.36,305l-2.21-2.21c-1.11-3.05-4.14-3.42-6.74-.82L314,314.36a6.7,6.7,0,0,0,0,9.45L326,335.72c2.6,2.6,2.71,5.64.25,6.74l-1.83,1.83a15.66,15.66,0,1,0,22.14,22.14l1.84-1.83c1.1-2.46,4.13-2.35,6.73.25l11.75,11.75a6.71,6.71,0,0,0,9.46,0l52.79-52.79a6.7,6.7,0,0,0,0-9.45l-52.79-52.8a6.71,6.71,0,0,0-9.46,0l-12.36,12.37c-2.6,2.6-2.23,5.63.82,6.74l2.21,2.2A15.66,15.66,0,1,1,335.36,305Z"/><path class="cls-9 puzzle-green" d="M186,120.28a15.66,15.66,0,0,1-31.32,0v-3.13c1.37-2.94-.51-5.34-4.19-5.34H133a6.71,6.71,0,0,0-6.69,6.69v16.63c0,3.68-2.07,5.9-4.59,4.93h-2.59a15.67,15.67,0,0,0,0,31.33h2.59c2.52-1,4.59,1.25,4.59,4.93v16.84a6.71,6.71,0,0,0,6.69,6.69h17.48c3.68,0,5.56-2.41,4.19-5.35v-3.12a15.68,15.68,0,0,1,15.66-15.66c8.65,0,15.37,7,15.66,15.66a21.47,21.47,0,0,1,0,3.13c-1.37,2.94.51,5.34,4.19,5.34h17.48a6.71,6.71,0,0,0,6.69-6.69V118.49a6.71,6.71,0,0,0-6.69-6.69H190.15c-3.68,0-5.56,2.4-4.19,5.34Z"/><path class="cls-10" d="M373,246.63s-18.36,1.51-36.37-26.53C328.73,207.76,320.94,173,320.94,173l-8.15-.26s-.33,20,6.7,46.11c6.65,24.66,30,43.45,44.43,46.23Z"/><path class="cls-11" d="M271.57,206.88a15.66,15.66,0,0,1-31.32,0v-3.12c1.38-2.94-.51-5.35-4.19-5.35H218.58a6.71,6.71,0,0,0-6.69,6.69v16.63c0,3.67-2.06,5.9-4.58,4.93h-2.6a15.66,15.66,0,0,0,0,31.32h2.59c2.52-1,4.58,1.26,4.58,4.94v16.84a6.71,6.71,0,0,0,6.69,6.69h17.48c3.68,0,5.57-2.41,4.19-5.35V278a15.66,15.66,0,0,1,31.32,0v3.12c-1.38,2.94.51,5.35,4.19,5.35h17.48a6.71,6.71,0,0,0,6.68-6.69V205.1a6.71,6.71,0,0,0-6.68-6.69H275.76c-3.68,0-5.57,2.41-4.19,5.35Z"/><path class="cls-12" d="M306.2,435.08c-30.55-2.09-62.88-1.91-93.51-.41-16.32.8-32.56,2.13-48.4,4.28l-2.53.34c-10.66.53-21.23,1.52-31.34,2.6-19,2-42.39,8.21-40.66,19.7,1.85,12.34,32.91,16.16,52.71,17.43,28.67,1.83,57.48-.78,85.81-2.83,15.59-1.13,31.29-2.16,47.07-2.25s31.95,1.48,47.66.08c19.95-1.77,38.08-9.59,33.23-20.52C351,441.78,327.9,436.57,306.2,435.08Z"/><path class="cls-13" d="M60.66,237.42c4.11-2.54,9.24-1.94,13.8-1.3,19.79,2.77,37.68,12.59,52.6,25.63,31.29,27.35,52.69,66.77,64.17,106.33a256,256,0,0,1,10.21,69.72l-3.71.94-.44.11-.9.23c-.92.21-1.83.44-2.75.64-2.16.49-4.34.91-6.54,1.22a61.12,61.12,0,0,1-6.89.55h-.29l-.95-.06-2.16,0-1.41-.05c-1.74-.07-3.47-.18-5.2-.34Q158.57,432.2,147,423.3a215,215,0,0,0-13.93-32.86C113.17,352.86,83.25,321.25,66.27,282A146,146,0,0,1,56.78,252C55.73,246.56,55.34,240.69,60.66,237.42Z"/><path class="cls-14" d="M63.31,241.76A128.63,128.63,0,0,1,85.7,259.17c-1.26-6-2.45-12.28-2.39-18.29,0-1,1.38-.79,1.6,0,2,7.16,2.82,14.7,4.51,22a210.76,210.76,0,0,1,16.06,18.5c-1.48-10.8-2.61-22.13-1.43-32.89a.9.9,0,0,1,1.78,0c1,12.21,1.19,24.29,3.23,36.42a1.39,1.39,0,0,1-.19,1,253,253,0,0,1,14.68,22.4q-.3-10-.58-20.07c-.23-8.58-.7-17.21,0-25.77a.77.77,0,0,1,1.53,0c1.11,8.61,1.13,17.35,1.46,26s.71,17.27,1.07,25.9q4.1,7.38,7.81,14.95c.56-7.28,1.21-14.56,2-21.82,1-8.65,1.38-17.65,3.13-26.17.13-.63,1.21-.74,1.21,0,.07,8.59-1.11,17.31-1.65,25.89q-.84,13.49-2,27a1.18,1.18,0,0,1-.16.49c5.61,11.78,10.7,23.82,15.34,36q2-14.92,4-29.86c1.51-11,2.33-22.54,4.89-33.41a.78.78,0,0,1,1.55.21c-.33,11.16-2.49,22.47-3.89,33.53s-2.85,22.33-4.25,33.49a1.47,1.47,0,0,1-.51.89q3,8.17,5.82,16.42,3.6,10.65,6.71,21.47c2.75-9.73,5.36-19.48,7.6-29.33q1.83-8,3.45-16c1.08-5.38,1.77-10.93,3.28-16.21.21-.71,1.21-.33,1.19.32-.25,5.82-1.62,11.68-2.66,17.4q-1.52,8.35-3.3,16.65c-2.37,11-4.95,21.91-8,32.72q3,11.1,5.41,22.36c-1,0-1.93-.12-2.89-.19q-2.43-11.1-5.5-22-14.05-10.37-28.09-20.77a1.51,1.51,0,0,1,1.82-2.41q12.47,9.19,24.91,18.42-2.24-7.64-4.73-15.18c-2.7-8.18-5.56-16.38-8.62-24.53-13.43-7.1-26.8-14.31-40.19-21.48-1.59-.84-.54-3.47,1.07-2.61,12.54,6.67,25.09,13.31,37.59,20-4.66-12.15-9.78-24.18-15.5-35.89-6.42-2.88-13.36-4.32-20.21-5.83-7.77-1.7-15.56-3.34-23.34-5-1.64-.35-1.31-3,.34-2.61,8.2,1.79,16.39,3.59,24.6,5.34,5.6,1.19,11.22,2.18,16.6,4.05q-3.71-7.35-7.75-14.51Q101.32,308.49,78,302.49c-2.26-.59-1.81-4.25.48-3.65q21.83,5.69,43.2,12.89-6.77-11.5-14.56-22.29-1.41-1.94-2.86-3.84c-12.85-4.19-25.95-7.39-39.1-10.48-2.26-.53-1.79-4.16.47-3.6,11.78,2.94,23.6,5.86,35.14,9.61a194.16,194.16,0,0,0-14-15.68l-.3-.29c-3.61-1.31-7.61-1.5-11.38-2-4.67-.62-9.34-1.28-14-1.93-2.21-.31-1.76-3.76.45-3.43,5.08.75,10.17,1.49,15.25,2.28,1.71.26,3.44.49,5.15.8a233.24,233.24,0,0,0-20.68-16.43C59.5,243.14,61.5,240.67,63.31,241.76Z"/><path class="cls-14" d="M185.57,441.13c-.87.09-1.74.17-2.62.23.82-2.75,1.64-5.5,2.48-8.25,3.16-10.35,6.11-21,10.34-31,.28-.66,1.47-.41,1.28.34-2.52,10-6,19.78-8.92,29.68Q186.83,436.63,185.57,441.13Z"/><path class="cls-15" d="M156.34,448.39c-.76-11.58,2.68-22.93,9.09-33,2.53-4,5.37-7.8,8.21-11.58,1.37-1.82,2.75-3.64,4.12-5.47.61-.81,1.21-1.64,1.82-2.45-1.26,1.68.72-1,1-1.47a78.91,78.91,0,0,0,6.07-10.15,31.17,31.17,0,0,0-14.06-1.47,53.26,53.26,0,0,0-8.75,1.79,63.78,63.78,0,0,1-7.25,2.1,6,6,0,0,1-3.27-.13c.08,0-.34-.67-.3-.46a7.36,7.36,0,0,1,.39-3.05c1.34-5.48,2.46-10.39-.27-15.67A15.79,15.79,0,0,0,139.78,359c-5.08-.23-9.74,2-14.5,3.37-4,1.14-7,.78-10-2.1-3.27-3.19-5.41-7.35-8.2-10.93-6.57-8.41-15.8-16.22-26.28-19.09-6-1.64-12.19-.83-17,3.25-3.51,3-5.37,7.87-9.27,10.34-1.75,1.11-3,.61-4.75-.3a86.8,86.8,0,0,0-8.3-3.86c-5.41-2.08-11.42-3-17.11-1.55-10.51,2.69-17.29,13.31-12.9,23.75,2.24,5.34,6.32,9.37,11.21,12.38,4.5,2.77,9.5,4.56,14.1,7.15,3.72,2.1,7.72,5,9,9.25,1.68,5.48,1,11.19,3.5,16.52,4.79,10.4,15.14,14.54,26,14.74,8,.15,20.26-2.25,26,5.07,3.07,3.9,3,9.64,4.87,14.1a22.43,22.43,0,0,0,10.06,11,23.49,23.49,0,0,0,15,2.29c5.76-.94,11-3.53,16.55-5.09A23,23,0,0,1,156.34,448.39Z"/><path class="cls-16" d="M15.53,349.6c14,7.66,28.31,14.56,42.81,21.13q9.89,4.47,19.84,8.79a.53.53,0,0,1-.08-.38c1.29-8.34-1.1-16.91-3.4-24.89a58.65,58.65,0,0,0-4-10.72c-1.7-3.28-4.14-5.77-6.27-8.72-.52-.72.47-1.76,1.21-1.26,3.09,2.08,5.32,6,6.93,9.26a57.09,57.09,0,0,1,4,10.9c2.15,8.29,4.42,17.17,2.69,25.71a.47.47,0,0,1-.36.4l10.47,4.57c2-4.2,1.32-9.49.79-14a66.33,66.33,0,0,0-3.22-13.9,67.57,67.57,0,0,0-6.25-13.27c-2.41-3.93-5.37-7.38-8.11-11.07-.47-.63.48-1.26,1-.81,7.47,6.37,12.54,16.5,15.52,25.7a69.48,69.48,0,0,1,3,14.84c.38,4.21.85,9.28-1.45,13l10,4.39a24.84,24.84,0,0,0,.8-7c.08-2.44,0-4.88-.13-7.31a75.68,75.68,0,0,0-2.55-14.94,77.66,77.66,0,0,0-13.7-26.69c-.6-.78.71-1.81,1.34-1.07a72.63,72.63,0,0,1,14.4,28.76A73.5,73.5,0,0,1,103,376.89a64.74,64.74,0,0,1-.27,8.47,13.42,13.42,0,0,1-1,4.48c11.13,4.9,22.22,9.9,33.15,15.23,9.47,4.61,18.82,9.46,28,14.67-.15.28-.29.56-.43.84-.4.79-.8,1.58-1.16,2.38a21.89,21.89,0,0,1-5.95,4.55c-4,2.34-8.18,4.44-12.38,6.41-8.43,4-17.38,7.8-26.53,9.67a.32.32,0,0,1-.18-.61c8.47-3.22,17-6,25.21-9.87,4-1.92,8-4,11.85-6.25a35.63,35.63,0,0,0,4.1-2.68,21.15,21.15,0,0,0,3.24-3.53q-3.32-1.84-6.65-3.63a.83.83,0,0,1-.08.45c-1.35,2.92-4.24,4.42-6.92,5.93q-5.17,2.94-10.59,5.41a130.19,130.19,0,0,1-21.79,7.6.43.43,0,0,1-.24-.83A144.5,144.5,0,0,0,134.9,428q4.82-2.2,9.46-4.8c3-1.67,6.49-3.31,8.07-6.51a.87.87,0,0,1,.27-.32c-20.5-10.87-41.79-20.22-63.06-29.47-13.76-6-27.54-12-41.14-18.31l-.07.06a39.76,39.76,0,0,1-22.67,3.55c-.36-.06-.28-.63.07-.63a55.79,55.79,0,0,0,21.05-3.73l-6.54-3.1a52.74,52.74,0,0,1-20.67,2.14c-.59-.06-.64-1,0-1a61.73,61.73,0,0,0,18.76-2.12c-8.06-3.91-16.06-8-23.92-12.29A1.07,1.07,0,0,1,15.53,349.6Z"/><path class="cls-16" d="M124.35,448.55a140,140,0,0,0,33.57-16.22c-.21.81-.41,1.63-.58,2.44a114.67,114.67,0,0,1-32.78,14.49A.37.37,0,0,1,124.35,448.55Z"/><path class="cls-17" d="M138.79,366.76c-2.58-6.16-5.11-12.34-7.51-18.57-2.24-5.85-4.14-11.86-6.6-17.62-.18-.43-.84-.12-.74.31,1.62,6.37,4.11,12.6,6.39,18.76q3,8.1,6.23,16.09l-.39-.38A224.74,224.74,0,0,0,117,349h0c-2.49-6.34-5.27-12.58-8.16-18.76q-2.18-4.67-4.52-9.26a78.8,78.8,0,0,0-5.12-9.38c-.22-.32-.85-.14-.68.28,1.2,3.11,2.91,6.05,4.37,9s2.85,6,4.22,9c2.54,5.59,4.86,11.27,7.11,17q-5.48-4.08-11.14-7.92-4.38-3-8.85-5.79a.83.83,0,0,0-.08-.62Q89,323.66,83.89,314.78c-3.39-5.86-6.5-12.12-10.44-17.64a.48.48,0,0,0-.83.48c2.76,6.18,6.58,12,9.92,17.93l9,15.91c-6.74-4.18-13.62-8.13-20.66-11.76a1,1,0,0,0-.1-.3q-4.43-6.91-9-13.75c-2.9-4.34-5.53-9-8.72-13.12-.28-.35-.75.1-.59.45,2.29,4.76,5.4,9.27,8.11,13.8q3.43,5.72,7.06,11.29-4.57-2.28-9.27-4.35-5-6.06-10-12.13c-3.36-4.07-6.58-8.28-10.27-12-.37-.37-1,.12-.74.57a145.9,145.9,0,0,0,9.48,12.45q3.83,4.76,7.67,9.5a154.54,154.54,0,0,0-15.35-5.44.81.81,0,0,0-.26-.55C33.48,301,29,295.19,24,289.67c-.42-.46-1.17.14-.86.66C26.51,296,31.22,301,35.91,305.7a128.39,128.39,0,0,0-14.57-3c-3.48-2.89-6.66-6.23-10.25-9-.39-.3-1.14.11-.77.6a52.85,52.85,0,0,0,7.88,7.95A78.14,78.14,0,0,0,1,302.08c-1.28.14-1.34,2.06,0,2a145.36,145.36,0,0,1,16,.34c-.94.48-1.86,1-2.79,1.51-2.74,1.49-5.47,3-8.21,4.5a1.06,1.06,0,0,0,1.05,1.83c2.49-1.4,5-2.8,7.47-4.22a33,33,0,0,1,6.25-3.21l.24,0a118.63,118.63,0,0,1,12.54,2.44c-7,2.43-13.75,5.36-20.53,8.27-1.3.56-.19,2.49,1.1,1.92,7.49-3.34,15-6.62,22.74-9.32.94.26,1.87.53,2.8.81,5.15,1.55,10.22,3.39,15.22,5.43-8.64,2.93-17.19,6.12-25.61,9.64-1.32.55-.2,2.49,1.11,1.94q13.47-5.65,27.3-10.41,4.57,2,9.07,4.16a84.78,84.78,0,0,0-9.5,4.14c-4.61,2.17-9.23,4.31-13.85,6.46-.93.44-.13,1.82.79,1.39,4.38-2.06,8.74-4.12,13.12-6.16A62.79,62.79,0,0,1,69.25,321c7.07,3.56,14,7.49,20.68,11.65-8.51,1.34-17,2.75-25.53,4.13-1.09.18-.64,1.83.44,1.66,9.1-1.46,18.21-2.89,27.31-4.4q6.7,4.23,13.19,8.68,4,2.73,7.86,5.6-9.4.12-18.8.26a.92.92,0,0,0,0,1.83l21.19-.29a226.88,226.88,0,0,1,18.06,15.12q-9.54-2.3-19.17-4.15c-1.09-.21-1.54,1.46-.44,1.68q11.1,2.12,22.07,4.82c.63.62,1.28,1.23,1.91,1.86a175,175,0,0,1,13.69,15.25c.87,1.09,1.71,2.2,2.53,3.34-2.79-1.4-5.63-2.71-8.52-3.9Q143,383,140.26,382c-1.17-.43-2.47-1.25-3.7-.73a.9.9,0,0,0-.41,1l0,.24a.87.87,0,0,0,.84.64h.19a.82.82,0,0,0,.51-.19,17.53,17.53,0,0,1,1.71.69c.71.25,1.42.5,2.12.77,1.8.67,3.59,1.39,5.36,2.14,3.19,1.36,6.31,2.85,9.39,4.44a44.63,44.63,0,0,1,5.27,10.82.45.45,0,0,0,.86-.23,40,40,0,0,0-4.8-11,.84.84,0,0,0,0-.5,165.18,165.18,0,0,0-9.52-30.68c-.17-.39-.8-.11-.68.28,2.83,9.06,5.61,18,7.75,27.24q-1.4-1.95-2.89-3.84a171.7,171.7,0,0,0-13.7-15.33A1,1,0,0,0,138.79,366.76Z"/><rect class="cls-18" x="151.59" y="245.2" width="159.31" height="210.78"/><path class="cls-19" d="M309.87,322.78c.56-26.59,32.75-29.92,44.43-31.38a7.22,7.22,0,0,0,2.78-.94c3.74,4.45,11.9,9,21.34,10.13,7.11.82,14.63-2.62,17.53-4.13C410.58,326,406.88,387,406.88,395c0,12.53,1.48,57,1.48,57H395.31c-.52.47-6.28-16.24-12.81-59.34-3.35-22.11-5.84-41.41-7.25-52.87A16.83,16.83,0,0,0,359.56,325c-5.52-.35-25.93-3.77-25,4.53,1.08,9.72,31,60.2,31,60.2-5,.1-12.59,0-12.59,0S309.23,353.27,309.87,322.78Z"/><path class="cls-1" d="M378.42,300.59c-9.44-1.09-17.6-5.68-21.34-10.13a7.18,7.18,0,0,0,3.11-3.64c1.5-3.86,2.78-8,2.36-10.92-1.49-10.37-5-14-2.33-20.55,3.75-9.07,14.51-10,14.51-10h3.17s13.13,2.44,15,13.27c1,5.88-3.49,13.91-3.64,15.69-.49,5.87-1.41,9.29,2.91,15.86.17.27.33.52.52.79a45.28,45.28,0,0,1,3.23,5.54C393.05,298,385.53,301.41,378.42,300.59Z"/><path class="cls-20" d="M356.73,394.16c2.12-1.23,6.92-3,8.12-4.39H352.93s-3.09,4.78-4.89,5.89h3A11.26,11.26,0,0,0,356.73,394.16Z"/><path class="cls-21" d="M365.52,389.77h-.85a4.65,4.65,0,0,0-3,1.08,37.54,37.54,0,0,1-5,3.31,11.25,11.25,0,0,1-5.63,1.5h-3a1.46,1.46,0,0,1-.3.16c-1.74.71-3.79,1-4.66,4h8.7a7.06,7.06,0,0,0,4.58-1.69L360,395.1a1.21,1.21,0,0,1,1.41-.12,1.24,1.24,0,0,1,.58,1.08v3.79H364S367.1,392,365.52,389.77Z"/><path class="cls-20" d="M399.12,456.35c2.12-1.22,6.92-3,8.12-4.39H395.32s-3.09,4.78-4.89,5.9h3.05A11.27,11.27,0,0,0,399.12,456.35Z"/><path class="cls-21" d="M407.91,452h-.85a4.63,4.63,0,0,0-3,1.09,38.21,38.21,0,0,1-5,3.31,11.22,11.22,0,0,1-5.63,1.5h-3.05l-.29.16c-1.74.71-3.8,1-4.67,4h8.7a7.09,7.09,0,0,0,4.59-1.69l3.6-3.07a1.22,1.22,0,0,1,2,1v3.79h2.05S409.49,454.21,407.91,452Z"/><path class="cls-22" d="M397.79,446.46a.43.43,0,0,1-.42-.3c-4.76-14.08-11.82-68.93-11.89-69.49a.44.44,0,0,1,.88-.11c.07.55,7.12,55.32,11.85,69.32a.45.45,0,0,1-.28.56A.36.36,0,0,1,397.79,446.46Z"/><path class="cls-22" d="M353.84,386.17a.44.44,0,0,1-.29-.11,150.67,150.67,0,0,1-37.18-47.67.44.44,0,0,1,.23-.59.44.44,0,0,1,.58.23,149.63,149.63,0,0,0,36.94,47.35.44.44,0,0,1,.05.63A.44.44,0,0,1,353.84,386.17Z"/><path class="cls-23" d="M306.32,333.65a.21.21,0,0,1-.21-.17c-1.88-7.45-3.41-16.15,2.23-25.16.93-1.49,5.07-5.14,5.24-5.3a.22.22,0,0,1,.31,0,.22.22,0,0,1,0,.32s-4.26,3.76-5.15,5.19c-5.55,8.87-4,17.46-2.18,24.82a.22.22,0,0,1-.16.27Z"/><path class="cls-24" d="M230.62,393.13H198.34a2.45,2.45,0,0,1,0-4.89h32.28a2.45,2.45,0,1,1,0,4.89Z"/><path class="cls-25" d="M189,393.13a2.45,2.45,0,1,1,2.45-2.45A2.45,2.45,0,0,1,189,393.13Z"/><path class="cls-24" d="M212,407h-13.7a2.45,2.45,0,0,1,0-4.89H212a2.45,2.45,0,0,1,0,4.89Z"/><path class="cls-24" d="M235.09,407H221.4a2.45,2.45,0,1,1,0-4.89h13.69a2.45,2.45,0,1,1,0,4.89Z"/><path class="cls-24" d="M252.49,393.36H238.8a2.45,2.45,0,0,1,0-4.9h13.69a2.45,2.45,0,0,1,0,4.9Z"/><path class="cls-26" d="M189,407a2.45,2.45,0,1,1,2.45-2.44A2.45,2.45,0,0,1,189,407Z"/><path class="cls-24" d="M243.53,420.93H198.34a2.45,2.45,0,0,1,0-4.89h45.19a2.45,2.45,0,1,1,0,4.89Z"/><path class="cls-27" d="M189,420.93a2.45,2.45,0,1,1,2.45-2.44A2.45,2.45,0,0,1,189,420.93Z"/><path class="cls-24" d="M227.65,434.83H198.34a2.45,2.45,0,0,1,0-4.89h29.31a2.45,2.45,0,0,1,0,4.89Z"/><path class="cls-24" d="M273.64,407.49h-29.3a2.45,2.45,0,0,1,0-4.9h29.3a2.45,2.45,0,0,1,0,4.9Z"/><path class="cls-24" d="M279.85,421.16h-29.3a2.45,2.45,0,0,1,0-4.9h29.3a2.45,2.45,0,1,1,0,4.9Z"/><path class="cls-25" d="M189,434.83a2.45,2.45,0,1,1,2.45-2.44A2.45,2.45,0,0,1,189,434.83Z"/><path class="cls-25" d="M231.69,311.8a28.91,28.91,0,1,0,28.91,28.91,28.91,28.91,0,0,0-28.91-28.91Zm0,45.51a16.6,16.6,0,1,1,16.6-16.6A16.61,16.61,0,0,1,231.69,357.31Z"/><path class="cls-28" d="M231.69,320a20.73,20.73,0,1,0,20.73,20.73A20.73,20.73,0,0,0,231.69,320Zm0,37.33a16.6,16.6,0,1,1,16.6-16.6A16.61,16.61,0,0,1,231.69,357.31Z"/><path class="cls-26" d="M248.29,340.71a16.51,16.51,0,0,1-4.06,10.87l9.31,8.06a28.83,28.83,0,0,0,7.06-18.93Z"/><path class="cls-29" d="M248.29,340.92V341s0,.09,0,.14v.21a.25.25,0,0,1,0,.08v.32s0,.06,0,.09v.2a.49.49,0,0,0,0,.12s0,.06,0,.09a.49.49,0,0,0,0,.12.19.19,0,0,0,0,.08s0,.09,0,.14a.13.13,0,0,0,0,.06l0,.2v0c0,.05,0,.11,0,.16s0,.05,0,.08,0,.08,0,.12,0,0,0,.08a.5.5,0,0,0,0,.12v.08a.5.5,0,0,0,0,.12.19.19,0,0,0,0,.08s0,.07,0,.11,0,.06,0,.09l0,.11s0,.05,0,.08l0,.12s0,.05,0,.07l0,.13s0,0,0,.07l0,.14a.09.09,0,0,0,0,.05c0,.06,0,.13,0,.19l0,.06,0,.13s0,.05,0,.07l0,.12a.25.25,0,0,0,0,.07.56.56,0,0,0,0,.12s0,.05,0,.08a.76.76,0,0,1,0,.11.31.31,0,0,1,0,.08l0,.1,0,.08,0,.11,0,.08,0,.11a.19.19,0,0,0,0,.07,1.17,1.17,0,0,1,0,.11.64.64,0,0,1,0,.07l-.14.36,0,.07-.05.12,0,.07,0,.1s0,.05,0,.08a.42.42,0,0,1,0,.1l0,.08s0,.07,0,.1l0,.08-.05.1,0,.07,0,.1,0,.08a.47.47,0,0,1,0,.1l0,.07a.47.47,0,0,0-.05.1.3.3,0,0,0,0,.08l-.06.11-.06.11-.06.11,0,.07a.47.47,0,0,1-.05.1l0,.07a.41.41,0,0,0,0,.09.56.56,0,0,1-.05.08l-.05.09,0,.08-.05.08a.22.22,0,0,1,0,.08.41.41,0,0,1-.05.09l-.05.08,0,.08a.56.56,0,0,0-.05.08.22.22,0,0,0,0,.08.35.35,0,0,0-.05.08l-.06.08-.05.08-.1.15,0,.06-.06.09-.06.08-.05.08-.06.08-.06.07-.06.08,0,.07-.06.08-.06.07-.06.08-.06.07-.06.08,0,.07-.07.08,0,.07-.07.07-.05.06-.07.09,3.12,2.7a20.69,20.69,0,0,0,5.06-13.58h-4.13v.21Z"/><path class="cls-27" d="M231.69,311.8v12.31a16.6,16.6,0,0,1,16.6,16.6H260.6a28.91,28.91,0,0,0-28.91-28.91Z"/><path class="cls-30" d="M231.69,320v4.13a16.6,16.6,0,0,1,16.6,16.6h4.13A20.73,20.73,0,0,0,231.69,320Z"/><path class="cls-18" d="M222.92,347.21a1.45,1.45,0,0,1-.86-.28,1.47,1.47,0,0,1-.32-2l5.79-7.92h-4.61a1.46,1.46,0,1,1,0-2.92h7.49a1.46,1.46,0,0,1,1.18,2.32l-7.49,10.24a1.43,1.43,0,0,1-1.18.6Z"/><path class="cls-18" d="M240.33,347.86h-6.27a1.46,1.46,0,0,1-1.46-1.46V335a1.46,1.46,0,0,1,1.46-1.46h6.27a1.47,1.47,0,0,1,1.46,1.46V346.4a1.46,1.46,0,0,1-1.46,1.46Zm-4.81-2.92h3.35v-8.46h-3.35Z"/><path class="cls-31" d="M226.34,345.79a6.32,6.32,0,0,1-2.82-.59c-.85-.42-1.28-.88-1.28-1.35a1.21,1.21,0,0,1,.28-.79,1.06,1.06,0,0,1,.78-.3,4.06,4.06,0,0,1,1.3.49,3.83,3.83,0,0,0,1.78.49,2.77,2.77,0,0,0,1.91-.65,2.45,2.45,0,0,0,.82-1.76,5.09,5.09,0,0,1-2.81.71,5.67,5.67,0,0,1-3-.71,3,3,0,0,1-1.35-2.68,3.39,3.39,0,0,1,1.37-2.89,5,5,0,0,1,3.13-.93,4.84,4.84,0,0,1,3.78,1.34,5.75,5.75,0,0,1,1.15,3.9C231.36,343.88,229.67,345.79,226.34,345.79Zm1.89-8.46a3.6,3.6,0,0,0-1.77-.44,2.84,2.84,0,0,0-1.51.38,1.32,1.32,0,0,0,0,2.38,3.1,3.1,0,0,0,1.56.36,3,3,0,0,0,1.76-.49,1.33,1.33,0,0,0,.66-1.09A1.35,1.35,0,0,0,228.23,337.33Z"/><path class="cls-31" d="M241.27,344.46a4.76,4.76,0,0,1-6.6,0,5.79,5.79,0,0,1-1.29-4.09,6.23,6.23,0,0,1,1.24-4.13,4.15,4.15,0,0,1,3.29-1.4,4.27,4.27,0,0,1,3.34,1.4,6.07,6.07,0,0,1,1.31,4.13A5.88,5.88,0,0,1,241.27,344.46Zm-3.36-7.54c-1.54,0-2.3,1.15-2.3,3.45s.79,3.32,2.37,3.32,2.34-1.1,2.34-3.32S239.52,336.92,237.91,336.92Z"/><path class="cls-23" d="M199.83,268a2.68,2.68,0,0,1,3,3v17.23a2.68,2.68,0,0,1-3,3H182.92c-2,0-3-1-3-3V271c0-2,1-3,3-3Zm-.32,19.83V271.43c0-.43-.21-.64-.61-.64H183.85c-.42,0-.61.21-.61.64v16.38c0,.42.19.64.61.64H198.9A.56.56,0,0,0,199.51,287.81ZM196,276.32a1.6,1.6,0,0,1,1.79,1.79v5.31a1.58,1.58,0,0,1-1.79,1.77h-.56a6.94,6.94,0,0,0,1.41.67c.16.05.32.13.51.18.43.06.64.27.64.62a1.35,1.35,0,0,1-.16.69,1.37,1.37,0,0,1-.43.46,1.64,1.64,0,0,1-1,.21,3,3,0,0,1-1.2-.35,12.9,12.9,0,0,1-2.19-1.39,1.52,1.52,0,0,1-.37-.56,1.12,1.12,0,0,1-.11-.53h-2.38v.11a.89.89,0,0,1-.32.74,3.63,3.63,0,0,1-.88.7,14.81,14.81,0,0,1-1.87,1.12,1.9,1.9,0,0,1-1,.27,1.22,1.22,0,0,1-1-.46,1.05,1.05,0,0,1-.27-.8.84.84,0,0,1,.53-.72c.72-.35,1.34-.67,1.85-1h-.59a1.57,1.57,0,0,1-1.79-1.77v-5.31a1.58,1.58,0,0,1,1.79-1.79Zm-.3-4.68a1.28,1.28,0,0,1,1.45,1.44v1.05a1.29,1.29,0,0,1-1.45,1.47H187a1.28,1.28,0,0,1-1.44-1.47v-1.05a1.27,1.27,0,0,1,1.44-1.44Zm-1,7.3v-.43c0-.27-.16-.4-.43-.4h-5.85a.35.35,0,0,0-.4.4v.43Zm0,2.29v-.82h-6.68v.82Zm0,1.77v-.3h-6.68v.3c0,.29.13.42.4.42h5.85A.38.38,0,0,0,194.62,283Zm-.53-9.27v-.22a.29.29,0,0,0-.32-.32h-4.89a.28.28,0,0,0-.32.32v.22c0,.21.1.29.32.29h4.89C194,274,194.09,273.94,194.09,273.73Z"/><path class="cls-23" d="M211.56,268.3a1.22,1.22,0,0,1,.32-.64,1.62,1.62,0,0,1,1.41-.51,2.19,2.19,0,0,1,1.45.38,1.37,1.37,0,0,1,.29.77h6a1.19,1.19,0,0,1,.29-.64,1.71,1.71,0,0,1,1.42-.51,2.18,2.18,0,0,1,1.44.38,1.37,1.37,0,0,1,.32.77h4.2a1.55,1.55,0,0,1,1,.3,1.34,1.34,0,0,1,.32,1,1.47,1.47,0,0,1-.27.93,1.31,1.31,0,0,1-1.09.43h-4.2a1.28,1.28,0,0,1-.37.8,1.87,1.87,0,0,1-1.39.46,1.67,1.67,0,0,1-1.36-.46,1,1,0,0,1-.38-.8h-6a1.39,1.39,0,0,1-.35.8,1.86,1.86,0,0,1-1.39.46,1.8,1.8,0,0,1-1.39-.46,1.07,1.07,0,0,1-.37-.8h-4.09a1.54,1.54,0,0,1-1-.32,1.29,1.29,0,0,1-.32-1,1.34,1.34,0,0,1,.32-1,1.54,1.54,0,0,1,1-.3Zm15.6,10.53c1.52,0,2.3.64,2.3,1.87V283a1.31,1.31,0,0,1-.46,1.17,1.6,1.6,0,0,1-1.2.4,2.28,2.28,0,0,1-1-.16,3.9,3.9,0,0,1-1.31,2.14,17.07,17.07,0,0,1-5.45,2.86,39.79,39.79,0,0,1-7.16,1.84,22,22,0,0,1-4,.43,1.44,1.44,0,0,1-.32-2.83c1.95-.32,3.69-.62,5.24-.94-.4-.61-.86-1.28-1.39-2-.38.16-.75.32-1.12.46a2.51,2.51,0,0,1-1.26.32c-.77,0-1.28-.14-1.52-.46a1.14,1.14,0,0,1-.46-.9,1.07,1.07,0,0,1,.27-.73,1.54,1.54,0,0,1-1.2-.4,1.44,1.44,0,0,1-.43-1.17v-2.3c0-1.23.75-1.87,2.3-1.87Zm-.19-6.36a1.47,1.47,0,0,1,1.66,1.66v2.29a1.48,1.48,0,0,1-1.66,1.69H209.13a1.49,1.49,0,0,1-1.69-1.69v-2.29a1.48,1.48,0,0,1,1.69-1.66Zm-12.13,8.66h-4.38c-.27,0-.4.1-.4.32v1.76a3.12,3.12,0,0,1-.05.51A23.46,23.46,0,0,0,214.84,281.13Zm-1.44-6.68h-2.19a.38.38,0,0,0-.43.42v.83a.37.37,0,0,0,.43.43h2.19Zm3.21,11.89a8.21,8.21,0,0,1,.45.88,16.85,16.85,0,0,0,5.34-1.92.67.67,0,0,0,.27-.51c0-.06-.08-.11-.19-.11H215.7a.78.78,0,0,1-.46-.11A15.18,15.18,0,0,1,216.61,286.34Zm2.83-11.89h-3v1.68h3Zm5,7.72a3.32,3.32,0,0,1,1.66.37v-1.09c0-.22-.19-.32-.51-.32H219c-.32.37-.64.72-1,1Zm.83-6.47v-.83a.39.39,0,0,0-.43-.42h-2.38v1.68h2.38A.38.38,0,0,0,225.29,275.7Z"/><path class="cls-23" d="M235.63,271.21v-2.29c0-1,.58-1.53,1.76-1.58a1.56,1.56,0,0,1,1.79,1.58v2.29h.94a1.84,1.84,0,0,1,1.3.41,1.77,1.77,0,0,1,.46,1.46,2.43,2.43,0,0,1-.27,1.31,1.77,1.77,0,0,1-1.49.59h-.94v4c.43-.14.88-.27,1.34-.4.64,0,1,.16,1.2.45a2.6,2.6,0,0,1,.48,1.23c0,1-.29,1.52-.83,1.66a15.35,15.35,0,0,1-2.19.88v6.22c0,1.74-1.23,2.62-3.66,2.62a3,3,0,0,1-2-.61,1.78,1.78,0,0,1-.56-1.39,2.66,2.66,0,0,1,.48-1.69,3,3,0,0,1,1.6-.4c.35,0,.54-.13.54-.4V284a5.71,5.71,0,0,1-1.79.35,1.34,1.34,0,0,1-1.15-.59,2.12,2.12,0,0,1-.4-1.28,1.78,1.78,0,0,1,.83-1.58c.82-.26,1.65-.56,2.51-.83V275h-1.37a1.72,1.72,0,0,1-1.28-.45,1.74,1.74,0,0,1-.48-1.45,1.93,1.93,0,0,1,.48-1.52,2,2,0,0,1,1.28-.35Zm20-2.67a1.69,1.69,0,0,1,.35,1.21,1.33,1.33,0,0,1-.62,1.14,33.88,33.88,0,0,1-5,1.53c-1.39.34-2.76.61-4.12.83v1.41c0,.43.21.62.64.62h4.78c.38,0,.62-.08.75-.27a2.85,2.85,0,0,0,.4-1.18c.19-.48.72-.77,1.58-.85a3.1,3.1,0,0,1,1.44.45,1.74,1.74,0,0,1,.54,1.23,3.83,3.83,0,0,1-.8,2.51,4,4,0,0,1-3.05,1.26h-6.68a4.2,4.2,0,0,1-2.48-.54,1.38,1.38,0,0,1-.67-1.36v-7.4a1.64,1.64,0,0,1,.45-1.17,2,2,0,0,1,1.34-.41,2,2,0,0,1,1.25.41,1.45,1.45,0,0,1,.51,1.17v1a67.93,67.93,0,0,0,7-1.93,3.4,3.4,0,0,1,1.26-.24A1.36,1.36,0,0,1,255.61,268.54Zm-2.35,11.12a2.23,2.23,0,0,1,2.51,2.51v6.68a2.23,2.23,0,0,1-2.51,2.51h-8a2.22,2.22,0,0,1-2.51-2.51v-6.68a2.22,2.22,0,0,1,2.51-2.51Zm-.93,4.38v-.94c0-.4-.22-.61-.65-.61H246.8c-.43,0-.65.21-.65.61V284Zm0,3.87v-1.15h-6.18v1.15c0,.43.22.62.65.62h4.88C252.11,288.53,252.33,288.34,252.33,287.91Z"/><path class="cls-23" d="M265.47,268.6v-.11a1.53,1.53,0,0,1,.45-1.07,1.93,1.93,0,0,1,1.12-.27,1.66,1.66,0,0,1,1.1.3,1.34,1.34,0,0,1,.45,1v.11h3.24a1.6,1.6,0,0,1,1.79,1.79v1h.51a1.35,1.35,0,0,1,.9.24.67.67,0,0,1,.16.24c.38-1.28.73-2.54,1-3.71a1.13,1.13,0,0,1,1.15-.94,2.94,2.94,0,0,1,1.39.32,1.32,1.32,0,0,1,.69,1,9.73,9.73,0,0,1-.35,2.13,3.13,3.13,0,0,0-.1.38h3.28a1.81,1.81,0,0,1,1.31.37,2.3,2.3,0,0,1,.35,1.42,2.54,2.54,0,0,1-.27,1.28,1.08,1.08,0,0,1-.69.4c-.05.94-.16,2-.32,3.31a25.13,25.13,0,0,1-2.11,7.57.36.36,0,0,0-.06.13,24.72,24.72,0,0,0,2.94,3.47,1.47,1.47,0,0,1,.51,1.15,1.2,1.2,0,0,1-.4.88,1.69,1.69,0,0,1-1.36.59,1.92,1.92,0,0,1-1.26-.43,15.83,15.83,0,0,1-2.22-2.56,17.62,17.62,0,0,1-2.21,2.38,2.54,2.54,0,0,1-1.61.72,1.89,1.89,0,0,1-1.44-.56,1.46,1.46,0,0,1-.35-.48c-.1.1-.18.21-.29.32a1.45,1.45,0,0,1-1.07.5,2.42,2.42,0,0,1-.93-.16c-1.34-.56-2.65-1.07-3.93-1.55a19,19,0,0,1-4.2,1.58,7.53,7.53,0,0,1-1.79.35,1.48,1.48,0,0,1-1.2-.48,1.46,1.46,0,0,1-.37-1,1.07,1.07,0,0,1,.64-.94,28.83,28.83,0,0,0,3.28-.85l-1.2-.4a1.66,1.66,0,0,1-1-.43,1.53,1.53,0,0,1-.16-.72,2,2,0,0,1,.16-.72c.22-.32.4-.64.59-1h-1.26a1.33,1.33,0,0,1-1-.3c-.21-.16-.29-.48-.29-1s.08-.8.29-1a1.49,1.49,0,0,1,1-.27H263c.16-.29.29-.59.45-.85a2.72,2.72,0,0,1,.16-.3H261.3c-.77,0-1.15-.59-1.15-1.79v-1.36c0-.75.48-1.15,1.44-1.15h3.88v-.83h-3.23a1.56,1.56,0,0,1-1.79-1.76v-1.15h-.19a1.18,1.18,0,0,1-.88-.27,1.1,1.1,0,0,1-.27-.88,1,1,0,0,1,.27-.83,1.43,1.43,0,0,1,.88-.21h.19v-1a1.58,1.58,0,0,1,1.79-1.79Zm0,10.44h-2.19a.19.19,0,0,0-.22.22c0,.48.06.72.22.72h2.19Zm0-7.61v-1h-1.69c-.13,0-.18.08-.18.21v.83Zm0,2.19H263.6v.93c0,.16,0,.22.18.22h1.69Zm-.67,11.68-.08.13a1.56,1.56,0,0,0-.29.83c0,.1.18.21.58.32.65.16,1.23.32,1.82.45a7.27,7.27,0,0,0,2.08-1.73Zm8.82,3.55a14.43,14.43,0,0,0,3.26-3.37.19.19,0,0,1-.08-.16,28.17,28.17,0,0,1-2-5.48c-.05-.32-.1-.64-.13-1a1,1,0,0,1,.19-.64,2.21,2.21,0,0,1-1-.56,1.48,1.48,0,0,1-.46-1.21,1,1,0,0,1,.22-.4,21.46,21.46,0,0,0,1.07-2.48,2.23,2.23,0,0,1-.56.08h-.51v1.15a1.58,1.58,0,0,1-1.79,1.76h-3.24v.83h3.56c1,0,1.47.4,1.47,1.15v1.25c0,1.29-.43,1.9-1.26,1.9h-5.85a1.87,1.87,0,0,1,.11.51,2.27,2.27,0,0,1-.27.64h7a1.62,1.62,0,0,1,1,.27,1.27,1.27,0,0,1,.29,1,1.2,1.2,0,0,1-.24.85,1.23,1.23,0,0,1-1,.41h-1.52a8.48,8.48,0,0,1-2,2.56c.88.27,1.66.53,2.3.77a1.56,1.56,0,0,1,1,.7A1.39,1.39,0,0,1,273.62,288.85Zm-5-17.42h1.87v-.83a.19.19,0,0,0-.18-.21h-1.69Zm1.87,3.12v-.93h-1.87v1.15h1.69C270.38,274.77,270.46,274.71,270.46,274.55Zm.22,4.71a.2.2,0,0,0-.22-.22h-1.87V280h1.87C270.6,280,270.68,279.74,270.68,279.26Zm6.57-.94c.46,1.39.91,2.62,1.36,3.69a30.06,30.06,0,0,0,1.31-7.35h-2.11a18,18,0,0,1-1.36,2.86A1,1,0,0,1,277.25,278.32Z"/><ellipse class="cls-3" cx="371.98" cy="234.3" rx="14.94" ry="12.99"/><path class="cls-21" d="M360.93,225.21a1.27,1.27,0,0,1,1.3,1.3"/><ellipse class="cls-21" cx="360.28" cy="229.1" rx="1.3" ry="0.65" transform="translate(-18.27 426.56) rotate(-60)"/><path class="cls-18" d="M357,234.3a1.8,1.8,0,0,0,2.6,0s-.22,3-2.06,3.45A18.72,18.72,0,0,1,357,234.3Z"/><path class="cls-32" d="M413.56,278.92h-.07c-.41,0-10.15-1-21.5-10.44-4.8-4-8.67-10.72-11.5-20a83.39,83.39,0,0,1-2.82-12.7.73.73,0,0,1,.63-.81.71.71,0,0,1,.8.63c0,.23,2.86,22.63,13.81,31.76s20.61,10.09,20.71,10.1a.72.72,0,0,1-.06,1.44Z"/><path class="cls-32" d="M420.13,269.88c-2,0-6.05-.34-12.61-2.2-10.13-2.86-16.35-12.15-16.61-12.54a.72.72,0,0,1,1.2-.8c.06.09,6.2,9.24,15.8,12s13.58,2.07,13.62,2.06a.72.72,0,0,1,.27,1.42A9.63,9.63,0,0,1,420.13,269.88Z"/><path class="cls-32" d="M419.4,260h0c-10.09-.05-15.07-4.52-15.28-4.71a.72.72,0,0,1-.05-1,.72.72,0,0,1,1,0h0c.05,0,4.82,4.28,14.32,4.33a.73.73,0,0,1,.72.73A.71.71,0,0,1,419.4,260Z"/><path class="cls-33" d="M384.18,237a13.56,13.56,0,0,1-17.47,7.87c-7-2.65-4.79-10.66-7.88-17.47s10.48-10.53,17.47-7.88A13.56,13.56,0,0,1,384.18,237Z"/><ellipse class="cls-20" cx="367.14" cy="234.17" rx="13.17" ry="10.16" transform="translate(18.1 494.57) rotate(-69.26)"/><path class="cls-33" d="M365.66,220.67a5.21,5.21,0,0,0,.78,8.42,19.44,19.44,0,0,0,3.22,1.52c2.82,1.07,3,6.94,3,6.94s1.59-5.19,6.52-3.33,8.34-1.63,6.36-6.58S374.68,212.94,365.66,220.67Z"/><ellipse class="cls-20" cx="375.84" cy="239.89" rx="1.88" ry="1.51" transform="translate(18.38 506.39) rotate(-69.26)"/><ellipse class="cls-34" cx="358.81" cy="233.59" rx="1" ry="0.75" transform="translate(85.83 563.43) rotate(-83.45)"/><path class="cls-34" d="M358.78,229.54l-.09-.17c1.54-.78,4.1.82,4.25.93l-.11.15S360.21,228.81,358.78,229.54Z"/><rect class="cls-20" x="364.59" y="242.17" width="5.27" height="9.03" rx="2.63" ry="2.63" transform="translate(-74.14 216.66) rotate(-30)"/><path class="cls-18" d="M356.75,238.8a2.57,2.57,0,0,0,2.82-.17s1,3.39-1.41,4.12A6.68,6.68,0,0,1,356.75,238.8Z"/><path class="cls-33" d="M368.44,232.17a14,14,0,0,1,3.74-8,9.13,9.13,0,0,1,6.87-3c7.1.22,7.55,24.7,40.85,29.93,15,2.36,16,15.85,8.72,30.56-6.89,14-39.11,30.41-55.3-5.29C367.05,262.49,367.36,240.85,368.44,232.17Z"/><path class="cls-10" d="M312.79,172.7s-2.5-6.68-1.3-10.4,2.39-4.38,3.35-2.4,2.62,8.81,3.75,7.92.06-3.21,2.05-4.19.3,1.75.76,2.67.55,7.71-2.64,10S312.79,172.7,312.79,172.7Z"/><path class="cls-20" d="M357.68,233.14s-2.76.91-2.09,2.14a3.12,3.12,0,0,0,1.62,1.52"/><circle class="cls-20" cx="368.67" cy="237.55" r="1.98"/></g></g></svg>