<svg xmlns="http://www.w3.org/2000/svg" xmlns:xlink="http://www.w3.org/1999/xlink" viewBox="0 0 112.56 134.3"><defs><style>.cls-1{opacity:0.66;}.cls-2{fill:url(#linear-gradient);}.cls-3{fill:none;stroke-miterlimit:10;stroke:url(#linear-gradient-2);}.cls-4{fill:#33213d;}.cls-5{fill:#f4564a;}.cls-6{fill:#007193;}.cls-7{fill:#1a8da8;}.cls-8{fill:url(#linear-gradient-3);}.cls-9{fill:#fff;}.cls-10{fill:#e0e0e0;}.cls-11{fill:#f6ae90;}.cls-12{fill:url(#linear-gradient-4);}.cls-13{fill:#6cc69f;}</style><linearGradient id="linear-gradient" x1="66.41" y1="29.05" x2="104.47" y2="29.05" gradientUnits="userSpaceOnUse"><stop offset="0" stop-color="#77a553"/><stop offset="1" stop-color="#b3ce61"/></linearGradient><linearGradient id="linear-gradient-2" x1="59.37" y1="57.02" x2="112.56" y2="57.02" gradientUnits="userSpaceOnUse"><stop offset="0" stop-color="#80c79c"/><stop offset="1" stop-color="#2cc4a7"/></linearGradient><linearGradient id="linear-gradient-3" x1="33.89" y1="60.15" x2="25.95" y2="36.14" xlink:href="#linear-gradient-2"/><linearGradient id="linear-gradient-4" x1="38.1" y1="58.76" x2="30.16" y2="34.74" xlink:href="#linear-gradient-2"/></defs><title>step_3</title><g id="圖層_2" data-name="圖層 2"><g id="圖層_1-2" data-name="圖層 1"><g class="cls-1"><path class="cls-2" d="M79.87,0V4.23H66.41V53.79H79.87v4.29l24.57-4.41,0-49.24Zm4.07,27.1a1.77,1.77,0,0,1,1.5,1.95,1.55,1.55,0,1,1-3,0A1.77,1.77,0,0,1,83.94,27.1ZM70.4,49.8V8.23h9.47V49.81Z"/></g><line class="cls-3" x1="59.46" y1="62" x2="112.47" y2="52.03"/><path class="cls-4" d="M1.14,132.88a1.15,1.15,0,0,1-.26,0A1.13,1.13,0,0,1,0,131.49l11.49-50a1.13,1.13,0,0,1,2.21.51L2.24,132A1.13,1.13,0,0,1,1.14,132.88Z"/><path class="cls-4" d="M38.86,132.88a1.13,1.13,0,0,1-1.1-.88L26.27,82a1.13,1.13,0,0,1,2.21-.51l11.49,50a1.13,1.13,0,0,1-.85,1.36A1.15,1.15,0,0,1,38.86,132.88Z"/><path class="cls-5" d="M21.84,40.24s1-5.37-2.8-7.48S6,62.23,7.18,73.22c.9,8.12,4.44,11.17,18.82,11.52s21,.19,22.27-4.88S21.84,40.24,21.84,40.24Z"/><path class="cls-6" d="M56.62,69.61,45.5,128.08l5.17.44,4.27-.44s16.11-43.57,18.2-51.72S60.34,65.18,56.62,69.61Z"/><path class="cls-4" d="M78.24,128.08h9.44l4,2.71h0a9.88,9.88,0,0,0,3.45,1.1l.37,0a3.21,3.21,0,0,1,2.34,1.53l.15.26,0,.12c0,.12.1.24.14.37l0,.07H78.45Z"/><path class="cls-4" d="M45.5,128.08h9.44L59,130.79h0a9.88,9.88,0,0,0,3.45,1.1l.37,0a3.21,3.21,0,0,1,2.34,1.53l.15.26a.61.61,0,0,0,.05.12c0,.12.1.24.14.37l0,.07H44.37Z"/><path class="cls-7" d="M64.59,76.33C76.88,85,78.24,128.08,78.24,128.08h9.44s7-48.71-12.62-66.68c-10.66-9.74-53-6.53-53-6.53s-.51.82-1.21,2.18a3.92,3.92,0,0,0-2.65,3.11C17.65,62.53,15,70.67,20,75.4,28,83.05,58.78,72.24,64.59,76.33Z"/><path class="cls-8" d="M42.26,41.63c1.55-3.59,1.78-5.83.15-9.85-1.44-3.53-6.09-6.61-11.69-3.5C19,34.85,16.6,60.78,17.36,64.46c6.11,1.16,18.37-9.75,24.9-10C41.36,44.46,41.57,43.22,42.26,41.63Z"/><path class="cls-4" d="M35.54,118.43a.92.92,0,0,1-.36-.07L6.35,108.53a1.14,1.14,0,0,1,.73-2.15l28.83,9.84a1.14,1.14,0,0,1,.71,1.44A1.16,1.16,0,0,1,35.54,118.43Z"/><path class="cls-4" d="M3.83,121.17a1.15,1.15,0,0,1-1.05-.69,1.14,1.14,0,0,1,.6-1.49l29.29-12.58a1.14,1.14,0,0,1,.9,2.09L4.27,121.07A1,1,0,0,1,3.83,121.17Z"/><path class="cls-9" d="M35.35,28.59s4.34,8.8,3.71,14c-.54,4.42-.78,5.54-.78,5.54A22.34,22.34,0,0,0,41.05,43c1.63-5.13.91-11.23-.39-13.1S35.35,28.59,35.35,28.59Z"/><path class="cls-10" d="M40.12,30.45l1,.76a9,9,0,0,0-.35-2.87,2.84,2.84,0,0,0-1.49-1.5Z"/><path class="cls-5" d="M41.05,43A21.56,21.56,0,0,0,42,36.56c-.52-2.72-1.1-5.54-1.28-5.88-.37-.67-.84-.46-1,.11a1.93,1.93,0,0,0-.12.91,60.56,60.56,0,0,1,.08,6.75,9.16,9.16,0,0,1-.6,1.72,11.82,11.82,0,0,1,0,2.45c-.54,4.42-.78,5.54-.78,5.54A22.34,22.34,0,0,0,41.05,43Z"/><polygon class="cls-11" points="40.81 25.41 39.63 29.24 35.7 28.28 39.27 21.71 40.81 25.41"/><path class="cls-11" d="M40.13,19.38c.93-2.28,2.81-3.75,5.18-3.07A3.9,3.9,0,0,1,47.57,21c-.7,2.61-.62,5.65-1.89,6.09-.89.31-3.28-.31-4.88-1a3.33,3.33,0,0,1-1.68-4.24Z"/><path class="cls-11" d="M47.31,21.75s.25.57.36.89c.25.75-.32,1.1-.87,1.17S47.31,21.75,47.31,21.75Z"/><path class="cls-4" d="M48.6,17.26a3.49,3.49,0,0,1-2.18.7c-.57,0-1.27.11-1.52.66a14.3,14.3,0,0,1-.84,2.44c-.24.31-.88.32-.88-.18,0-.95-2.58.76-4,1.77a.62.62,0,0,1-1-.48c-.09-1.9,0-5.72,1.82-7.55,2.52-2.51,9.69-4.75,9.62,1A2.35,2.35,0,0,1,48.6,17.26Z"/><path class="cls-4" d="M40.88,15.44c1.8-1.8,6-3.46,8.22-2.13-1.72-2.66-7-.77-9.07,1.31-1.84,1.83-1.91,5.65-1.82,7.55a.63.63,0,0,0,.84.56C39,20.75,39.12,17.19,40.88,15.44Z"/><path class="cls-11" d="M43.18,20.36s.2-.94-.57-1.15-1.4,1.38-1.2,2a.82.82,0,0,0,1.39.41A2.26,2.26,0,0,0,43.18,20.36Z"/><path class="cls-10" d="M40,28.51l-2.36-2.16a1,1,0,0,1-.19-1.21l-.19.05c-1.31.24-2.07,2-2.26,2.65s4.66,4.85,4.66,4.85a23.33,23.33,0,0,0,.79-3.2A2.44,2.44,0,0,0,40,28.51Z"/><path class="cls-12" d="M12.69,49.71c1.12-9.2,7.49-15,14.7-20A6,6,0,0,1,36.23,32a5.39,5.39,0,0,1,0,4.61c-.73,1.38-9.91,6.91-9.27,12,.4,3.15,30-3.91,30.92,0C59.67,55.79,10.6,66.89,12.69,49.71Z"/><path class="cls-9" d="M30.83,50.14c-2.77,0-3.74-.89-4.07-1.41-.91-1.46.44-4,4-7.59.34-.35,1.21-1.06,2.14-1.81a32.25,32.25,0,0,0,2.62-2.26.29.29,0,0,1,.4,0,.3.3,0,0,1,.05.4,33.2,33.2,0,0,1-2.72,2.34c-.91.74-1.77,1.44-2.09,1.77-4.42,4.41-4.36,6.21-3.94,6.88.25.39,1.87,2.24,9.68.2a.28.28,0,0,1,.34.2.29.29,0,0,1-.2.35A25.32,25.32,0,0,1,30.83,50.14Z"/><path class="cls-4" d="M52.45,50.28H66.38l2.06-13.45a2.21,2.21,0,0,1,0-.25.72.72,0,0,1,.75-.61H83.43a.75.75,0,0,1,.67.88l-2.3,15H52.4A.78.78,0,0,1,52.45,50.28Z"/><path class="cls-13" d="M75.18,42.81c-.14.89.22,1.69.81,1.78s1.17-.56,1.31-1.45-.22-1.68-.81-1.78S75.32,41.92,75.18,42.81Z"/><path class="cls-11" d="M55,49s.2-.77,1.58-1.16c2-.57,6.32,1.58,6.52,2.46H55.86a1,1,0,0,1-1-1A.71.71,0,0,1,55,49Z"/><path class="cls-9" d="M85.37,125.79h0a.38.38,0,0,1-.36-.4l.64-13C87.29,86.7,78,73.19,77.93,73.06a.38.38,0,1,1,.62-.44c.09.14,9.51,13.86,7.84,39.78l-.65,13A.37.37,0,0,1,85.37,125.79Z"/><path class="cls-7" d="M89.76,89.91a.14.14,0,0,1-.14-.12c-2.42-16.94-9.2-25.07-9.27-25.15a.15.15,0,0,1,.22-.19c.07.08,6.9,8.28,9.33,25.3a.15.15,0,0,1-.12.16Z"/><path class="cls-5" d="M8,83.73H7.93c-.17-.09-4.24-2.2-4.24-12.72S7.82,49.9,7.86,49.8a.14.14,0,0,1,.26.1C8.08,50,4,60.59,4,71S8,83.44,8.05,83.46a.15.15,0,0,1,.07.19A.16.16,0,0,1,8,83.73Z"/></g></g></svg>