<svg xmlns="http://www.w3.org/2000/svg" xmlns:xlink="http://www.w3.org/1999/xlink" viewBox="0 0 98.16 127.85"><defs><style>.cls-1{fill:#33213d;}.cls-2{fill:#ffbc5b;}.cls-3{fill:#189393;}.cls-4{fill:url(#linear-gradient);}.cls-5{fill:#fff;}.cls-6{fill:url(#linear-gradient-2);}.cls-7{fill:#999;}.cls-8{fill:#f2f2f2;}.cls-9{fill:gray;}</style><linearGradient id="linear-gradient" x1="70.89" y1="121.06" x2="91.4" y2="121.06" gradientUnits="userSpaceOnUse"><stop offset="0" stop-color="#ff9f5a"/><stop offset="1" stop-color="#ffc35a"/></linearGradient><linearGradient id="linear-gradient-2" x1="84.61" y1="104.27" x2="83.19" y2="82.63" gradientUnits="userSpaceOnUse"><stop offset="0" stop-color="#77a553"/><stop offset="1" stop-color="#b3ce61"/></linearGradient></defs><title>step_2</title><g id="圖層_2" data-name="圖層 2"><g id="圖層_1-2" data-name="圖層 1"><path class="cls-1" d="M68,89.64H45L41.57,67.43c0-.14,0-.28-.07-.42a1.21,1.21,0,0,0-1.25-1H16.81v0a1.24,1.24,0,0,0-1.1,1.46L19.5,92.21H68.06A1.28,1.28,0,0,0,68,89.64Z"/><path class="cls-2" d="M30.43,77.31c.23,1.47-.36,2.78-1.33,2.93s-1.93-.92-2.16-2.39.37-2.78,1.33-2.93S30.2,75.83,30.43,77.31Z"/><path class="cls-3" d="M0,92.6c0,1.12,1.39,2,3.09,2H76.86c1.71,0,3.1-.92,3.1-2Z"/><rect class="cls-3" x="5.58" y="93.96" width="1.75" height="31.56"/><rect class="cls-3" x="72.59" y="93.96" width="1.75" height="31.56" transform="translate(146.93 219.49) rotate(180)"/><path class="cls-4" d="M81.14,114.27H72.57A1.68,1.68,0,0,0,70.89,116v0a1.68,1.68,0,0,0,1.68,1.68h.05a1.16,1.16,0,0,1,1.14.94l1.42,7.18a2.59,2.59,0,0,0,2.54,2.08h6.84a2.59,2.59,0,0,0,2.55-2.08l1.42-7.18a1.15,1.15,0,0,1,1.13-.94h.06A1.68,1.68,0,0,0,91.4,116v0a1.68,1.68,0,0,0-1.68-1.68Z"/><path class="cls-5" d="M86.82,117.69H79.45a.23.23,0,0,1-.23-.23.23.23,0,0,1,.23-.24h7.37a.24.24,0,0,1,.24.24A.23.23,0,0,1,86.82,117.69Z"/><path class="cls-6" d="M98,92.05c-1.73-3.69-10.09-5.6-15.46,0a7.19,7.19,0,0,0-.79,1c.45-5.41.57-13-1.7-16.46-3.75-5.68-9.89-3.83-10.79,0C68,82,77.67,88,79.1,97.4c-3.6-2.12-8-.83-9,1.37-1.21,2.58,9.58,8.34,10,15.5h3.69C84.29,104,99.76,95.74,98,92.05Z"/><path class="cls-5" d="M82.22,114.45h0a.18.18,0,0,1-.17-.19,46.48,46.48,0,0,1,1.3-8c1-3.91,3-9,6.75-11.29a.18.18,0,0,1,.24.06.19.19,0,0,1-.06.25c-7,4.21-7.87,18.83-7.88,19A.18.18,0,0,1,82.22,114.45Z"/><path class="cls-5" d="M91.58,94.62a.18.18,0,0,1-.15-.08.17.17,0,0,1,0-.25,11.91,11.91,0,0,1,2.74-1.37.18.18,0,0,1,.1.34,11.9,11.9,0,0,0-2.65,1.33A.16.16,0,0,1,91.58,94.62Z"/><path class="cls-5" d="M80.51,111.18a.18.18,0,0,1-.17-.13c-.78-2.64-.75-9.65-.75-10a.18.18,0,0,1,.18-.17h0a.18.18,0,0,1,.18.18c0,.07,0,7.25.73,9.84a.17.17,0,0,1-.12.22Z"/><path class="cls-5" d="M79.77,92.92a.18.18,0,0,1-.18-.16,31.81,31.81,0,0,0-2.87-11.12,15.61,15.61,0,0,0-2.19-3.52.18.18,0,0,1,.26-.24S79.06,82.63,80,92.73a.19.19,0,0,1-.17.19Z"/><path class="cls-5" d="M77.72,81.28a.17.17,0,0,1-.1,0,.18.18,0,0,1-.05-.24l1.77-2.69a.17.17,0,0,1,.29.19L77.87,81.2A.18.18,0,0,1,77.72,81.28Z"/><path class="cls-5" d="M76.29,83.59l-.08,0-2.65-1.38a.18.18,0,0,1,.16-.32l2.66,1.39a.18.18,0,0,1,.07.24A.17.17,0,0,1,76.29,83.59Z"/><path class="cls-5" d="M78,87.71h0l-1.85-.3a.18.18,0,0,1-.14-.21.17.17,0,0,1,.2-.14l1.85.3a.18.18,0,0,1,.14.21A.17.17,0,0,1,78,87.71Z"/><path class="cls-5" d="M80,86.63l-.09,0a.18.18,0,0,1-.07-.24l.92-1.77a.18.18,0,0,1,.32.16l-.93,1.77A.18.18,0,0,1,80,86.63Z"/><path class="cls-5" d="M86.41,96.86a.18.18,0,0,1-.18-.17L86,92a.18.18,0,1,1,.36,0l.21,4.69a.18.18,0,0,1-.17.19Z"/><path class="cls-5" d="M86.79,101a.16.16,0,0,1-.17-.15.18.18,0,0,1,.16-.2l2.53-.27a.18.18,0,0,1,.2.16.17.17,0,0,1-.16.19l-2.54.27Z"/><path class="cls-5" d="M83.33,101.48a.18.18,0,0,1-.16-.11L82.06,99a.18.18,0,1,1,.32-.15l1.11,2.42a.18.18,0,0,1-.08.24Z"/><path class="cls-5" d="M79.77,99.05h0a.18.18,0,0,1-.16-.2,16.59,16.59,0,0,1,1.64-5.36,6.3,6.3,0,0,0,.65-1.34l.17-.52a.17.17,0,0,1,.22-.12.18.18,0,0,1,.12.23l-.17.52a6.83,6.83,0,0,1-.69,1.42A16.28,16.28,0,0,0,80,98.9.18.18,0,0,1,79.77,99.05Z"/><rect class="cls-7" x="44.75" width="38.27" height="61" rx="5.78" ry="5.78"/><rect class="cls-8" x="44.75" y="9.57" width="38.27" height="39.47"/><rect class="cls-8" x="51.93" y="15.55" width="23.92" height="28.71" rx="1.8" ry="1.8"/><path class="cls-9" d="M73.69,44.85H54.08a2.75,2.75,0,0,1-2.75-2.75V17.7A2.75,2.75,0,0,1,54.08,15H73.69a2.76,2.76,0,0,1,2.76,2.75V42.1A2.76,2.76,0,0,1,73.69,44.85ZM54.08,16.15a1.55,1.55,0,0,0-1.55,1.55V42.1a1.55,1.55,0,0,0,1.55,1.56H73.69a1.56,1.56,0,0,0,1.56-1.56V17.7a1.56,1.56,0,0,0-1.56-1.55Z"/><rect class="cls-8" x="55.52" y="41.26" width="16.75" height="4.78"/><rect class="cls-8" x="55.52" y="13.16" width="16.75" height="4.78"/><rect class="cls-8" x="41.52" y="27.51" width="21.53" height="4.78" transform="translate(82.19 -22.38) rotate(90)"/><rect class="cls-8" x="65.44" y="27.51" width="21.53" height="4.78" transform="translate(106.11 -46.31) rotate(90)"/><circle class="cls-8" cx="63.65" cy="55.62" r="2.99"/><path d="M72.15,30.29a.42.42,0,0,0-.42.43V34.6a1.92,1.92,0,0,1-1.92,1.91H60.46a1.91,1.91,0,0,1-1.91-1.91V30.66a.43.43,0,0,0-.86,0V34.6a2.77,2.77,0,0,0,2.77,2.76h9.35a2.77,2.77,0,0,0,2.77-2.76V30.72A.43.43,0,0,0,72.15,30.29Z"/><path d="M62.73,27l2-2v8.66a.43.43,0,0,0,.85,0V25l2,2a.42.42,0,0,0,.3.12.44.44,0,0,0,.3-.12.45.45,0,0,0,0-.61l-2.71-2.71a.47.47,0,0,0-.3-.12.41.41,0,0,0-.3.12L62.13,26.4a.43.43,0,0,0,0,.61A.43.43,0,0,0,62.73,27Z"/></g></g></svg>