<svg xmlns="http://www.w3.org/2000/svg" xmlns:xlink="http://www.w3.org/1999/xlink" viewBox="0 0 137.97 122.01"><defs><style>.cls-1{fill:#ffc35a;}.cls-2{fill:#f4564a;}.cls-3{fill:url(#linear-gradient);}.cls-13,.cls-4{fill:#fff;}.cls-5{fill:#dfeded;}.cls-6{fill:url(#linear-gradient-2);}.cls-7{fill:#007193;}.cls-8{fill:#33213d;}.cls-9{fill:#e0e0e0;}.cls-10{fill:#f6ae90;}.cls-11{fill:#06596d;}.cls-12{fill:none;stroke:gray;stroke-miterlimit:10;}.cls-13{font-size:22.25px;font-family:Arial-BoldItalicMT, Arial;font-weight:700;font-style:italic;}</style><linearGradient id="linear-gradient" x1="92.99" y1="85.1" x2="92.99" y2="40.52" gradientUnits="userSpaceOnUse"><stop offset="0" stop-color="#f99082"/><stop offset="1" stop-color="#ef5a67"/></linearGradient><linearGradient id="linear-gradient-2" x1="64.64" y1="55.37" x2="120.77" y2="55.37" gradientUnits="userSpaceOnUse"><stop offset="0" stop-color="#80c79c"/><stop offset="1" stop-color="#2cc4a7"/></linearGradient></defs><title>step_4</title><g id="圖層_2" data-name="圖層 2"><g id="圖層_1-2" data-name="圖層 1"><path class="cls-1" d="M93.05,76.63c-1.22,0-2.46-.06-3.7-.18a38.31,38.31,0,1,1,41.77-34.51l-2-.19,2,.19A38.3,38.3,0,0,1,93.05,76.63ZM93,4a34.32,34.32,0,1,0,34.19,37.58h0A34.32,34.32,0,0,0,96.24,4.15C95.14,4,94,4,93,4Z"/><path class="cls-2" d="M69.55,58.4a1.53,1.53,0,0,0,.17-.55c0-.28,0-.63-.13-.43s-.28.93-.45.84-.46-.76-.83.18-.74,1.21-.31,1.34S69.05,59.38,69.55,58.4Z"/><path class="cls-3" d="M138,25.92a16.12,16.12,0,0,0-28-10.87,45,45,0,0,0-33.93,0A16.12,16.12,0,1,0,52.55,37.14,44.89,44.89,0,0,0,69,94.54l-6.6,20a2.41,2.41,0,0,0,1.47,3.09l.2.08a2.44,2.44,0,0,0,3.1-1.48L73.54,97A44.92,44.92,0,0,0,112.61,97L119,116.25a2.43,2.43,0,0,0,3.09,1.48l.2-.08a2.43,2.43,0,0,0,1.48-3.09L117.1,94.43a44.89,44.89,0,0,0,16.32-57.29A16.06,16.06,0,0,0,138,25.92ZM93,95.19A38.58,38.58,0,0,1,57.8,40.75,16.12,16.12,0,0,0,79.3,20.52a38.56,38.56,0,0,1,27.37,0,16.12,16.12,0,0,0,21.5,20.23A38.58,38.58,0,0,1,93,95.19Z"/><circle class="cls-4" cx="92.99" cy="56.6" r="39.1" transform="translate(-14.5 39.39) rotate(-22.23)"/><path class="cls-5" d="M93,33.55a1.25,1.25,0,0,1-1.26-1.26V23.9a1.26,1.26,0,0,1,2.51,0v8.39A1.25,1.25,0,0,1,93,33.55Z"/><path class="cls-5" d="M75.8,40.67a1.29,1.29,0,0,1-.89-.37L69,34.36a1.25,1.25,0,0,1,1.77-1.77l5.94,5.94a1.25,1.25,0,0,1,0,1.77A1.29,1.29,0,0,1,75.8,40.67Z"/><path class="cls-5" d="M68.68,57.85H60.29a1.26,1.26,0,1,1,0-2.51h8.39a1.26,1.26,0,1,1,0,2.51Z"/><path class="cls-5" d="M69.87,81A1.26,1.26,0,0,1,69,78.83l5.93-5.93a1.26,1.26,0,1,1,1.78,1.77l-5.94,5.94A1.25,1.25,0,0,1,69.87,81Z"/><path class="cls-5" d="M93,90.55a1.25,1.25,0,0,1-1.26-1.25V80.9a1.26,1.26,0,0,1,2.51,0v8.4A1.25,1.25,0,0,1,93,90.55Z"/><path class="cls-5" d="M116.11,81a1.27,1.27,0,0,1-.89-.37l-5.93-5.94a1.23,1.23,0,0,1,0-1.77,1.25,1.25,0,0,1,1.77,0L117,78.83a1.26,1.26,0,0,1-.88,2.15Z"/><path class="cls-5" d="M125.68,57.85h-8.39a1.26,1.26,0,0,1,0-2.51h8.39a1.26,1.26,0,1,1,0,2.51Z"/><path class="cls-5" d="M110.17,40.67a1.25,1.25,0,0,1-.88-.37,1.23,1.23,0,0,1,0-1.77l5.93-5.94A1.25,1.25,0,0,1,117,34.36l-5.93,5.94A1.29,1.29,0,0,1,110.17,40.67Z"/><path class="cls-5" d="M93,33.55a1.25,1.25,0,0,1-1.26-1.26V23.9a1.26,1.26,0,0,1,2.51,0v8.39A1.25,1.25,0,0,1,93,33.55Z"/><rect class="cls-6" x="64.64" y="41.01" width="56.13" height="28.72" rx="10.2" ry="10.2"/><path class="cls-7" d="M52.73,49.67a1.28,1.28,0,0,1,2.41,0c1,2.7,2.46,6.29,3.62,6.92,1.88,1,10.25.17,10.25.17l-2,2.47a12.91,12.91,0,0,1-12.18.57C50.7,57.73,51.58,52.88,52.73,49.67Z"/><path class="cls-8" d="M56.49,119l4.34-.23,2.67,1.43h0a5.38,5.38,0,0,0,1.82.58l.2,0a1.67,1.67,0,0,1,1.23.8,1,1,0,0,1,.08.14l0,.06a1.59,1.59,0,0,1,.07.2v0H56.35Z"/><path class="cls-8" d="M25.16,97.7l.42,4.32-1.32,2.73v0a5.14,5.14,0,0,0-.5,1.84l0,.2a1.67,1.67,0,0,1-.75,1.27l-.13.08-.06,0-.19.09h-.05l-.47-10.6Z"/><path class="cls-7" d="M62.33,87.22a63,63,0,0,0-6.11-18.88c-1.22-2.41-.86-5.58-.13-8.18,1.82-6.52.48-11.29-1.69-13.31-1.92-1.79-5.83-1-7.4-.09-1.11.63-1.31,2.36-.78,3.75.23.63.11,10.38-1.58,13.55-3.32,6.24-.41,20.11-1.29,25.38S25.16,97.7,25.16,97.7l.42,4.32S47.44,105.64,51,92.31a84.62,84.62,0,0,0,1.85-9C54.52,86.22,56.49,119,56.49,119l4.34-.23S64.91,103.16,62.33,87.22Z"/><path class="cls-4" d="M50.05,46.33s3.59,3.4,4.2,6c.52,2.18.61,2.75.61,2.75a11.36,11.36,0,0,0,.39-2.94c-.12-2.71-1.53-5.47-2.47-6.13S50.05,46.33,50.05,46.33Z"/><path class="cls-9" d="M52.63,46.37l.63.18a4.82,4.82,0,0,0-.67-1.3,1.47,1.47,0,0,0-1-.44Z"/><polygon class="cls-10" points="51.87 44.18 52.49 46.3 50.18 45.84 50.57 42.83 51.87 44.18"/><path class="cls-10" d="M50.11,42.13a2,2,0,0,1,1.25-2.53,1.83,1.83,0,0,1,2.09,1.27c.4,1.21.74,2.53.35,3a2.71,2.71,0,0,1-1.71.69,1.55,1.55,0,0,1-1.74-1.23Z"/><path class="cls-10" d="M53.53,41.22s.25.16.38.26c.29.23.15.51,0,.68S53.53,41.22,53.53,41.22Z"/><path class="cls-2" d="M55.25,52.12a10.72,10.72,0,0,0-.67-3.19c-.72-1.19-1.49-2.42-1.63-2.55-.29-.25-.48-.07-.46.23a1,1,0,0,0,.1.45,28.36,28.36,0,0,1,1.21,3.17,4.46,4.46,0,0,1,0,.92,6.13,6.13,0,0,1,.43,1.16c.52,2.18.61,2.75.61,2.75A11.36,11.36,0,0,0,55.25,52.12Z"/><path class="cls-9" d="M52.21,45.49l-1.53-.63a.48.48,0,0,1-.31-.52h0a7.84,7.84,0,0,0-.64,1.7c0,.35,3.05,1.48,3.05,1.48a11.72,11.72,0,0,0-.18-1.65A1.25,1.25,0,0,0,52.21,45.49Z"/><path class="cls-11" d="M45.4,73a.19.19,0,0,1-.18-.18.19.19,0,0,1,.18-.18,5,5,0,0,0,3.82-1.91.18.18,0,0,1,.25,0,.18.18,0,0,1,.05.24A5.36,5.36,0,0,1,45.41,73Z"/><path class="cls-8" d="M53.26,39.86c-.06.31-.38.6-.78,1l0-.45a3.88,3.88,0,0,1-.72,1.69,5.49,5.49,0,0,0-1.18,1.77.3.3,0,0,1-.14.28,3.35,3.35,0,0,1-1.76-2.65c-.09-1.8,1.87-3.47,3.11-3.14S53.35,39.33,53.26,39.86Z"/><path class="cls-10" d="M51.56,41.73s-.16-.41-.52-.3-.19.9.05,1.11a.39.39,0,0,0,.65-.2A1,1,0,0,0,51.56,41.73Z"/><path class="cls-11" d="M31.06,101.46a37.21,37.21,0,0,1-5.18-.37.18.18,0,0,1-.15-.2.17.17,0,0,1,.2-.15c12.29,1.7,19-3.14,19-3.19a.18.18,0,0,1,.25,0,.19.19,0,0,1,0,.25C45.11,97.88,40.19,101.46,31.06,101.46Z"/><path class="cls-11" d="M58.86,118.9H58.8a.18.18,0,0,1-.11-.22c2.25-7.1,2.16-22.36,2.16-22.52A.18.18,0,0,1,61,96a.19.19,0,0,1,.18.18c0,.15.08,15.48-2.18,22.62A.19.19,0,0,1,58.86,118.9Z"/><path class="cls-7" d="M42.07,57.25h0a.08.08,0,0,1-.09-.08,14.88,14.88,0,0,1,1.59-6.94A23.48,23.48,0,0,1,45.4,47a.08.08,0,0,1,.12,0,.09.09,0,0,1,0,.13s-3.75,5.26-3.42,10.06A.08.08,0,0,1,42.07,57.25Z"/><path class="cls-7" d="M63.62,90.73a.09.09,0,0,1-.09-.08c-.43-9.11-2.87-13.76-2.89-13.81a.09.09,0,0,1,0-.12.09.09,0,0,1,.12,0s2.48,4.73,2.91,13.88a.09.09,0,0,1-.08.09Z"/><path class="cls-7" d="M45.72,48.06A21,21,0,0,0,43,60.51c.43,7.7,13.54,5.81,23.09,1l-.47-2.37s-16.15,2.48-17.35.34,2.25-7.11,2.09-9.89C50.17,47.24,46.91,45.79,45.72,48.06Z"/><path class="cls-11" d="M61.45,59.86s-.05,0-.07,0c-1.89.23-9.12.64-9.2.65a.17.17,0,0,1-.18-.17.18.18,0,0,1,.16-.19c.08,0,7.29-.41,9.18-.65a.18.18,0,0,1,.19.16A.16.16,0,0,1,61.45,59.86Z"/><path class="cls-11" d="M62,63.49h0a21.81,21.81,0,0,1-8.27,2.16.17.17,0,0,1-.18-.17.18.18,0,0,1,.18-.18,21.31,21.31,0,0,0,8.11-2.13.17.17,0,0,1,.24.08A.18.18,0,0,1,62,63.49Z"/><path class="cls-10" d="M65.57,59.15s1.08-1,1.19-1.54.42.06.32.54c0,.14,0,.24.19.31a.79.79,0,0,0,1.08-.53l0-.14a1.65,1.65,0,0,1,0,2A4,4,0,0,1,66,61.52Z"/><line class="cls-12" y1="114.01" x2="39" y2="114.01"/><line class="cls-12" x1="14" y1="109.51" x2="53" y2="109.51"/><text class="cls-13" transform="translate(74.45 62.7)">2hr</text></g></g></svg>