<svg xmlns="http://www.w3.org/2000/svg" xmlns:xlink="http://www.w3.org/1999/xlink" viewBox="0 0 89.33 141.58"><defs><style>.cls-1{fill:#777;}.cls-2{fill:#b3b3b3;}.cls-3{fill:#f4564a;}.cls-4{fill:#f49f4a;}.cls-5{fill:url(#linear-gradient);}.cls-6{fill:url(#linear-gradient-2);}.cls-7{fill:#2cc4a7;}.cls-8{fill:#f6ae90;}.cls-9{fill:#e59383;}.cls-10{fill:#fff;}.cls-11{fill:#785eb7;}.cls-12{fill:#e0e0e0;}.cls-13{fill:none;stroke:#33213d;stroke-linecap:round;stroke-miterlimit:10;stroke-width:1.5px;}.cls-14{fill:#f2853b;}.cls-15{fill:#ffb25a;}</style><linearGradient id="linear-gradient" x1="23.26" y1="89.11" x2="55.93" y2="89.11" gradientUnits="userSpaceOnUse"><stop offset="0" stop-color="#ff9f5a"/><stop offset="1" stop-color="#ffc35a"/></linearGradient><linearGradient id="linear-gradient-2" x1="13.4" y1="90.56" x2="66.52" y2="90.56" xlink:href="#linear-gradient"/></defs><title>step_1</title><g id="圖層_2" data-name="圖層 2"><g id="圖層_1-2" data-name="圖層 1"><rect class="cls-1" x="68.9" y="94" width="3" height="31"/><rect class="cls-1" x="54.9" y="87" width="3" height="31"/><rect class="cls-2" x="27.9" y="70" width="50" height="26" rx="13" ry="13"/><rect class="cls-2" x="62.9" y="35" width="15" height="53" rx="7.5" ry="7.5"/><path class="cls-1" d="M50.22,73.82S63.9,71,70.9,77"/><rect class="cls-1" x="40.9" y="94" width="3" height="31"/><path class="cls-3" d="M37.6,9.76a5.5,5.5,0,0,1-.84-3.68c.42-1.73,2.27-2.41,3-2,0,0,.51-3.39,4.77-4s8.53,3.4,6.94,5.71a2,2,0,0,1,1.9-.32,1.57,1.57,0,0,1,.19,2.66,4.28,4.28,0,0,1,1.06,1.76,1.21,1.21,0,0,1,.75.07c.88.4,1.47,4.25-.67,4.33-.88,3.5-4.15,5.48-10.64,5.42a9.87,9.87,0,0,1-6.25-3.43A5.48,5.48,0,0,1,37.6,9.76Z"/><path class="cls-4" d="M54.41,10.88a1.21,1.21,0,0,0-.75-.07A4.28,4.28,0,0,0,52.6,9.05a1.58,1.58,0,0,0-.19-2.67,2,2,0,0,0-1.9.33C52.1,4.39,47.84.41,43.57,1a6.3,6.3,0,0,0-2.86,1.09,5.62,5.62,0,0,1,3.84-2c4.27-.59,8.53,3.4,6.94,5.71a2,2,0,0,1,1.9-.32,1.57,1.57,0,0,1,.19,2.66,4.28,4.28,0,0,1,1.06,1.76,1.21,1.21,0,0,1,.75.07c.84.38,1.4,3.86-.36,4.29C55.48,13,55,11.15,54.41,10.88Z"/><path class="cls-5" d="M37,51.3c-6.89,5.33-14,15.35-13.76,22.12S33.91,128.8,33.91,128.8l8.74-1s.08-26.43,1.9-44.85c1.12-11.33,11.33-16.36,11.38-17.19C56.06,63.47,47.46,43.23,37,51.3Z"/><path class="cls-6" d="M57.72,52.27s5.71,4.1,8,10.16c3.56,9.5-4.79,15.18-17.31,16.27-23.83,2.09-27.14,50.14-27.14,50.14l-7.75-3.19s-1.77-30.17,9.77-52.23c3.84-7.34,25.12-18.14,25.12-18.14Z"/><path class="cls-7" d="M35.32,52.65l0-.08c1-3.07,3.29-3.89,3.29-8.47,0-5.52-11.09-14.27-5.05-18.44C41.34,20.3,51.25,22,56.47,25c4.1,2.38,3.76,7.13.83,14.81-1.42,3.71,1.9,10,2.42,13.94A37.4,37.4,0,0,1,35.32,52.65Z"/><path class="cls-8" d="M44.15,19.16l-.31,3A1.93,1.93,0,0,0,46,24.31h0a1.93,1.93,0,0,0,1.66-2.23l-.84-5.16Z"/><path class="cls-9" d="M43.93,21.27l.22-2.11,2.68-2.24.58,3.54A5.14,5.14,0,0,1,43.93,21.27Z"/><path class="cls-8" d="M42.21,14.29l.12,0c.13-1.74,1,.41,2.69.47s1.61-1.08,3.82,0h0a1.24,1.24,0,0,1,.57-.18c.68,0,.64,1.44.46,2.24s-.69.89-.84.79c.08,1.39-1.38,2.61-2.76,2.73-3.48.31-3.75-1.33-3.87-3a1.37,1.37,0,0,1-.8-.91C41.47,15.69,41.52,14.21,42.21,14.29Z"/><path class="cls-10" d="M49.67,17.51a.23.23,0,0,1-.18.27.23.23,0,0,1-.27-.17.22.22,0,0,1,.17-.27A.23.23,0,0,1,49.67,17.51Z"/><path class="cls-10" d="M42.23,17a.22.22,0,0,1-.17.27.23.23,0,0,1-.28-.17.24.24,0,0,1,.18-.27A.23.23,0,0,1,42.23,17Z"/><path class="cls-9" d="M37,30.62s.12,4.09-1.7,6.11c-.83-1.31-1.66-2.62-2.31-3.89C34.18,31.58,35.72,30.55,37,30.62Z"/><path class="cls-8" d="M55.21,24.32S79.68,26.87,83,42.87c2.39,11.66-18.53,17-33.75,13.57V51.38s21.5-5.82,22.41-8.1c1-2.57-6.78-6.16-9.48-7.2C53.91,32.92,55.21,24.32,55.21,24.32Z"/><path class="cls-9" d="M82.13,43.55c-2.94-14.31-22.82-17.86-27-18.45,0-.49.06-.78.06-.78S79.68,26.87,83,42.87c.77,3.77-.89,6.87-4,9.23C81.53,49.83,82.83,47,82.13,43.55Z"/><path class="cls-8" d="M35.86,24.32s-24,6.1-26.21,18.19C7.72,53,25.05,57.46,37,58.13l-.83-7.25s-15.23-4.27-13.45-8.23c1.39-3.09,7.49-4.77,10.27-6C39.87,33.54,35.86,24.32,35.86,24.32Z"/><path class="cls-11" d="M27.67,45.31h24a2.26,2.26,0,0,1,2.19,2.8l-3.24,13v.66a1.93,1.93,0,0,1-1.93,1.94H30.5a1.94,1.94,0,0,1-1.93-1.94v-.66L25.48,48.08A2.26,2.26,0,0,1,27.67,45.31Z"/><path class="cls-12" d="M38.16,53.53c0,.56.68,1,1.51,1s1.52-.44,1.52-1-.68-1-1.52-1S38.16,53,38.16,53.53Z"/><path class="cls-8" d="M35.87,134.72a4.82,4.82,0,0,1-2.94-.74l1-5.18,8.74-1L43.81,132h0S41.36,134.8,35.87,134.72Z"/><path class="cls-12" d="M24.77,141.48c0-.17,0-.33.05-.5l0-.16.09-.36c.34-1.16,8-6.48,8-6.48a4.82,4.82,0,0,0,2.94.74c5.49.08,7.94-2.7,7.94-2.7l1.73,3,.68,1.17h0l-21.45,5.42h0Z"/><path class="cls-12" d="M37.6,135.06l.31-3.62a1.18,1.18,0,0,0-1.18-1.28l-2.94.07a1.14,1.14,0,0,0-1.1,1.21l.18,3.77Z"/><line class="cls-13" x1="32.24" y1="135.06" x2="27.48" y2="138.8"/><line class="cls-13" x1="32.39" y1="136.44" x2="30.82" y2="134.96"/><line class="cls-13" x1="30.64" y1="137.67" x2="29.08" y2="136.19"/><line class="cls-13" x1="28.89" y1="138.89" x2="27.33" y2="137.41"/><path class="cls-8" d="M13,131.4a4.78,4.78,0,0,1-2-2.27l2.47-3.48,7.75,3.19-.11,4.77h0S17.54,134.54,13,131.4Z"/><path class="cls-12" d="M.06,130.77c.1-.13.21-.26.32-.38l.11-.12L.77,130c.93-.77,10.25-.9,10.25-.9a4.78,4.78,0,0,0,2,2.27c4.51,3.14,8.09,2.21,8.09,2.21l-.22,3.44-.09,1.34h0L0,130.86H0Z"/><path class="cls-12" d="M14.28,132.65l2.28-2.83a1.16,1.16,0,0,0-.25-1.71l-2.48-1.6a1.14,1.14,0,0,0-1.59.39l-2,3.22Z"/><line class="cls-13" x1="9.84" y1="129.64" x2="3.8" y2="130.07"/><line class="cls-13" x1="9.19" y1="130.87" x2="8.72" y2="128.77"/><line class="cls-13" x1="7.06" y1="130.91" x2="6.59" y2="128.8"/><line class="cls-13" x1="4.92" y1="130.94" x2="4.46" y2="128.84"/><path class="cls-14" d="M27.89,99h-.07a.19.19,0,0,1-.1-.24c7.1-17.53,15.76-19.16,16.12-19.22a.18.18,0,1,1,.06.36c-.09,0-8.83,1.67-15.85,19A.16.16,0,0,1,27.89,99Z"/><path class="cls-14" d="M23.26,73.6l-.07,0a.18.18,0,0,1-.09-.24c2.48-5.33,9.74-9.07,9.81-9.11a.18.18,0,0,1,.16.32c-.07,0-7.22,3.73-9.64,9A.19.19,0,0,1,23.26,73.6Z"/><path class="cls-8" d="M17.81,30.85a.15.15,0,0,1-.12-.05.17.17,0,0,1,0-.25c7-7.08,19.93-10.4,20.06-10.43a.18.18,0,0,1,.21.13.17.17,0,0,1-.13.22c-.12,0-12.92,3.33-19.88,10.33A.17.17,0,0,1,17.81,30.85Z"/><path class="cls-8" d="M89.15,36.59a.19.19,0,0,1-.17-.12C84,24.21,71.09,21.53,71,21.5a.18.18,0,0,1-.14-.21.18.18,0,0,1,.21-.14c.13,0,13.27,2.74,18.29,15.19a.18.18,0,0,1-.1.23Z"/><path class="cls-15" d="M50.58,119.07h0a.19.19,0,0,1-.18-.19l1.17-32.19a.19.19,0,0,1,.19-.18.18.18,0,0,1,.17.19l-1.17,32.2A.17.17,0,0,1,50.58,119.07Z"/></g></g></svg>