<svg xmlns="http://www.w3.org/2000/svg" xmlns:xlink="http://www.w3.org/1999/xlink" viewBox="0 0 87.3 150.83"><defs><style>.cls-1{fill:#f6ae90;}.cls-2{fill:#e0e0e0;}.cls-3{fill:#c6bdb9;}.cls-4{fill:#333;}.cls-5{fill:#e59383;}.cls-6{fill:#fff;}.cls-7{fill:#4d4d4d;}.cls-8{fill:url(#未命名漸層_54);}.cls-9{fill:url(#linear-gradient);}.cls-10{fill:url(#linear-gradient-2);}.cls-11{fill:#33213d;}.cls-12{fill:#f4bf1a;}.cls-13{fill:#ffd949;}.cls-14{fill:#dca815;}.cls-15{fill:#d1d4d2;}</style><linearGradient id="未命名漸層_54" x1="40.92" y1="58.79" x2="40.92" y2="143.22" gradientTransform="translate(-0.08 0.13) rotate(-0.1)" gradientUnits="userSpaceOnUse"><stop offset="0" stop-color="#3f6880"/><stop offset="1" stop-color="#2b3a43"/></linearGradient><linearGradient id="linear-gradient" x1="37.08" y1="27.38" x2="37.08" y2="45.31" gradientTransform="translate(-0.08 0.13) rotate(-0.1)" gradientUnits="userSpaceOnUse"><stop offset="0" stop-color="#f99082"/><stop offset="1" stop-color="#e86160"/></linearGradient><linearGradient id="linear-gradient-2" x1="37.42" y1="27.38" x2="37.42" y2="45.31" xlink:href="#linear-gradient"/></defs><title>tab_2_step2</title><g id="圖層_2" data-name="圖層 2"><g id="圖層_1-2" data-name="圖層 1"><path class="cls-1" d="M76.52,36.11a9.26,9.26,0,0,0-.4-3.63c-.29-.8,1-.58,1.3.8s1.73.57,2.6.91c1.7.65.9,3.44-.15,3.62-1.56.27,0,3.39-2.83,2.83C74.78,40.19,76.4,37.25,76.52,36.11Z"/><path class="cls-2" d="M50.1,30.08c-.3-.25-6.93,8.54-6.93,8.54S51.53,55.79,65.2,60C75.33,63,81,48.88,79.31,39.24a2.89,2.89,0,0,0-3.35-1c-3.37,3.28-4.47,9.9-6.18,10C65.94,48.58,55.29,34.35,50.1,30.08Z"/><path class="cls-3" d="M46.61,44.39c1.65-3.44,3.47-6.78,3.47-6.78s4.13,10.76,3.85,15.45A52.3,52.3,0,0,1,46.61,44.39Z"/><path class="cls-2" d="M27.08,58.87a9.11,9.11,0,0,0,.4-1.8c.88-12.61-7-24.66-5.37-28.06C24.45,24,32.89,25.5,36,25.2s9.79.48,14.13,4.88c5.5,5.56-.57,10.45-2.26,25.59,0,0,0,1.82-.14,5A50.46,50.46,0,0,1,27.08,58.87Z"/><path class="cls-3" d="M35.14,28.67a5.17,5.17,0,0,1-1.65-1.91,1.48,1.48,0,0,1,.31-1.52,20.59,20.59,0,0,0,2.17,0l.45,0C36.32,25.71,35.14,28.67,35.14,28.67Z"/><path class="cls-4" d="M34.41,16.89l-.74,2.87-1-.59s-.81-2-.25-3.23S34.41,16.89,34.41,16.89Z"/><path class="cls-1" d="M37.25,21.69l.87,3.89a1.58,1.58,0,0,1-1.29,1.91h0A1.59,1.59,0,0,1,35,26.12l-.72-5.74Z"/><path class="cls-5" d="M37.54,23h0l.26,1.16a5.44,5.44,0,0,1-2.09-1.87l1.66,0Z"/><path class="cls-1" d="M33.39,18.14a1.12,1.12,0,0,1,.45.22l.1-.75c.19-1.5,1.55-2.14,3.05-2l.74.12c1.4.31,1.87,2.73,2,4.44.11,2-.24,2.5-1.1,3a2.48,2.48,0,0,1-2.67.05,5.29,5.29,0,0,1-2.6-2.51h0c-.57-.12-1-.4-1.06-1S32.82,18,33.39,18.14Z"/><path class="cls-6" d="M38.6,20.83s-.18.72-.75.77-.78-.16-1-.73Z"/><path class="cls-4" d="M38.73,16.51s.92-1.92-.19-3.12-4.3-1.61-5.44-.17-.51,2-1.41,2a1.36,1.36,0,0,0,.44,1.14C32.65,16.75,36.28,18.61,38.73,16.51Z"/><path class="cls-7" d="M38,13.89a4.5,4.5,0,0,0-5-.54l.09-.13c1.14-1.44,4.34-1,5.44.17s.19,3.12.19,3.12a2.53,2.53,0,0,1-.42.31A2.89,2.89,0,0,0,38,13.89Z"/><path class="cls-1" d="M17.64,66.77c1.84.75,3.06,1.29,3.06,1.68,0,1.73-1-.34-2.08.21s.5,3,3.05,2.52,2.58-3.71,1.08-5.34c-.42-.46-1.48-1.47-2.79-2.74A7.91,7.91,0,0,1,17.64,66.77Z"/><path class="cls-2" d="M26,40.45c.36-.13-1-14.14-1-14.14S5.29,34,.61,48.9c-3.17,10.1,10.73,15.28,17,17.87A7.91,7.91,0,0,0,20,63.1c-3.39-3.27-8.46-8.26-8.66-10C10.85,49.31,21.14,42.12,26,40.45Z"/><path class="cls-8" d="M25.71,72.71l12,70s7.52,2.08,8.12-1.47c0,0-9.34-33.33-8.19-68.95l10.48,27L23.87,135.67,28,139.86s29.63-31.42,30.23-37.46S47.7,60.65,47.7,60.65L27.08,58.87h0A34.12,34.12,0,0,0,25.71,72.71Z"/><path class="cls-9" d="M37.34,27.5h-.61a.58.58,0,0,0-.56.65l.08.61a.54.54,0,0,0,.31.43l.25.13a.58.58,0,0,0,.65-.09l.29-.27a.59.59,0,0,0,.17-.42v-.48A.57.57,0,0,0,37.34,27.5Z"/><path class="cls-6" d="M37,27.51,35.52,26.4a1.65,1.65,0,0,1-.63-1.08l0-.15a3.77,3.77,0,0,0-.64,1.89c-.09,1.19,1.54,3.55,1.54,3.55Z"/><path class="cls-6" d="M36.91,27.51l.88-1.13A1.45,1.45,0,0,0,38,25.07l-.06-.3a3.2,3.2,0,0,1,1.54,1.71c.34,1.14-.74,3.8-.74,3.8Z"/><path class="cls-10" d="M39.66,46.26c0-2.47-2.12-17.33-2.12-17.33l-1-.09s-1.13,13-1.37,16.63a23.42,23.42,0,0,0,1.91,5.37A12.57,12.57,0,0,0,39.66,46.26Z"/><path class="cls-6" d="M26,68.52h0a5.21,5.21,0,0,0,4-1.71,2.86,2.86,0,0,0,.66-1.54.27.27,0,1,0-.53,0c0,.11-.21,2.48-4.16,2.75a.26.26,0,0,0-.25.28A.27.27,0,0,0,26,68.52Z"/><path class="cls-6" d="M45.58,70.83a.28.28,0,0,0,.23-.13.26.26,0,0,0-.09-.37C42.29,68.27,42.78,66,42.8,66a.27.27,0,0,0-.2-.33.28.28,0,0,0-.32.2c0,.11-.63,2.7,3.16,5A.27.27,0,0,0,45.58,70.83Z"/><path class="cls-2" d="M.13,44.18a.14.14,0,0,0,.12-.07A35.1,35.1,0,0,1,14,30.25a.14.14,0,0,0,.07-.18.15.15,0,0,0-.18-.06A35.2,35.2,0,0,0,0,44a.14.14,0,0,0,.05.19Z"/><path class="cls-2" d="M68.54,62.33a9.55,9.55,0,0,0,3.63-.67,10.36,10.36,0,0,0,5.43-5.15.12.12,0,0,0-.07-.17.14.14,0,0,0-.18.07,10.09,10.09,0,0,1-5.28,5c-4.19,1.75-9.5-.49-10.59-1.14a.14.14,0,0,0-.18,0,.12.12,0,0,0,.05.18A15.79,15.79,0,0,0,68.54,62.33Z"/><path class="cls-6" d="M25.84,137.44a.26.26,0,0,0,.32-.05l30.16-32.26a.27.27,0,1,0-.39-.36L25.77,137a.27.27,0,0,0,0,.38Z"/><path class="cls-11" d="M24,135.43l5.33,3.08,4.37,5.92v0a10,10,0,0,0,2.25,2.75l.28.24A3.15,3.15,0,0,1,37.31,150a2.64,2.64,0,0,1,0,.29s0,.09,0,.13-.05.25-.08.38l0,.07h0L20.63,140.05Z"/><path class="cls-11" d="M37.56,141.92l8.24-.72,5,2.65h0a9.61,9.61,0,0,0,3.39,1.08l.37.05a3.16,3.16,0,0,1,2.3,1.49l.14.26a1.17,1.17,0,0,1,0,.11c.05.12.1.24.14.37l0,.07h0l-18.94,0Z"/><g id="_群組_" data-name="&lt;群組&gt;"><path id="_路徑_" data-name="&lt;路徑&gt;" class="cls-12" d="M81.24,19.41c-4.44,4.44-11,5.18-15.3,1.95a10.1,10.1,0,0,0,.86,1c4.2,4.2,11.5,3.71,16.3-1.09S88.39,9.17,84.19,5a10.1,10.1,0,0,0-1-.86c3.24,4.28,2.49,10.86-2,15.3"/><path id="_路徑_2" data-name="&lt;路徑&gt;" class="cls-13" d="M82.33,3.11c4.2,4.2,3.71,11.5-1.09,16.3s-12.1,5.29-16.3,1.08S61.23,9,66,4.2s12.1-5.29,16.3-1.09"/><path id="_路徑_3" data-name="&lt;路徑&gt;" class="cls-12" d="M72.1,21.6a8.28,8.28,0,0,1-5.92-2.35c-3.51-3.51-3-9.7,1.09-13.81A11.35,11.35,0,0,1,75.17,2a8.26,8.26,0,0,1,5.91,2.34c3.51,3.51,3,9.71-1.08,13.82a11.35,11.35,0,0,1-7.9,3.43"/><path id="_路徑_4" data-name="&lt;路徑&gt;" class="cls-14" d="M81.54,19.08,83.41,21c.2-.21.39-.43.58-.66l-1.87-1.86c-.18.22-.38.44-.58.65"/><path id="_路徑_5" data-name="&lt;路徑&gt;" class="cls-14" d="M79.91,20.56l1.87,1.87c.23-.18.46-.36.68-.56L80.59,20c-.22.2-.45.38-.68.56"/><path id="_路徑_6" data-name="&lt;路徑&gt;" class="cls-14" d="M82.92,17.36l1.87,1.87c.17-.25.33-.5.48-.76l-1.86-1.86c-.16.25-.32.5-.49.75"/><path id="_路徑_7" data-name="&lt;路徑&gt;" class="cls-14" d="M84,15.37l1.87,1.87c.13-.29.25-.58.36-.88L84.4,14.5q-.16.43-.36.87"/><path id="_路徑_8" data-name="&lt;路徑&gt;" class="cls-14" d="M78,21.79l1.86,1.87a9,9,0,0,0,.79-.46l-1.87-1.87c-.26.17-.52.32-.78.46"/><path id="_路徑_9" data-name="&lt;路徑&gt;" class="cls-14" d="M75.87,22.73l1.87,1.87c.3-.1.6-.21.9-.34L76.78,22.4c-.3.12-.61.23-.91.33"/><path id="_路徑_10" data-name="&lt;路徑&gt;" class="cls-14" d="M72.74,23.32l1.87,1.87c.37,0,.75-.06,1.12-.11l-1.87-1.87c-.37.05-.75.09-1.12.11"/><path id="_路徑_11" data-name="&lt;路徑&gt;" class="cls-14" d="M69.28,23l1.88,1.88a11.16,11.16,0,0,0,1.53.29l-1.87-1.87a10.22,10.22,0,0,1-1.54-.3"/><path id="_路徑_12" data-name="&lt;路徑&gt;" class="cls-14" d="M85,12.56l1.87,1.87c.07-.36.12-.72.16-1.08l-1.87-1.87c0,.36-.09.72-.16,1.08"/><path id="_路徑_13" data-name="&lt;路徑&gt;" class="cls-14" d="M87,11.54a12.93,12.93,0,0,0-.16-1.41L85,8.25a13.44,13.44,0,0,1,.18,1.42Z"/><path id="_路徑_14" data-name="&lt;路徑&gt;" class="cls-15" d="M64.47,25a2.21,2.21,0,0,1-2.2-2.2.44.44,0,1,1,.88,0,1.32,1.32,0,0,0,1.32,1.32.44.44,0,0,1,.44.44.44.44,0,0,1-.44.44"/><path id="_路徑_15" data-name="&lt;路徑&gt;" class="cls-15" d="M86.42,3.07A.44.44,0,0,1,86,2.63c0-1-.59-1.75-1.32-1.75a.44.44,0,0,1-.44-.44A.44.44,0,0,1,84.66,0a2.45,2.45,0,0,1,2.2,2.63.44.44,0,0,1-.44.44"/><path id="_路徑_16" data-name="&lt;路徑&gt;" class="cls-15" d="M82,24.59a.44.44,0,0,1,0-.88,4,4,0,0,0,4-3.95.44.44,0,1,1,.88,0A4.84,4.84,0,0,1,82,24.59"/><path id="_路徑_17" data-name="&lt;路徑&gt;" class="cls-15" d="M85.1,25.47a.44.44,0,0,1-.44-.44.44.44,0,0,1,.44-.44c.72,0,1.32-.41,1.32-.88a.44.44,0,0,1,.88,0,2,2,0,0,1-2.2,1.76"/><path id="_路徑_18" data-name="&lt;路徑&gt;" class="cls-13" d="M78.74,10c-.1-2.55-2-3.54-4.87-3.54h-.38A3.75,3.75,0,0,1,71.15,6a2.19,2.19,0,0,1-.56-.52c-.06-.09-.21,0-.22.08s0,.39,0,.63c0,.88-.08.75-.62,1.59A6,6,0,0,0,69,9.34a1.33,1.33,0,0,0-.81.93l-.12.56a1.06,1.06,0,0,0,.57,1.2,3.92,3.92,0,0,0,1.65,3.19l-.14.77a.5.5,0,0,1-.36.4L67.19,17a2,2,0,0,0-1.38,1.57l0,.19c.13.15.26.31.41.46A8.28,8.28,0,0,0,72.1,21.6a10.84,10.84,0,0,0,5.69-1.69l-3-2.3a.68.68,0,0,1-.27-.6l.12-.86a4.52,4.52,0,0,0,3.43-2.79,1.51,1.51,0,0,0,1.43-1.24l.07-.74A1.41,1.41,0,0,0,78.74,10"/></g></g></g></svg>