<svg xmlns="http://www.w3.org/2000/svg" viewBox="0 0 149.01 147.46"><defs><style>.cls-1{fill:#fff;}.cls-2{fill:#263238;}.cls-3{fill:#4db6ac;}.cls-4{fill:#ffd740;}.cls-5{fill:#40c4ff;}</style></defs><title>W_1</title><g id="圖層_2" data-name="圖層 2"><g id="圖層_1-2" data-name="圖層 1"><path class="cls-1" d="M9.08,51.77s3.45-5.17,9.49-20.69S40.12-.83,62.55,0s27.59,10.35,44,14.66,37.08,12.08,39.66,37.08.87,28.46,2.59,37.08-6,29.32-28.46,37.09S97.9,157,63.41,143.18s-27.6-28.46-46.57-39.67S-5.58,65.57,9.08,51.77Z"/><path class="cls-2" d="M49.4,120.71a.92.92,0,0,1-.92-.85L44.92,78.52l-11.77,5a13,13,0,0,0-7.89,12v24.26a.93.93,0,1,1-1.85,0V95.52a14.84,14.84,0,0,1,9-13.66l12.95-5.55a.93.93,0,0,1,1.29.77l3.67,42.62a.94.94,0,0,1-.85,1Z"/><path class="cls-2" d="M66.16,120.71h-.08a.94.94,0,0,1-.85-1L68.9,77.08a.93.93,0,0,1,.45-.71.89.89,0,0,1,.84-.06l13,5.55a14.86,14.86,0,0,1,9,13.66V104h17.65a.93.93,0,0,1,.93.93v14.86a.93.93,0,0,1-.93.93H85.65a10.24,10.24,0,0,1-10.22-10.22v-5.57a.93.93,0,0,1,1.86,0v5.57a8.37,8.37,0,0,0,8.36,8.36h23.23v-13H91.23a.93.93,0,0,1-.93-.93v-9.4a13,13,0,0,0-7.89-12l-11.77-5-3.56,41.34A.92.92,0,0,1,66.16,120.71Z"/><path class="cls-2" d="M125.49,118.85h-12a.93.93,0,0,1,0-1.86h12a3.72,3.72,0,0,0,3.57-2.69l2.08-7.27a.9.9,0,0,0-.15-.81.91.91,0,0,0-.74-.37H113.52a.93.93,0,0,1,0-1.86h16.73a2.78,2.78,0,0,1,2.67,3.55l-2.07,7.27A5.6,5.6,0,0,1,125.49,118.85Z"/><path class="cls-3" d="M127.45,97.48H104.94a4.64,4.64,0,0,1-4-7l11.51-19h7.43l11.51,19A4.64,4.64,0,0,1,127.45,97.48Z"/><path class="cls-2" d="M127.45,98.41H104.94A5.56,5.56,0,0,1,100.18,90l11.51-19a.93.93,0,0,1,.79-.45h7.43a.93.93,0,0,1,.8.45l11.51,19a5.57,5.57,0,0,1-4.77,8.46ZM113,72.4,101.77,90.91a3.72,3.72,0,0,0,3.17,5.65h22.51a3.72,3.72,0,0,0,3.18-5.65L119.39,72.4Z"/><path class="cls-2" d="M119.91,72.4h-7.43a.93.93,0,0,1-.93-.93V67.75a.93.93,0,0,1,.93-.92h7.43a.92.92,0,0,1,.93.92v3.72A.93.93,0,0,1,119.91,72.4Zm-6.5-1.86H119V68.68h-5.57Z"/><path class="cls-2" d="M117.59,90.05h-4.18a.93.93,0,1,1,0-1.86h4.18a1.39,1.39,0,0,0,0-2.78H114.8a3.26,3.26,0,0,1,0-6.51H119a.93.93,0,0,1,0,1.86H114.8a1.4,1.4,0,0,0,0,2.79h2.79a3.25,3.25,0,0,1,0,6.5Z"/><path class="cls-2" d="M116.2,79.83a.92.92,0,0,1-.93-.93V77a.93.93,0,0,1,1.86,0V78.9A.93.93,0,0,1,116.2,79.83Z"/><path class="cls-2" d="M116.2,92.84a.93.93,0,0,1-.93-.93V90.05a.93.93,0,1,1,1.86,0v1.86A.93.93,0,0,1,116.2,92.84Z"/><path class="cls-3" d="M119.91,67.75h-7.43l-3.71-11.14h14.86Z"/><path class="cls-2" d="M119.91,68.68h-7.43a.92.92,0,0,1-.88-.63L107.88,56.9a.94.94,0,0,1,.13-.84.91.91,0,0,1,.75-.38h14.87a.91.91,0,0,1,.75.38.94.94,0,0,1,.13.84l-3.72,11.15A.92.92,0,0,1,119.91,68.68Zm-6.76-1.85h6.09l3.1-9.3H110.05Z"/><path class="cls-2" d="M116.2,63.11a.93.93,0,0,1-.93-.93V56.61a.93.93,0,1,1,1.86,0v5.57A.93.93,0,0,1,116.2,63.11Z"/><path class="cls-2" d="M57.78,74.26a21.26,21.26,0,0,1-20.62-15.8,5.57,5.57,0,0,1,0-11.14,21.36,21.36,0,0,1,41.24,0,5.57,5.57,0,0,1,0,11.14A21.25,21.25,0,0,1,57.78,74.26Zm-20-17.69a1.06,1.06,0,0,1,1,.7,19.49,19.49,0,0,0,38,0,.9.9,0,0,1,1-.71c.24,0,.33,0,.42,0a3.72,3.72,0,0,0,0-7.44,1.9,1.9,0,0,0-.25,0,1.11,1.11,0,0,1-1.19-.69,19.49,19.49,0,0,0-38,0,.92.92,0,0,1-1,.71c-.26,0-.34,0-.43,0a3.72,3.72,0,0,0,0,7.44,2.4,2.4,0,0,0,.28,0Z"/><path class="cls-4" d="M39.2,51h-.93V39h5.58v7.44A4.65,4.65,0,0,1,39.2,51Z"/><path class="cls-2" d="M39.2,52h-.93a.93.93,0,0,1-.93-.93V39a.93.93,0,0,1,.93-.93h5.58a.93.93,0,0,1,.92.93v7.44A5.58,5.58,0,0,1,39.2,52Zm0-1.86h0Zm0-10.22V50.1a3.72,3.72,0,0,0,3.72-3.71V39.88Z"/><path class="cls-4" d="M71.72,38.86v7.53A4.64,4.64,0,0,0,76.36,51h.93V36.29A9.21,9.21,0,0,1,71.72,38.86Z"/><path class="cls-2" d="M77.29,52h-.93a5.58,5.58,0,0,1-5.57-5.57V38.86a.92.92,0,0,1,.83-.92,8.43,8.43,0,0,0,5-2.31.93.93,0,0,1,1.58.66V51A.93.93,0,0,1,77.29,52ZM72.65,39.67v6.72a3.71,3.71,0,0,0,3.71,3.71V38.21A10.59,10.59,0,0,1,72.65,39.67Z"/><path class="cls-2" d="M57.78,63.11a10.22,10.22,0,0,1-7.23-3,.93.93,0,1,1,1.32-1.32,8.37,8.37,0,0,0,11.82,0A.93.93,0,0,1,65,60.12,10.22,10.22,0,0,1,57.78,63.11Z"/><path class="cls-4" d="M70.79,39H38.27A13.94,13.94,0,0,1,52.21,25h9.67a27.88,27.88,0,0,0,11.68-2.57l6.52-3V29.66A9.28,9.28,0,0,1,70.79,39Z"/><path class="cls-2" d="M70.79,39.88H38.27a.93.93,0,0,1-.93-.93A14.88,14.88,0,0,1,52.21,24.09h9.67a27.15,27.15,0,0,0,11.29-2.48l6.52-3a.94.94,0,0,1,.89.06.93.93,0,0,1,.43.78V29.66A10.23,10.23,0,0,1,70.79,39.88ZM39.23,38H70.79a8.37,8.37,0,0,0,8.36-8.36V20.9L74,23.3A29.07,29.07,0,0,1,61.88,26H52.21A13,13,0,0,0,39.23,38Z"/><path class="cls-5" d="M62.43,114.32l-4.65,5.46-4.64-5.46,2.78-28h3.72Z"/><path class="cls-2" d="M57.78,120.71a.94.94,0,0,1-.71-.33l-4.64-5.46a.91.91,0,0,1-.22-.69l2.79-28a.93.93,0,0,1,.92-.83h3.72a.92.92,0,0,1,.92.83l2.79,28a.88.88,0,0,1-.22.69l-4.64,5.46A.94.94,0,0,1,57.78,120.71ZM54.1,114l3.68,4.33L61.46,114,58.8,87.27h-2Z"/><path class="cls-2" d="M39.2,120.71a.93.93,0,0,1-.93-.93V101.2a.93.93,0,1,1,1.86,0v18.58A.93.93,0,0,1,39.2,120.71Z"/><path class="cls-2" d="M76.36,120.71a.93.93,0,0,1-.93-.93V101.2a.93.93,0,0,1,1.86,0v18.58A.93.93,0,0,1,76.36,120.71Z"/><path class="cls-2" d="M46.51,87.26a.84.84,0,0,1-.38-.08.9.9,0,0,1-.54-.77l-.78-9.17a.94.94,0,0,1,.56-.93l4.61-2a.94.94,0,0,1,1.14.34l3.72,5.58a.93.93,0,0,1-.22,1.26l-7.56,5.57A.91.91,0,0,1,46.51,87.26Zm.21-9.51.58,6.85,5.5-4.06L50,76.34Z"/><path class="cls-2" d="M69,87.26a1,1,0,0,1-.56-.18L61,81.51a.94.94,0,0,1-.23-1.27l3.72-5.57a.94.94,0,0,1,1.14-.34l4.61,2a.92.92,0,0,1,.56.93L70,86.41a.94.94,0,0,1-.54.77A.87.87,0,0,1,69,87.26Zm-6.28-6.72,5.49,4.06.59-6.85-3.28-1.41Z"/><path class="cls-2" d="M59.64,87.26H55.92a2.79,2.79,0,0,1-2.78-2.78V82.62a2.79,2.79,0,0,1,2.78-2.79h3.72a2.79,2.79,0,0,1,2.79,2.79v1.86A2.79,2.79,0,0,1,59.64,87.26Zm-3.72-5.57a.93.93,0,0,0-.93.93v1.86a.93.93,0,0,0,.93.93h3.72a.93.93,0,0,0,.93-.93V82.62a.93.93,0,0,0-.93-.93Z"/><path class="cls-2" d="M54.52,82.37h-.05a.94.94,0,0,1-.72-.41L49.58,75.7a.86.86,0,0,1-.16-.51V71.92a.94.94,0,0,1,1.27-.87,19.42,19.42,0,0,0,14.19,0,.91.91,0,0,1,.86.1.93.93,0,0,1,.4.77v3.27a.92.92,0,0,1-.15.51L61.82,82a.94.94,0,0,1-.72.41.86.86,0,0,1-.77-.33.91.91,0,0,0-.69-.35H55.92a.91.91,0,0,0-.69.35A.94.94,0,0,1,54.52,82.37Zm-3.24-7.46,3.47,5.2a2.62,2.62,0,0,1,1.17-.28h3.72a2.69,2.69,0,0,1,1.18.28l3.46-5.21V73.23a21.22,21.22,0,0,1-13,0Z"/><path class="cls-2" d="M36.41,73.33H22.48a.93.93,0,1,1,0-1.86H36.41a.93.93,0,1,1,0,1.86Z"/><path class="cls-2" d="M18.76,73.33H16.9a.93.93,0,0,1,0-1.86h1.86a.93.93,0,1,1,0,1.86Z"/><path class="cls-2" d="M112.6,44.53h-7.44a.93.93,0,1,1,0-1.86h7.44a.93.93,0,0,1,0,1.86Z"/><path class="cls-2" d="M108.88,48.24a.93.93,0,0,1-.93-.92V39.88a.93.93,0,0,1,1.86,0v7.44A.93.93,0,0,1,108.88,48.24Z"/><path class="cls-2" d="M101.45,53.82H94A.93.93,0,0,1,94,52h7.44a.93.93,0,0,1,0,1.86Z"/><path class="cls-2" d="M97.73,57.53a.93.93,0,0,1-.93-.92V49.17a.93.93,0,1,1,1.86,0v7.44A.93.93,0,0,1,97.73,57.53Z"/></g></g></svg>