<svg xmlns="http://www.w3.org/2000/svg" viewBox="0 0 148.63 147.12"><defs><style>.cls-1{fill:#fff;}.cls-2{fill:#263238;}.cls-3{fill:#ffd740;}</style></defs><title>W_2</title><g id="圖層_2" data-name="圖層 2"><g id="圖層_1-2" data-name="圖層 1"><path class="cls-1" d="M37.3,137S6.64,132.49,1.43,103.28,6.82,64.93,8.79,40.91,38,14,52.84,5.39,79.58-1,101,8.48s49.15,9.26,47.58,44.6-5.4,38.35-13.64,49.5S122.14,137.46,105.66,145,37.3,137,37.3,137Z"/><path class="cls-2" d="M42.87,51.94h-6.8a.85.85,0,1,1,0-1.7h6.8a.85.85,0,0,1,0,1.7Z"/><path class="cls-2" d="M39.47,55.34a.85.85,0,0,1-.85-.85v-6.8a.85.85,0,1,1,1.7,0v6.8A.85.85,0,0,1,39.47,55.34Z"/><path class="cls-2" d="M33.52,63h-6.8a.85.85,0,1,1,0-1.7h6.8a.85.85,0,1,1,0,1.7Z"/><path class="cls-2" d="M30.12,66.39a.85.85,0,0,1-.85-.85v-6.8a.85.85,0,1,1,1.7,0v6.8A.85.85,0,0,1,30.12,66.39Z"/><path class="cls-3" d="M68.77,79.14a13.6,13.6,0,1,0-26.31,0"/><path class="cls-2" d="M68.77,80a.76.76,0,0,1-.21,0,.84.84,0,0,1-.61-1,12.75,12.75,0,1,0-24.66,0,.85.85,0,0,1-1.65.42,14.45,14.45,0,1,1,28,0A.85.85,0,0,1,68.77,80Z"/><path class="cls-3" d="M106.17,79.14a13.6,13.6,0,1,0-26.31,0"/><path class="cls-2" d="M106.17,80a.78.78,0,0,1-.22,0,.86.86,0,0,1-.61-1,12.74,12.74,0,1,0-25.07-3.19,13.17,13.17,0,0,0,.41,3.19.85.85,0,0,1-1.64.42,14.15,14.15,0,0,1-.47-3.61,14.45,14.45,0,1,1,28.89,0,14.67,14.67,0,0,1-.47,3.61A.84.84,0,0,1,106.17,80Z"/><path class="cls-2" d="M55.62,72.34a.85.85,0,0,1-.85-.85V68.94a.85.85,0,1,1,1.7,0v2.55A.85.85,0,0,1,55.62,72.34Z"/><path class="cls-2" d="M58.59,80a.8.8,0,0,1-.51-.17.85.85,0,0,1-.17-1.19,1.26,1.26,0,0,0,.26-.77,1.27,1.27,0,0,0-1.28-1.27H54.34a3,3,0,0,1,0-6h3.83a.85.85,0,1,1,0,1.7H54.34a1.28,1.28,0,0,0,0,2.55h2.55a3,3,0,0,1,2.38,4.76A.86.86,0,0,1,58.59,80Z"/><path class="cls-2" d="M93,72.34a.85.85,0,0,1-.85-.85V68.94a.85.85,0,0,1,1.7,0v2.55A.85.85,0,0,1,93,72.34Z"/><path class="cls-2" d="M96,80a.82.82,0,0,1-.51-.17.86.86,0,0,1-.17-1.19,1.26,1.26,0,0,0,.26-.77,1.27,1.27,0,0,0-1.27-1.27H91.74a3,3,0,1,1,0-6h3.82a.85.85,0,1,1,0,1.7H91.74a1.28,1.28,0,1,0,0,2.55h2.55a3,3,0,0,1,2.37,4.77A.85.85,0,0,1,96,80Z"/><path class="cls-2" d="M74.32,132.68H39.47a5.11,5.11,0,0,1-5.1-5.1V100.39a.85.85,0,0,1,1.7,0v27.19a3.4,3.4,0,0,0,3.4,3.4h34V82.54a.85.85,0,0,1,1.7,0v49.29A.86.86,0,0,1,74.32,132.68Z"/><path class="cls-2" d="M59,97.84H26.72a.85.85,0,0,1-.58-1.47l15.3-14.45a.82.82,0,0,1,.58-.23h32.3a.86.86,0,0,1,.79.53.85.85,0,0,1-.21.93L59.6,97.6A.86.86,0,0,1,59,97.84Zm-30.16-1.7H58.68l13.5-12.75H42.36Z"/><path class="cls-2" d="M109.16,132.68H74.32a.85.85,0,0,1-.85-.85V82.54a.85.85,0,0,1,1.7,0V131h34a3.4,3.4,0,0,0,3.4-3.4V100.39a.85.85,0,1,1,1.7,0v27.19A5.11,5.11,0,0,1,109.16,132.68Z"/><path class="cls-2" d="M121.91,97.84H89.61A.86.86,0,0,1,89,97.6L73.73,83.15a.84.84,0,0,1,.59-1.46h32.29a.82.82,0,0,1,.58.23l15.3,14.45a.85.85,0,0,1-.58,1.47Zm-32-1.7h29.82l-13.5-12.75H76.45Z"/><path class="cls-3" d="M87.91,43.44a13.6,13.6,0,1,1-13.59-13.6A13.59,13.59,0,0,1,87.91,43.44Z"/><path class="cls-2" d="M74.32,57.89A14.45,14.45,0,1,1,88.76,43.44,14.46,14.46,0,0,1,74.32,57.89Zm0-27.2A12.75,12.75,0,1,0,87.06,43.44,12.76,12.76,0,0,0,74.32,30.69Z"/><path class="cls-2" d="M74.32,40a.85.85,0,0,1-.85-.85V36.64a.85.85,0,1,1,1.7,0v2.55A.86.86,0,0,1,74.32,40Z"/><path class="cls-2" d="M74.32,51.09a.85.85,0,0,1-.85-.85V47.69a.85.85,0,0,1,1.7,0v2.55A.86.86,0,0,1,74.32,51.09Z"/><path class="cls-2" d="M75.59,48.54H70.91a.85.85,0,0,1,0-1.7h4.68a1.28,1.28,0,0,0,0-2.55H73a3,3,0,1,1,0-5.95h3.82a.85.85,0,0,1,0,1.7H73a1.28,1.28,0,1,0,0,2.55h2.55a3,3,0,0,1,0,5.95Z"/><path class="cls-2" d="M93.86,104.63a.85.85,0,0,1-.85-.84v-3.4a.85.85,0,0,1,1.7,0v3.4A.85.85,0,0,1,93.86,104.63Z"/><path class="cls-2" d="M85.36,107.54a.85.85,0,0,1-.6-.25l-2.4-2.41a.85.85,0,0,1,1.2-1.2l2.4,2.41a.83.83,0,0,1,0,1.2A.82.82,0,0,1,85.36,107.54Z"/><path class="cls-2" d="M102.36,107.54a.83.83,0,0,1-.6-.25.85.85,0,0,1,0-1.2l2.4-2.41a.86.86,0,0,1,1.21,0,.85.85,0,0,1,0,1.2L103,107.29A.82.82,0,0,1,102.36,107.54Z"/><path class="cls-2" d="M93.86,119.93a6.8,6.8,0,1,1,6.8-6.8A6.81,6.81,0,0,1,93.86,119.93Zm0-11.9a5.1,5.1,0,1,0,5.1,5.1A5.11,5.11,0,0,0,93.86,108Z"/><path class="cls-2" d="M97.26,124.18h-6.8a.85.85,0,0,1,0-1.7h6.8a.85.85,0,1,1,0,1.7Z"/><path class="cls-2" d="M95.56,127.58h-3.4a.85.85,0,1,1,0-1.7h3.4a.85.85,0,1,1,0,1.7Z"/><path class="cls-2" d="M93.86,119.08a.85.85,0,0,1-.85-.85v-5.1a.85.85,0,0,1,1.7,0v5.1A.85.85,0,0,1,93.86,119.08Z"/><path class="cls-2" d="M93,56.19a.85.85,0,0,1-.85-.85v-3.4a.85.85,0,1,1,1.7,0v3.4A.85.85,0,0,1,93,56.19Z"/><path class="cls-2" d="M93,49.39a.85.85,0,0,1-.85-.85V44.29a9.37,9.37,0,0,1,9.35-9.35h4.25a.85.85,0,0,1,0,1.7h-4.25a7.67,7.67,0,0,0-7.65,7.65v4.25A.85.85,0,0,1,93,49.39Z"/><path class="cls-2" d="M55.62,56.19a.85.85,0,0,1-.85-.85v-3.4a.85.85,0,1,1,1.7,0v3.4A.85.85,0,0,1,55.62,56.19Z"/><path class="cls-2" d="M55.62,49.39a.85.85,0,0,1-.85-.85V44.29a7.66,7.66,0,0,0-7.65-7.65H42.87a.85.85,0,0,1,0-1.7h4.25a9.37,9.37,0,0,1,9.35,9.35v4.25A.85.85,0,0,1,55.62,49.39Z"/></g></g></svg>