<svg xmlns="http://www.w3.org/2000/svg" viewBox="0 0 167.38 160.95"><defs><style>.cls-1{fill:#fff;}.cls-2{fill:#263238;}.cls-3{fill:#40c4ff;}.cls-4{fill:#ffd740;}.cls-5{fill:#4db6ac;}.cls-6{fill:#ff5252;}</style></defs><title>W_3</title><g id="圖層_2" data-name="圖層 2"><g id="圖層_1-2" data-name="圖層 1"><path class="cls-1" d="M35.87,20.27S51,1.32,80.4.37s55.9-2.84,71.07,34.11,26.53,79.6,0,93.81-37,43.59-73.91,28.43S-6.77,104.6.81,71.44,35.87,20.27,35.87,20.27Z"/><path class="cls-2" d="M62.25,122.2a9.34,9.34,0,1,1,9.33-9.33A9.34,9.34,0,0,1,62.25,122.2Zm0-17a7.64,7.64,0,1,0,7.63,7.64A7.65,7.65,0,0,0,62.25,105.23Z"/><path class="cls-2" d="M48.67,135.78a.85.85,0,0,1-.85-.85v-5.75a5.12,5.12,0,0,1,3-4.64l6.34-2.87v-1.46a.85.85,0,0,1,1.7,0v2a.87.87,0,0,1-.5.78l-6.84,3.1a3.39,3.39,0,0,0-2,3.09v5.75A.85.85,0,0,1,48.67,135.78Z"/><path class="cls-2" d="M75.82,135.78a.85.85,0,0,1-.85-.85v-5.75a3.39,3.39,0,0,0-2-3.09L66.12,123a.85.85,0,0,1-.49-.77v-2a.85.85,0,1,1,1.69,0v1.42l6.35,2.89a5.11,5.11,0,0,1,3,4.64v5.75A.85.85,0,0,1,75.82,135.78Z"/><path class="cls-2" d="M89.4,122.2a9.34,9.34,0,1,1,9.34-9.33A9.34,9.34,0,0,1,89.4,122.2Zm0-17A7.64,7.64,0,1,0,97,112.87,7.65,7.65,0,0,0,89.4,105.23Z"/><path class="cls-2" d="M75.82,135.78a.85.85,0,0,1-.85-.85v-5.75a5.11,5.11,0,0,1,3-4.64l6.34-2.87v-1.46a.85.85,0,0,1,1.7,0v2a.86.86,0,0,1-.49.78l-6.84,3.1a3.4,3.4,0,0,0-2,3.09v5.75A.85.85,0,0,1,75.82,135.78Z"/><path class="cls-2" d="M103,135.78a.85.85,0,0,1-.85-.85v-5.75a3.39,3.39,0,0,0-2-3.09L93.28,123a.86.86,0,0,1-.5-.77v-2a.85.85,0,1,1,1.7,0v1.42l6.36,2.89a5.1,5.1,0,0,1,3,4.64v5.75A.85.85,0,0,1,103,135.78Z"/><path class="cls-2" d="M116.56,122.2a9.34,9.34,0,1,1,9.33-9.33A9.34,9.34,0,0,1,116.56,122.2Zm0-17a7.64,7.64,0,1,0,7.64,7.64A7.65,7.65,0,0,0,116.56,105.23Z"/><path class="cls-2" d="M103,135.78a.85.85,0,0,1-.85-.85v-5.75a5.12,5.12,0,0,1,3-4.64l6.34-2.87v-1.46a.85.85,0,1,1,1.7,0v2a.86.86,0,0,1-.5.78l-6.83,3.1a3.41,3.41,0,0,0-2,3.09v5.75A.85.85,0,0,1,103,135.78Z"/><path class="cls-2" d="M130.13,135.78a.85.85,0,0,1-.85-.85v-5.75a3.39,3.39,0,0,0-2-3.09L120.44,123a.84.84,0,0,1-.5-.77v-2a.85.85,0,1,1,1.69,0v1.42l6.36,2.89a5.1,5.1,0,0,1,3,4.64v5.75A.85.85,0,0,1,130.13,135.78Z"/><path class="cls-3" d="M89.4,28H65.64a1.7,1.7,0,0,0-1.7,1.7V45a1.7,1.7,0,0,0,1.7,1.69h4.24v4.87a1.69,1.69,0,0,0,2.78,1.3l7.4-6.17H89.4A1.69,1.69,0,0,0,91.09,45V29.7A1.69,1.69,0,0,0,89.4,28Z"/><path class="cls-2" d="M71.58,54.09a2.47,2.47,0,0,1-1.08-.25A2.5,2.5,0,0,1,69,51.54v-4H65.64A2.55,2.55,0,0,1,63.09,45V29.7a2.55,2.55,0,0,1,2.55-2.54H89.4a2.54,2.54,0,0,1,2.54,2.54V45a2.54,2.54,0,0,1-2.54,2.54h-9l-7.16,6A2.54,2.54,0,0,1,71.58,54.09ZM65.64,28.85a.85.85,0,0,0-.85.85V45a.85.85,0,0,0,.85.85h4.24a.85.85,0,0,1,.85.84v4.87a.85.85,0,0,0,1.39.65L79.52,46a.87.87,0,0,1,.54-.19H89.4a.85.85,0,0,0,.84-.85V29.7a.85.85,0,0,0-.84-.85Z"/><path class="cls-2" d="M125,81.47h-17a.85.85,0,0,1,0-1.7h17a.85.85,0,1,1,0,1.7Z"/><path class="cls-2" d="M120,85.71H108.07a.85.85,0,0,1,0-1.7H120a.85.85,0,0,1,0,1.7Z"/><path class="cls-2" d="M120,77.22H108.07a.85.85,0,1,1,0-1.69H120a.85.85,0,1,1,0,1.69Z"/><path class="cls-2" d="M57.16,71.28a11,11,0,1,1,11-11A11,11,0,0,1,57.16,71.28Zm0-20.36a9.34,9.34,0,1,0,9.33,9.33A9.34,9.34,0,0,0,57.16,50.92Z"/><path class="cls-4" d="M64.22,54.36l.76-.63a10.18,10.18,0,0,0-18,6.52h1A25.42,25.42,0,0,0,64.22,54.36Z"/><path class="cls-2" d="M47.94,61.1H47a.85.85,0,0,1-.85-.85,11,11,0,0,1,19.5-7.06.81.81,0,0,1,.19.62.79.79,0,0,1-.3.57l-.76.64A26.36,26.36,0,0,1,47.94,61.1Zm-.08-1.7h.08a24.65,24.65,0,0,0,15.74-5.69l.07-.06A9.33,9.33,0,0,0,47.86,59.4Z"/><path class="cls-2" d="M40.18,99.29a.85.85,0,0,1-.85-.85V83.31A9.27,9.27,0,0,1,44.48,75l7.19-3.61a.87.87,0,0,1,1.14.38.85.85,0,0,1-.38,1.14l-7.19,3.6A7.6,7.6,0,0,0,41,83.31V98.44A.85.85,0,0,1,40.18,99.29Z"/><path class="cls-2" d="M47,99.29a.85.85,0,0,1-.85-.85v-11a.85.85,0,1,1,1.69,0v11A.85.85,0,0,1,47,99.29Z"/><path class="cls-2" d="M57.14,80.61a.83.83,0,0,1-.7-.38l-5.09-7.64a.78.78,0,0,1-.15-.47V69.06a.85.85,0,0,1,.85-.85h0a.85.85,0,0,1,.85.85v2.81l4.24,6.36,4.25-6.36V69.08a.85.85,0,1,1,1.69,0v3a.82.82,0,0,1-.15.47l-5.09,7.64A.86.86,0,0,1,57.14,80.61Z"/><path class="cls-2" d="M57.15,87.4a.85.85,0,0,1-.85-.85V79.76a.85.85,0,1,1,1.7,0v6.79A.85.85,0,0,1,57.15,87.4Z"/><path class="cls-2" d="M67.34,99.29a.86.86,0,0,1-.85-.85V82.6a.85.85,0,0,1,.52-.78A.86.86,0,0,1,68,82l9.87,9.87a2.61,2.61,0,0,0,3.6,0l9-9-3.6-3.6-6.6,6.6a.85.85,0,0,1-1.2,0l-6.59-6.59a15.93,15.93,0,0,0-3.87-2.85l-6.72-3.56a.85.85,0,0,1,.79-1.5l6.73,3.56a17.81,17.81,0,0,1,4.27,3.15l6,6,6.6-6.6a.85.85,0,0,1,1.2,0l4.8,4.8a.86.86,0,0,1,.25.6.84.84,0,0,1-.25.6l-9.6,9.6a4.35,4.35,0,0,1-6,0L68.2,84.65V98.44A.85.85,0,0,1,67.34,99.29Z"/><path class="cls-2" d="M135.22,91.65H88.49a.85.85,0,0,1,0-1.7h46.73a.85.85,0,0,0,.85-.84V51.77a.85.85,0,0,0-.85-.85H87.7a.85.85,0,0,0-.85.85v23a.85.85,0,1,1-1.7,0v-23a2.55,2.55,0,0,1,2.55-2.55h47.52a2.55,2.55,0,0,1,2.55,2.55V89.11A2.55,2.55,0,0,1,135.22,91.65Z"/><path class="cls-2" d="M94,81.32a.82.82,0,0,1-.6-.25.85.85,0,0,1,0-1.2,2.55,2.55,0,0,0,0-3.6,2.61,2.61,0,0,0-3.6,0l-1.2-1.2a4.24,4.24,0,0,1,6,6A.83.83,0,0,1,94,81.32Z"/><path class="cls-2" d="M133.53,33.83h-6.79a.85.85,0,1,1,0-1.7h6.79a.85.85,0,1,1,0,1.7Z"/><path class="cls-2" d="M130.13,37.23a.85.85,0,0,1-.85-.85V29.59a.85.85,0,1,1,1.7,0v6.79A.85.85,0,0,1,130.13,37.23Z"/><path class="cls-2" d="M142,43.17h-6.79a.85.85,0,0,1,0-1.7H142a.85.85,0,0,1,0,1.7Z"/><path class="cls-2" d="M138.62,46.56a.85.85,0,0,1-.85-.85V38.92a.85.85,0,1,1,1.7,0v6.79A.85.85,0,0,1,138.62,46.56Z"/><path class="cls-2" d="M127.59,96.68h-17a.85.85,0,1,1,0-1.69h17a.85.85,0,0,1,0,1.69Z"/><path class="cls-2" d="M132.68,96.68H131A.85.85,0,1,1,131,95h1.7a.85.85,0,1,1,0,1.69Z"/><path class="cls-2" d="M86,35.64H69a.85.85,0,0,1,0-1.7H86a.85.85,0,1,1,0,1.7Z"/><path class="cls-2" d="M86,40.73H69A.85.85,0,1,1,69,39H86a.85.85,0,1,1,0,1.69Z"/><path class="cls-5" d="M108.07,62.8h6.79v8.48h-6.79Z"/><path class="cls-2" d="M114.86,72.13h-6.79a.85.85,0,0,1-.85-.85V62.8a.85.85,0,0,1,.85-.85h6.79a.85.85,0,0,1,.84.85v8.48A.85.85,0,0,1,114.86,72.13Zm-5.94-1.69H114V63.65h-5.09Z"/><path class="cls-6" d="M118.25,56H125V71.28h-6.79Z"/><path class="cls-2" d="M125,72.13h-6.79a.85.85,0,0,1-.85-.85V56a.85.85,0,0,1,.85-.85H125a.85.85,0,0,1,.85.85V71.28A.85.85,0,0,1,125,72.13Zm-5.94-1.69h5.09V56.86H119.1Z"/><path class="cls-2" d="M103,62H92.79a.85.85,0,0,1-.85-.85V56a.85.85,0,0,1,.85-.85H103a.85.85,0,0,1,.84.85V61.1A.85.85,0,0,1,103,62Zm-9.34-1.7h8.49V56.86H93.64Z"/></g></g></svg>