<svg xmlns="http://www.w3.org/2000/svg" viewBox="0 0 157.96 156.41"><defs><style>.cls-1{fill:#fff;}.cls-2{fill:#ffd740;}.cls-3{fill:#263238;}.cls-4{fill:#ff5252;}.cls-5{fill:#40c4ff;}</style></defs><title>W_4</title><g id="圖層_2" data-name="圖層 2"><g id="圖層_1-2" data-name="圖層 1"><path class="cls-1" d="M112.39,13.69s4.79,4.48,19.9,13.42S161.78,55,157,78.19s-15.5,26.93-22.79,43.23-18.92,36.5-45.38,34.9-29.75-4-39-3.66-29.46-11.31-33.69-36S-12.29,88,8,54.53,42.32,30.71,57.23,12.89,100.55-3.92,112.39,13.69Z"/><path class="cls-2" d="M50.1,110.62a6.81,6.81,0,0,1-6.79-6.8,3.38,3.38,0,0,1,.86-2.25,5.08,5.08,0,0,1-.87-2.85v-16s0-.1,0-.16L28,97.87,50.1,117Z"/><path class="cls-3" d="M111.28,106.37a.85.85,0,0,1-.85-.85V57.92a.85.85,0,1,1,1.7,0v47.6A.86.86,0,0,1,111.28,106.37Z"/><path class="cls-4" d="M111.28,73.22V59.62L130,66.42Z"/><path class="cls-3" d="M111.28,74.07a.84.84,0,0,1-.49-.15.84.84,0,0,1-.36-.7V59.62a.83.83,0,0,1,.36-.69.87.87,0,0,1,.78-.11l18.69,6.8a.85.85,0,0,1,0,1.6L111.57,74A1,1,0,0,1,111.28,74.07Zm.85-13.23V72l15.36-5.59Z"/><path class="cls-3" d="M122.32,151.41H90a.85.85,0,0,1,0-1.7h32.29a.85.85,0,1,1,0,1.7Z"/><path class="cls-3" d="M129.12,151.41h-3.4a.85.85,0,0,1,0-1.7h3.4a.85.85,0,0,1,0,1.7Z"/><path class="cls-3" d="M28,151.41a.85.85,0,0,1-.38-1.61L56.5,135.35a.84.84,0,0,1,.71,0l9.67,4,13.2-13.2a.86.86,0,0,1,.83-.22L95.62,130l15-21.6a.84.84,0,0,1,.7-.36h17.84a.85.85,0,1,1,0,1.7h-17.4l-15,21.73a.87.87,0,0,1-.93.33l-14.82-4.12L67.68,141a.83.83,0,0,1-.93.18l-9.84-4.09L28.37,151.32A.92.92,0,0,1,28,151.41Z"/><path class="cls-3" d="M63.66,70.67a11,11,0,1,1,11-11.05A11.06,11.06,0,0,1,63.66,70.67Zm0-20.4A9.35,9.35,0,1,0,73,59.62,9.36,9.36,0,0,0,63.66,50.27Z"/><path class="cls-2" d="M70.74,53.73l.76-.64a10.2,10.2,0,0,0-18,6.53h1A25.5,25.5,0,0,0,70.74,53.73Z"/><path class="cls-3" d="M54.43,60.47h-1a.85.85,0,0,1-.85-.85,11,11,0,0,1,19.53-7.07.85.85,0,0,1,.19.62.87.87,0,0,1-.3.58l-.76.63A26.39,26.39,0,0,1,54.43,60.47Zm-.07-1.7h.07a24.64,24.64,0,0,0,15.76-5.7l.08-.06a9.34,9.34,0,0,0-15.91,5.76Z"/><path class="cls-3" d="M60.3,133.56H53.5a.85.85,0,0,1-.85-.85V100.42a.85.85,0,0,1,.85-.85H79.85a5.1,5.1,0,0,1,5.1,5.1v18.69a.85.85,0,0,1-.85.85H77.3a.85.85,0,0,1-.83-.65L73.38,110.5a.85.85,0,0,0-.83-.65H65.17a.85.85,0,0,0-.84.73l-3.19,22.25A.85.85,0,0,1,60.3,133.56Zm-5.95-1.7h5.21l3.09-21.52a2.55,2.55,0,0,1,2.52-2.19h7.38a2.54,2.54,0,0,1,2.48,2L78,122.51h5.27V104.67a3.4,3.4,0,0,0-3.39-3.4H54.35v30.59Z"/><path class="cls-3" d="M58.57,72.36a.85.85,0,0,1-.85-.85V68.46a.85.85,0,0,1,1.7,0v3.05A.85.85,0,0,1,58.57,72.36Z"/><path class="cls-3" d="M68.76,72.36a.86.86,0,0,1-.85-.84v-3a.83.83,0,0,1,.84-.85h0a.86.86,0,0,1,.85.84v3.05a.83.83,0,0,1-.84.85Z"/><path class="cls-3" d="M95.45,59.79a1,1,0,0,1-.38-.08.86.86,0,0,1-.38-1.15,2.55,2.55,0,0,0-4.56-2.27.85.85,0,0,1-1.52-.76,4.25,4.25,0,0,1,7.6,3.79A.83.83,0,0,1,95.45,59.79Z"/><path class="cls-3" d="M73.89,101.27H48.4a2.55,2.55,0,0,1-2.55-2.55v-16A9.29,9.29,0,0,1,51,74.36l7.18-3.61a.84.84,0,0,1,1,.21l4.45,5.2L68.12,71a.86.86,0,0,1,1-.21l4.95,2.47h3.56a3.36,3.36,0,0,0,3-1.88l6.39-12.77a.86.86,0,0,1,1.14-.38l6.08,3a.88.88,0,0,1,.43.5.84.84,0,0,1,0,.64L87.6,76.55a9.28,9.28,0,0,1-8.36,5.17h-4.5v18.7A.85.85,0,0,1,73.89,101.27ZM58.35,72.57l-6.59,3.31a7.59,7.59,0,0,0-4.21,6.83v16a.85.85,0,0,0,.85.85H73V80.87a.86.86,0,0,1,.85-.85h5.35a7.59,7.59,0,0,0,6.84-4.23l6.71-13.42-4.56-2.28-6,12a5.05,5.05,0,0,1-4.56,2.82H73.89a.85.85,0,0,1-.38-.09L69,72.57,64.31,78A.87.87,0,0,1,63,78Z"/><path class="cls-5" d="M66.23,90.16l-2.53,3.4-2.57-3.4L62,74.87h3.4Z"/><path class="cls-3" d="M63.7,94.41a.83.83,0,0,1-.68-.34l-2.57-3.39a.88.88,0,0,1-.17-.56l.85-15.3A.85.85,0,0,1,62,74h3.4a.85.85,0,0,1,.85.8l.85,15.3a.84.84,0,0,1-.17.55l-2.53,3.4A.83.83,0,0,1,63.7,94.41ZM62,89.9l1.69,2.25,1.67-2.25-.78-14.19h-1.8Z"/><path class="cls-3" d="M53.5,101.27a.85.85,0,0,1-.85-.85v-17a.85.85,0,1,1,1.7,0v17A.85.85,0,0,1,53.5,101.27Z"/><path class="cls-3" d="M50.11,108.07a4.25,4.25,0,0,1-4.25-4.25.85.85,0,0,1,1.7,0,2.55,2.55,0,0,0,5.1,0,.85.85,0,0,1,1.7,0A4.26,4.26,0,0,1,50.11,108.07Z"/><path class="cls-3" d="M50.1,117.87a.87.87,0,0,1-.56-.21L27.43,98.51a.86.86,0,0,1-.29-.61.81.81,0,0,1,.25-.63L42.71,82a.84.84,0,0,1,.94-.18.87.87,0,0,1,.51.81,1,1,0,0,1-.47.79L29.23,97.82l21.43,18.56a.84.84,0,0,1,.08,1.19A.81.81,0,0,1,50.1,117.87Z"/><path class="cls-3" d="M46.26,52.82h-6.8a.85.85,0,1,1,0-1.7h6.8a.85.85,0,1,1,0,1.7Z"/><path class="cls-3" d="M42.86,56.22a.85.85,0,0,1-.85-.85v-6.8a.85.85,0,1,1,1.7,0v6.8A.85.85,0,0,1,42.86,56.22Z"/><path class="cls-3" d="M37.76,62.17H31a.85.85,0,0,1,0-1.7h6.8a.85.85,0,0,1,0,1.7Z"/><path class="cls-3" d="M34.36,65.57a.85.85,0,0,1-.85-.85v-6.8a.85.85,0,0,1,1.7,0v6.8A.85.85,0,0,1,34.36,65.57Z"/></g></g></svg>